<mxfile host="app.diagrams.net" agent="Mozilla/5.0 (Windows NT 10.0; Win64; x64) AppleWebKit/537.36 (KHTML, like Gecko) Chrome/137.0.0.0 Safari/537.36" version="27.0.9">
  <diagram name="PÃ¡gina-1" id="3Qd2fU3sSrEIQ5c6kFD9">
    <mxGraphModel dx="1826" dy="775" grid="0" gridSize="10" guides="1" tooltips="1" connect="1" arrows="1" fold="1" page="0" pageScale="1" pageWidth="827" pageHeight="1169" math="0" shadow="0">
      <root>
        <mxCell id="0" />
        <mxCell id="1" parent="0" />
        <mxCell id="VhYDefbL7mIAKc7-yA0q-11" style="edgeStyle=orthogonalEdgeStyle;rounded=0;orthogonalLoop=1;jettySize=auto;html=1;" edge="1" parent="1" source="VhYDefbL7mIAKc7-yA0q-4" target="VhYDefbL7mIAKc7-yA0q-2">
          <mxGeometry relative="1" as="geometry" />
        </mxCell>
        <mxCell id="VhYDefbL7mIAKc7-yA0q-13" value="" style="edgeStyle=orthogonalEdgeStyle;rounded=0;orthogonalLoop=1;jettySize=auto;html=1;" edge="1" parent="1" source="VhYDefbL7mIAKc7-yA0q-4" target="VhYDefbL7mIAKc7-yA0q-12">
          <mxGeometry relative="1" as="geometry" />
        </mxCell>
        <mxCell id="VhYDefbL7mIAKc7-yA0q-4" value="" style="ellipse;shape=cloud;whiteSpace=wrap;html=1;" vertex="1" parent="1">
          <mxGeometry x="-120" y="90" width="240" height="110" as="geometry" />
        </mxCell>
        <mxCell id="VhYDefbL7mIAKc7-yA0q-1" value="CallCenter_Prod" style="shape=mxgraph.ibm.box;prType=region;fontStyle=0;verticalAlign=top;align=left;spacingLeft=32;spacingTop=4;fillColor=none;rounded=0;whiteSpace=wrap;html=1;strokeColor=#919191;strokeWidth=2;dashed=0;container=1;spacing=-4;collapsible=0;expand=0;recursiveResize=0;" vertex="1" parent="1">
          <mxGeometry x="160" y="40" width="400" height="525" as="geometry" />
        </mxCell>
        <mxCell id="VhYDefbL7mIAKc7-yA0q-15" style="edgeStyle=orthogonalEdgeStyle;rounded=0;orthogonalLoop=1;jettySize=auto;html=1;" edge="1" parent="VhYDefbL7mIAKc7-yA0q-1" source="VhYDefbL7mIAKc7-yA0q-2" target="VhYDefbL7mIAKc7-yA0q-14">
          <mxGeometry relative="1" as="geometry" />
        </mxCell>
        <mxCell id="VhYDefbL7mIAKc7-yA0q-2" value="&lt;div style=&quot;line-height: 19px;&quot;&gt;&lt;font style=&quot;font-size: 11px;&quot; face=&quot;Consolas, Courier New, monospace&quot;&gt;&lt;span style=&quot;white-space-collapse: preserve;&quot;&gt;genesys-recordings-ccl&lt;/span&gt;&lt;/font&gt;&lt;/div&gt;" style="sketch=0;points=[[0,0,0],[0.25,0,0],[0.5,0,0],[0.75,0,0],[1,0,0],[0,1,0],[0.25,1,0],[0.5,1,0],[0.75,1,0],[1,1,0],[0,0.25,0],[0,0.5,0],[0,0.75,0],[1,0.25,0],[1,0.5,0],[1,0.75,0]];outlineConnect=0;fontColor=default;fillColor=#7AA116;strokeColor=#ffffff;dashed=0;verticalLabelPosition=bottom;verticalAlign=top;align=center;html=1;fontSize=12;fontStyle=0;aspect=fixed;shape=mxgraph.aws4.resourceIcon;resIcon=mxgraph.aws4.s3;labelBackgroundColor=default;" vertex="1" parent="VhYDefbL7mIAKc7-yA0q-1">
          <mxGeometry x="140" y="70" width="40" height="40" as="geometry" />
        </mxCell>
        <mxCell id="VhYDefbL7mIAKc7-yA0q-42" style="edgeStyle=orthogonalEdgeStyle;rounded=0;orthogonalLoop=1;jettySize=auto;html=1;" edge="1" parent="VhYDefbL7mIAKc7-yA0q-1" source="VhYDefbL7mIAKc7-yA0q-14" target="VhYDefbL7mIAKc7-yA0q-41">
          <mxGeometry relative="1" as="geometry">
            <Array as="points">
              <mxPoint x="312" y="180" />
              <mxPoint x="200" y="180" />
            </Array>
          </mxGeometry>
        </mxCell>
        <mxCell id="VhYDefbL7mIAKc7-yA0q-14" value="EventBridge&lt;div&gt;Trigger S3&lt;/div&gt;" style="sketch=0;points=[[0,0,0],[0.25,0,0],[0.5,0,0],[0.75,0,0],[1,0,0],[0,1,0],[0.25,1,0],[0.5,1,0],[0.75,1,0],[1,1,0],[0,0.25,0],[0,0.5,0],[0,0.75,0],[1,0.25,0],[1,0.5,0],[1,0.75,0]];outlineConnect=0;fontColor=#232F3E;fillColor=#E7157B;strokeColor=#ffffff;dashed=0;verticalLabelPosition=bottom;verticalAlign=top;align=center;html=1;fontSize=12;fontStyle=0;aspect=fixed;shape=mxgraph.aws4.resourceIcon;resIcon=mxgraph.aws4.eventbridge;" vertex="1" parent="VhYDefbL7mIAKc7-yA0q-1">
          <mxGeometry x="290" y="68.5" width="43" height="43" as="geometry" />
        </mxCell>
        <mxCell id="VhYDefbL7mIAKc7-yA0q-24" value="&lt;div style=&quot;line-height: 19px;&quot;&gt;&lt;font face=&quot;Consolas, Courier New, monospace&quot;&gt;&lt;span style=&quot;font-size: 11px; white-space-collapse: preserve;&quot;&gt;bech-recording-gc-raw-zone&lt;/span&gt;&lt;/font&gt;&lt;/div&gt;" style="sketch=0;points=[[0,0,0],[0.25,0,0],[0.5,0,0],[0.75,0,0],[1,0,0],[0,1,0],[0.25,1,0],[0.5,1,0],[0.75,1,0],[1,1,0],[0,0.25,0],[0,0.5,0],[0,0.75,0],[1,0.25,0],[1,0.5,0],[1,0.75,0]];outlineConnect=0;fontColor=default;fillColor=#7AA116;strokeColor=#ffffff;dashed=0;verticalLabelPosition=bottom;verticalAlign=top;align=center;html=1;fontSize=12;fontStyle=0;aspect=fixed;shape=mxgraph.aws4.resourceIcon;resIcon=mxgraph.aws4.s3;labelBackgroundColor=default;" vertex="1" parent="VhYDefbL7mIAKc7-yA0q-1">
          <mxGeometry x="160" y="415" width="40" height="40" as="geometry" />
        </mxCell>
        <mxCell id="VhYDefbL7mIAKc7-yA0q-41" value="StepFunction" style="points=[[0,0],[0.25,0],[0.5,0],[0.75,0],[1,0],[1,0.25],[1,0.5],[1,0.75],[1,1],[0.75,1],[0.5,1],[0.25,1],[0,1],[0,0.75],[0,0.5],[0,0.25]];outlineConnect=0;gradientColor=none;html=1;whiteSpace=wrap;fontSize=12;fontStyle=0;container=1;pointerEvents=0;collapsible=0;recursiveResize=0;shape=mxgraph.aws4.group;grIcon=mxgraph.aws4.group_aws_step_functions_workflow;strokeColor=#CD2264;fillColor=none;verticalAlign=top;align=left;spacingLeft=30;fontColor=#CD2264;dashed=0;" vertex="1" parent="VhYDefbL7mIAKc7-yA0q-1">
          <mxGeometry x="20" y="210" width="360" height="130" as="geometry" />
        </mxCell>
        <mxCell id="VhYDefbL7mIAKc7-yA0q-44" value="5 mins." style="shape=delay;whiteSpace=wrap;html=1;" vertex="1" parent="VhYDefbL7mIAKc7-yA0q-41">
          <mxGeometry x="210" y="45" width="80" height="40" as="geometry" />
        </mxCell>
        <mxCell id="VhYDefbL7mIAKc7-yA0q-18" value="bech-recording-metadata" style="outlineConnect=0;dashed=0;verticalLabelPosition=bottom;verticalAlign=top;align=center;html=1;shape=mxgraph.aws3.lambda;fillColor=#F58534;gradientColor=none;" vertex="1" parent="VhYDefbL7mIAKc7-yA0q-1">
          <mxGeometry x="90" y="246" width="50" height="58" as="geometry" />
        </mxCell>
        <mxCell id="VhYDefbL7mIAKc7-yA0q-43" style="edgeStyle=orthogonalEdgeStyle;rounded=0;orthogonalLoop=1;jettySize=auto;html=1;entryX=0.5;entryY=0;entryDx=0;entryDy=0;entryPerimeter=0;exitX=0.5;exitY=1;exitDx=0;exitDy=0;exitPerimeter=0;" edge="1" parent="VhYDefbL7mIAKc7-yA0q-1" source="VhYDefbL7mIAKc7-yA0q-18" target="VhYDefbL7mIAKc7-yA0q-24">
          <mxGeometry relative="1" as="geometry" />
        </mxCell>
        <mxCell id="VhYDefbL7mIAKc7-yA0q-45" style="edgeStyle=orthogonalEdgeStyle;rounded=0;orthogonalLoop=1;jettySize=auto;html=1;entryX=1;entryY=0.5;entryDx=0;entryDy=0;entryPerimeter=0;" edge="1" parent="VhYDefbL7mIAKc7-yA0q-1" source="VhYDefbL7mIAKc7-yA0q-44" target="VhYDefbL7mIAKc7-yA0q-18">
          <mxGeometry relative="1" as="geometry" />
        </mxCell>
        <mxCell id="VhYDefbL7mIAKc7-yA0q-3" value="" style="shape=image;verticalLabelPosition=bottom;labelBackgroundColor=default;verticalAlign=top;aspect=fixed;imageAspect=0;image=data:image/png,iVBORw0KGgoAAAANSUhEUgAAAVMAAABhCAYAAABrjkJmAAAAAXNSR0IArs4c6QAAAARnQU1BAACxjwv8YQUAAAAJcEhZcwAADsMAAA7DAcdvqGQAADdiSURBVHhe7b13fBz1nf//nJlt0qr3LtmWLFtucsU22MbYpti4UU0LCSn8uMsl+YZLcrlwySV3xyWEBBIghFBMC2AwkEJo7gVXuXdbfVdduyq72j4zvz9mLVurbsuk3Dwfj8+DB9rPzo53Z17z/rzbR/B6vSo6Ojo6OpeFGPkHHR0dHZ3ho4upjo6Ozgigi6mOjo7OCKCLqY6Ojs4IoIupjo6Ozgigi6mOjo7OCKCLqY6Ojs4IoIupjo6Ozgigi6mOjo7OCKCLqY6Ojs4IoIupjo6Ozgigi6mOjo7OCKCLqY6Ojs4IoIupjo6Ozgigi6mOjo7OCKCLqY6Ojs4IoIupjo6Ozgigi6mOjo7OCKCLqY6Ojs4IoIupjo6Ozgigi6mOjo7OCHDlxFRVL23o6Ojo/B0iXPZWz6oKqgIBP3jd4OuCoB88LgjKkbP7RwCMBohPBrMVomLAZAHxyum9jo6OzkhxeWIaCkK7Axqq4dR+2PcxnNyhCazJCqIx8h39I4Q0MRYkmDAfrroBJl0NeUUQZY2craOjo/M3xaWJqSxDhwPOHYb9G+DkPnB3QGw0xKeAJR5SRkNyauQ7+8frgtqT0NkKHS3Q2QbZRbDwNpi9FFIyQRAi36Wjo6PzN8HwxTQUhOpTsOkdKNsIRqDkGiiepVmRo8aBaNDmGsL/HSqhIHS5oPwoHNoGR7eBowGuWQ3LvwKZeSAN85g6Ojo6nwPDE9OAD04fgD8/r/133CxYsBomXwOx8SNnOaqqJqon9sKG32sW8PRFcOs/Q/boyNk6Ojo6f3WGLqahoLacf+0n0NYM8+6AhbdDVj4YhuEbHQ6hAFSehHd/DUd3wvIH4eYHIC4xcqaOjo7OX5WhhcpVFRpq4L1noa4SFn8BVnwF8gqvnJACGEwwZiLccB+kZcK2d+HMQQgGImfq6Ojo/FUZmpj6uuCdZ+DsYVj2INz4BUgcRnDpcpAMMH4WLLxbO49dH4K7PXKWjo6Ozl+VwZf5qgrH98IP74CJ8+HbT4y8kDbaoKN14KR9exX86Vlwt8Fd34OcMVrKVEIKxMRfWQtZR0dHZxAGF9OOFnjiYajYDd9+BUrnjEygSQ7B0V3wzlPQeFLzjw6ICXx+zXcbmwh4tUR/SwqoHkgaBePmwKJbIDldS/rX0dEZEqFQiJfWvkLZgUMICMiqwgvPPRM57R8Wm83Ga6+/RXVNDT6/n9tuWcnym5chDEPrBhfTfRvhZ/fAkq/Bl34AZkvkjEvjyE547jtQdQzMcZCQHi6D6gdB0ATX6wajCczRmjXb6QCjCkYJJCMk58Os1bBwNYyZAJIUeaTPFb/fz5kzZ6muqcHv9/d4zWKJoqhwDKNGFWA2m3u8pqMzVGptNs6cPYersxNZvlB1aImykJ2ZxaRJEzEaB165BYNBfvXrp9m9Zy+CIKAoKu+tfyty2j8slZWVPPPsc1RV1RAMhliz5jbuXnPnCIvpMz+Ezc/DT/4IE2ZFvnppNNbCiz/UqqZWPgQ33je4SEsGOPoZ/ObbkD8FvvE4WKLB0wG1FbDtT1BxEBrOgrcDYrJh8X2w8ouQnBZ5tCtOIBBgf9kBnn9hLW63C5+vt+UtigIWs5nMrExWLF/G1XPnYLEM8j3o6ACKolBba+ODv3zI3n37cbncyLKCGuEqi46ykJKawi2rV7Jg/rx+RVUT02fYvWcPgiCgAu++/WbktH9YNDH9HdXV1QQClyamAweg/F7Y+TZYrTB2auSrl46jGewVMHEeLL5Dy1E1mQcekgSKrPlVRVGzYk1mSEiDyXPg64/Cj9+Arz4OJQsh4IQ/PAa/+y6cPaq5Bz4HFEXBZrfz88d/yWM/f4KOjnYEBKKjLFgsZqIsZiwWExaLCZPJiKqq2Gw2fvXrZ/if/32MmpraXjeEjs7FuN1uNmzcxP88+jM++XQjHo8Hg0HCbDZq15bZRJTFjNlsRFEV6usb+M2zz/H0M89SW2tDUZTIQ+qMAAOLabMNmmthwg3QzxPtkhAEEAWIigZh4FPoJhiAiuNaGWtuYe/zEQStScp1q+Hhp+CWf4WMYjiwFX7xT3Bo+xVPqVJVlVqbjbVrX+HAgUMYjRKSJBGfEM+48eNYfN1C7rzzNu64/TYWzL+GoqIi4uLjMBiMmE0mjh49xq9+/RR2e13koXV0ICykmzZv4ZVXf4+zzUmUxUJcXBxFRUVct/Ba7lpzJ/fddzfXXjufqVNLiY+Px2gwIAgCn+3azWuvv4HNbtcF9QogPfLII/8Z+cduTpbB5rdhwZ0w+arIVy8djxuObYPGGsgbB7FJgKoFpSJH0K/V6R/fAx8+qy3hb/knyBrTd0cpQQBrLBRNgdQcqD8HtkNw9gSMmXpFa/w7OjtZt+4dysoOIYggyzJTpkzh3nvWcMfttzJr1kxKSsYzYUIJV82axZw5V5GdnUVXl4dWhwNREGh1OHE4nJSWTtb9qDo9kGWZffvLePmV1/H7fRgkA/n5eaxatYI1d97ONddcTcn4cYwrLmbWzBnMn3cNebk5dHR20tTcgqqqNLe04vf5GD1mNNbo6O5jK4rC3r37sdvt3UvbO2+/7aJP/8emra2N/WUHaG9vR5YVJk4sYdLEicNa5g8spge2wv6P4bo1UDQp8tVLx2yBLjcc/0wrS+10gP0MlB/pPU7ug50fwMY3tRLTG78Ms5cN3knKYISMXIhO0lKvGqs198K46RCbEDn7spFlmS1btrJp8zYCAT8CAkVFRXzj6/9EYeEYxD6E32Q0kpuTQ052FrW1NhwOB5IkYbPbiYmJoWT8uMi36PwfprGxkVdefZ2W1hZEUSQrO4s77riNuXNmE32RMF5MRkY6o0YVUFVdQ2trK6qq0tHhIjUlhbz8vO7rUhfTyxfT3nf4xXS0ab7JkbaQoqyw5G5Y+S9aCtNHr8Da/4KXftJ7rHsCDm2GWCuseBCWfnHoYmiKgrk3wM0PgTUJ9nwAn74Bfk/kzMvG4XSyf/8BXK5OVFUlPSOdB7/2ZdLSBs/JHTNmNKtWLSfaqj0gJEnk0w2bcLvdkVN1/g+zYcMmjp04iSiKWK0xXLtgPrNmzug3qAQgCAJZWVncessqkpOTAWhubqbswAGcDmfkdJ3LYOBo/ju/gee/Aw8+Diu/An5f5IzBEcJWoqmPKLXPA7XlUHMK3P38sAYTxCZDRp7WlSo6NnLG4Lg64JnvwP4PICYRvvMSTBw5t4Usy3z22S7eXPcOLS0tANx26y3cdutqDEPsnOVyu3niyac4dOgQAGazhX///neZPGli5NQeKIpCQ0MjNrudtrY2PB4vRqOBhIQEsrOyyMrKJCoqKvJt3TQ3N+Pza5Z0VJSFlJQUVFXF7e7CZrdjt9fR1dWFJInExMSQkZFBbm4OsTFDz+MNBAI0NTVjt9fR1t6Gz+fHYJBIiE8gLy+XjIz0IWUxqKqK1+ulpaWFpuYWWlsd+Hw+oqKiSE5KJDUtjcw+jhUKhfB4PN1+QqPRSFRUVJ+rhYsJBAJ4PBcevBZLFGazqYe1EgqF6OjowGavo6WlFbfbjSSJJCQkkJycTFZWJvFxcYN+1mC0t3fwb99/hJbWFiTJQGnpFB740hfISE+PnNonHR0dvLVuPRs3bkJWZPJy87j//nspnTIZQRAuKZofDAZxOBzU1trp7OzE5Xajqipms5m01BQKRhWQmJAw4D0QCoVobGpCURQEBGJirCQmDtx7w+fz0Ry+z0RRJDYmhvj4+Mhp3QQCAWprbdTU1NLpcqGqKnFxcaSlpZKXm0t8fBxVVVWXHc0fWEw/ehOe+jKULodp87W8TnkYUXFBAFM0pOXD+OmaGF7mRXXJHNgKv31YC6jNXQP/+sSItfNzu928/c67bNi4mUDAT2xsLD/4/vcoLBwz5B9DURS2btvO1q3bkRUFg8HAsptuYNasmZFTu6lvaOD48RPs3bufhsYmOjo6CPj9SAYDMTExZGakM2FCCXNmX0VeXm6f57J27StUVdcgSRLjx49j5YqbsdnsfLZrN8ePn6SpuQmf14coSURHR5GcnMzYsUUsmHcNY8cWRR6uFy0tLezZs5eDh47Q2NhEp6uTgD8QPkcrGRkZTJk8iblzZ5ORno7UT15wKBTCbq9j3/4yjh8/icPppL29Db/fh8UcRUJCPPEJCZROmcQ1V88lMzOz+72trQ42bd5CZWUVAGPHFnHdwgUD3rShUIj9ZQfZuGkzBoOBKIuF65csorh4bPc5Op1ODh0+wsFDh6mz14cfZh5ESSIuLpaEuDgKiwq5atZMxo8fd1k+8D179/H4L54AIMYaw+2338IN1y8ZUKguxu/3s237Tl586WU8Hg9JSYncc/carl0wH5PJNGwxbWxsYv/+/Rw9fpL6+nrc7i68Xi+oKiaTiYSEBMaMGU3plElMnjyp2yqOpKOjg+dfWEtnZycmk4lZs2Zw/ZLFkdN6YLfX8dLLrxAMhIiKsrDw2gXMmdO3cdTc3MJnu3axd+9+mpqb6eryoCoK1hgrSUmJFBUWcfXc2VgsFp5/YS2VVZWXLKZ9+0w72+CzDbDrA018OtvAfg5qK7WUJnvlEEcFVJ+Ek3vDyflWSM3SrM3Pm4QUaKjTzsl2HBbcNnR3wSB0drrY+dkuam21KIrCqIICbrhhSS8LaSAEQSA5OYnicWOZOnUKU0unkJ2VTVRU38cor6hg/fr32bZ9B1VVVXR0uPD7AwgCBAIhvF4PDoeDyspqnM420lJTSUiI72Uhvf3Ouxw7foLWVs1fG2WJ4t33/6gJdEMDoVAQVVUJhUIEAgGcTifV1TXYbHays7JISUnpcbyLKS+vYP2777Ft+05qamvo7HTh9wcvOkfNyqyqrsHhcJCelkpCQkKvCzgYDHHw0CHWrXuH/fvLqLXZcLtdqIqKKEr4A346Ol20tLRQXV1LZWUVKiqjCgoA8Hi87Nu7n+07dlJrs9PlcVNUVEhKcnKvzzpPe0cHn366gc2bt2G312EymZg+YyqpKSkIgkBFRSVvvLmOrVu3U15ejtPZTjAUQBIlZDmE292Fs60Nu72OispK3K4u8vNzL0lQQ6EQn3y6gdOnzyJJIvEJ8dxww/Wkpw89f1oURQRBwO/3k5WdRX5eLkVFhd0PsOH4TM+cPct77/+Rrdt2UF1dRWenC4/HC2h5rv5AAJfbRV1dPeWVVTidTjIzMoiLi4s8FC6Xi3Vvr6eisgpnWxvZWVlMmTxwfKaxsYm33nqH+oYG2ts7GDO6gOLisZHTsNvtvPnWO2zbvoO6unqCwQDBYAgVBZ/Pj8PhpLbWhs1eh8fjwV5Xh9ut5eteis+0t5hWn4HXfwqfroX6ckgqAHcdTL4OVjwAs5bAjIVDG9OvheKpWvrT0c+gsQpyxkJ6To+P/FwwmsDnhQObNJ9pSi6MnxE565Joampmz959NDe3oCgwc+Z0SkunYDIN76FhNptJTEggMTGRxISEfoX06NFjrHt7PUeOHsPtdmGQDJROnczU0ilMmjiRnKxMRFGgs8NFMBSisbGJri4PBfl5vS7oLVu24XA4MEgGfD4/Z8+Vc+5cOcnJScyaOYPSKVMoLBxDYmIiTqeTUCgEgMPhoMvjYdLECX0KxKnTp1n78mscO3aCLk8XIDBzxjSmlk5hwoQScnKykSQRh7ONUChIXV09XV0eCseMISbmQnBRVVXKKyp59rfPY6u14Q/4SUxMZPZVs5g7dw6lUyYxtqgIVVVxOtsIBoO0tLRQUV5JTm42mRkZmEwmXO4uTp0+jaoqeL1exoweTW5uTp+WnaqqNDY0sn3nZ7S3t2E2mZgxYzqzZk4nOjqa1lYHTz39LMeOH8fj9aCqMH3aVOZdczXTp01l/LhxJCUn4XK58Xi66Ox0UVFZhSAIjBtX3OuBNhher5d33/sDbe1tiKJIakoKq1YuH9b1JQjaErqosJApUyYxaeIEsrIysVgsCIIwZDG12Wy88dY7HCg7iD/gJxAIkpuTQ2npZCZOKGHChBKSk5Pw+fx0dWnWqt1eTyAQID8/D6u1Z6DM4/GyddsOvF4PJqOZ4uKiQV1bDoeTrdt3IAiaO2xCybheYtrW1s6rr/2effvLCAT8yLJCeno606dNZdLECZSUjCcrO5NgIEhtbS12ez1dbjeqohKS5REQ0yOfwe8fgwN/gcRsuO/foXQBHN0NFovWLWrsZMgaNcQxGvLGwuhJ4O2E3e9DUjqMnaaJ2+eNyQK7/qz5alUjLFwVOeOSaGxq4sDBQ7S1OQmFZObOvopx44r7vFEvF4fDwft/+BOHDh0mFApiNJr48gNfZMXyZUyZMpmS8eOYNGkS48YV4/cHsNvsWuJ2QyNJiYnk5eX2CFhs3ryVltZWREHE7/fjdrkYN66Ye+65i4XXLmDChBImlIyntHQyOTk5nD1XQSBcFutyaRZeZkbGRWeo+WHXr3+P48dPEJJDWK0xfOn++1ix4mYmT55MSck4Jk+ayJjCMZr/q7kFWZZpbGoiOTmJvNyc7nP0+XysX/8uR48dRxQFUlNSWblyOcuW3sj48eMoHDOGoiLtBrREWTh39lz3+zo6XUycWEKM1Yrf76f8XAUOZxvBYIiYWCvjxo0jug9/cjAY5MTJU+zYuYtAwE9MTAzXLpjH2LFFSJLEJ59sZMfOnahoHrKF187n3nvvZtLEiRQVjaGwsJCSkvGkp6dRV1cftnZCnCuvZPq0UpKS+ncv9IXf7+f9P/6JQEDLk05JTmbpTTcO60YHkCQJqzWaGKsVq9WKyXTB/zsUMXW73WzYtIXdu/cSDAVRFIU5s6/i3nvWMH/eNUyapInU5EkTGTNmNG3tHTQ3N6OqCnX1DSQmJJB70W8L4PF42LxlG11dXRiNRsYWFQ5JTLds3Y6iKBiNpl5iKssy27fvZMvW7fj9PkIhmaLC0Xz5y1/k2gXzmDhxAhNKxjNp0iRKxo8jFApRW2sjFAoiIFyymF54RJ44AK8/Csd3wE0Pwg9fhwWrYO71cP29cHwXvPc7rf59qMNgBHOUtt3IjCVa3Xz5MWj6KyWlp+eANRxdb7ODa2Ra+QWDQULdFVYqUdHRw7Y+hoKiKOzZu48jR48hKwrR0VYe/NpXuHbBPFJTU4mPjyc2NpaEhHgKC8ewevUKZs2aiaqqBIMBtu/YQWNjU+RhuxEliSlTJvPVrzxA6ZQpJCYmEhcbS1xcHMnJyVw9dw53rbkdnz+AgEBXVxeHDmoBs/PIssxnu/Zw7PhJFFXB7w/yTw99jUWLFpKSkkJ8fByxsbHEx8czrngsd955G6VTJqOqCoGAn507P6Oxsam7CszhdHLoyDEMBgmjwcjMGdNZsvg6kpOTiY6OJioqipgYK1lZmdy6ejVXXz2HYCiEisrZs+eoqtL8pDk52RQVFwEqBoNEWdmhfqPZfn+AmppanE4niqKSnZ1Nfn4eRqOR9o4OTp4+haIqyLJMUWEha+68g4z0dGJirERFRWG1RpOSnMy8a67m5mU3ERcbHw7qudm1e0/kxw2K1+ejvV2rpBMFEWtMzLBu8pHi7Nlz7N2zD6/XQzAoc9WsWXzx/vsYP34cSUmJ3ddfcnIypaVTuOfuO5kyZQqqquLzeVn/3h+oqq7p/m0j6efPw8Zms7Nl63bcbheKopCWlsr/+9Y3mDhhAomJicTHaddgYkICY8cW8YX77uGqWTMQh1pA1A/aux1NsOUtOFcGV6+CVQ9BZr5mPZoscNM9WjBp7wewZ2PkMQZHECEuWbNKva4rkpo0JEQJ4sN+Un9AO5cRQFUUFOXClWC9QmLa3NzMyZOn6OpyoygyU6dOYdrU0j59s6IokpmRwfRpU0lK0nyDzS0O6hoaCAZ7BxEVVSUhPp4bb7ye/Pw8DIbegSCjUROz85aVqijY6up7zOns7OTEiVN0dnYSCISYN28uUyZP6nNJKooiuTk5TJ48kZiYWERRpLyiglanozvy3uXuorOjAwCzxUxmVkafbgVB0LIRZs+eRV1dA263h/b2DmpqaiH8m4weVRAOOqm0tbXT0NTU7ba4mK4uN2fOnEMUBQLBIJmZmd0BLa/HS2enC1EQURSVjIwMUlNT+xQ3o9GoRcslkeYWJy6Xi8OHD0dOGxRVVfF4tEwaVVX7tKavNOet9ZraWkRBRJZlbrhhCenpaX1e6wZJonDMGOZfczWJiUkAdHS0s3fvPtxdXZHTIRyvHgkOHTpMQ2MDAD5fgNWrVpKVldVncFMURRITE5k37xpSUlNR1EuvDNO+hUPbNKEsvkYT0pSeyzZSc+DnH0FSFjzxz/Dmk+Bs1HYpHcrjRFWhqRpqjoX7j45M4OeSiA877VUVIro4XSrBYBBFVi7cUANcFLIs097eTq3NNuCw2bV0k/MoiqL93VaHqqoYJAML5s8jPr63U/88JpOJMWNGk5OTjaKo+H0+6ux1+P29y2oVRSYqOqo7VaY/oqKiyMxIJxgKISsKbnfPG+PEiVPY6+yIooDVGs3iRdf1KfbnEQSByZMmkp+XhyzL+P0BqqtqukUuKjqqO/82EAjidLZ1C21fXDVrFn/+03peXvs7XnzhWW668QYIL3FHjx5Fbm4uqqr9f1nZAboibmxVVWlubuHI0aOIokhGehoTSsYREz4Hs8WM1RqNoiqIokB7ezs+X/8pg+np6Tz+2KO8s+413nrzVb7znYcjpwwJ78Wf0f/Pc8Woqqrm5MnTCAIEQyGuXTCPnJzsAa8VLUOkmPHjxnZbfeUVlbjC6UmR9PGnYRMKhTh+8hQdHZ0oikJ+fi5z51w14HkCJCX2H6MYKiKuDjizD1rqYPYiyB3d+xEhiloF1EP/o5V/vvc0PPoQ/Hkt1J7V6uW7OjVfpN97Yfg82hbQJ/bBJ6+C4oHR4yH1QtrK5447LFCioPmBRwBBEIZ8gXd0dPDBBx/yy1/+asDxs8d+we49e7vfFwqFaGpsxuF0oigKUdHRxMTEoKoqsiz3O6Kjo4iL1XJzA8FQuMKjtzUGoChqn1ZrXwiCJvA+r7f7b+dzBjs7teVVRnoaSYkJg5+j1RoOTAgYjQbKyysIBLTziIuNJSc7C0WRCQYCHDx0iD1794UtX81vF0lGejoZ6emkpab2qAxKSU6mID8Ps9mCJAnUVNfS3KKVWZ7H5/Nx8uQpQGtDl5mZSUF+XvfrcbGxpKWkIgoiBsnAqdNnWP/u+7SFRVVWenduSkxI6D6noeaFRjKYGFxpnG1ttLa2IooiJqORkpLxxFgHzzXOyMhgbFEhpvBqoqGhQQvU9qGcI/FPbGpq0tLTRO33G1c8dsCH+UgiUn1a2/1zzCQonKb5OPtClKB4Gnz7KVj5zxB0w1s/g+/fDj+6D57/Mbz3HPzhhQvj/efg2Ufg0a/AuQMw91a4+ta+E/g/D1RVs6gBTEaIuoQCgD4wGo0YJKn7JlL6uKHOo6gq7R0dVFbVUFXdc1TX1HZbpnZ7nZa3FyYYCuFoc4YvFJHk5ETs9jrKDhxk3/6yfseJk6dwu92Ionalut1dyHJvARoJPB5taa0oCqIoYjAYqKisZn/ZgV7ndfE4cuQoXp8Po8EACLS2tqAoWl/OuLg4brhhCVZrDIqqUFNTy5O/eprHf/krNm3ezImTJ2lsbKSzs7PPJfvFxMXFMW5cMYnh9Ku6+jrKyyuRL+oB6vF6OXHyFEajRHR0NGNGjyY5+UL6l8FgYNGihaSlpaECshzi/T/8kR888iPe/8OfOHLkKLW1td0Wa19ifylEXSQIF7uUPg9kWaarqwuf34+iKMTGxRIfH4ck9V7e90V0tBWL2YwoSrS2OnB1amltvejjT8Ols9OFz+cFBFRVJSsrs083xJVAxNel1bwXTdf8pAMhCFow6bYH4V9+Aau/CfnF4OuAIxvhj89qO4meH+//Bg5/CrHRMP8WuO1hyCmMPOrnR6cTusJBB2uytt3JCGAymzBcHKHs8vQrpgZJIjk5mVEF+RTk9xzp6WkYJAOSqHWbuphQMEhXl1bFIwoitbU2nvzV0/z4J4/yX//9037HYz9/QuueLmgXl3Zz931ul4vP58PtdqPIMqIgUllVxa9+/XSvc4ocP3/8SY4cORr2V6n4fIHuJZ8oisyaOYNbVq8iLS0do9GEosgcPnKUZ3/7Ak88+RTPPf8i7773B/bu3U91dU0457FvCgrySU5JRlVVgkGZ02fOEAyLsKIoNDc1YQt37YqLi6N4bBFxcT0fukVFhdx//70UFRViMpqQRImGhkbefOttfvbYL3j66Wd57fU32LhpC6dOncbpbOsh2MNFkqTuJaggit3ZFJ8XgUAg3C9VRhRFYqwxxMbEDFmkYuNiiYqOAlRkWcHr8/Z9DY6AZaqoCoKg5dRKkkSM9fML1ol4uyAkgzVu6BajJRoKJ8Pt/wT/9hx893fwtZ/B/T+E+x6JGP8J//IUPPBjGDX+r1cBBXDmsLaHVCgAJf1XFg0Xk8mE0WBAVbXlWFt7e783T7TVyuJFC/nXh7/Za6xccXO/ddY+n7+HSJjNZpKSEkhNSR50JMTHYY22EmON7lUOOZKEQjKBQKD7QWIwGElKTOx1Pn2N+DjtHGNjYjFbTD2WfBaLhWVLb+ShB7/CdQsXUFxcTGZGOtHRFpzONsrKDvHBXz7k6d/8lmefe56/fPgR5eUVfVqF6WlpFI4ZjdlswWAQ2Le/rDvApSgK5eUV3b7qhPh48vJzI46gMXPGdL79rW+wdOmNTCmdQnZ2FvFxcYRCQU6fLWfT5q289vob/PZ3L/Dmm+s4eux4j5XGcDCbTMTGxmqpWOrQXTEjhSwrhILaA0dVtet9KOW457FYzBiNhn4NjG4GeXkoKIra/TmSKPYZSL1SiAS82hLeGDX03qLnEUWIT4LRE2DOjbD0Xlh+f89x410wcRZYR8YKvGQCPjhzRGvrpwThqiWRMy4Za3Q0lijtyStJElVV1QT6ueBNRiOpqank5ub2GpkZGQhDuEAVVSEzM4Mbr1/CqpXLWbny5iGNW25ZyYwZ0/uMho80iqqQkZHB0qU3snIY57hq1XIWL7qu1zmaTCYmT57EfffezZe/dD93rbmD65csZtrUUkYV5GM0mvD5vJw7d5bfv/EWL659hZMnT/USVFEUmVAynuTkJARBxOls5+jxEwD4AwEOHTmKLCsYDUby8nLJuqgsNZLU1BTuuXsNX/3yl7j/C/dy87KbmDtnDuPHFZOQkBAuRqjj042bWPvyq2zesrU7V3Q4SJJEZmYGsiyjqAout4uOjgvByaHi9/ux2e2UV1Rw9uw5mvrJZohEEHpajbIcGtL7zuP3+QkGQt3WYn8Gw0hgNpmQRBFQUVERwpVfnwciRjPIilYd1MeT/G8SvxfaW6GlHhpsQxunD8PBDyHkh+wSzTfcaAdHI3guL0XKarWSkZ4eDmyI1NpsOFodgz+JI5AH+P4lSQr7FLWIc0xMLPPnz2PZsptYtnRoY/nNy7hq1swBG59cDpKk+UmFcEVNUlICixct5OZhnOOypTex6LqFvcT0PFFRUYwePYp511zNmjtv58sPfJEv3n8ft992C7OvugqzOQqjwcDp02d4+533+syrzcvLJTcnG1GQsJjN7N9XRigUwul0cuzocSRJICExkUkTJwxqfQmCQFpaKjOmT2PlyuV86Utf4IEHvsDdd93BksWLSE/PwGwyYbfbefvt9zgWFu7hYDabKSwc0+0rdbs9VFRWRk4bEFmWqaqu4c033+bFl17hjTfXceLkqSFZuQaDAYvFEv4uVLw+Hy63m1A/q69Iuro8+AOaayIqykJUVFSfAje8u6VvjCYjoqjFL0IhGZdLa77yeSASFattCdJiA1db5Ot/W/i92lL94zfgjV/A7/4Vnn548PGbh+G1/9TKWVUVvE54/j/gmYfhhe/D+udg72bovLQkfu0GLyAuLhZB0NJlTvRhFV0OZrOJmNjzfioBR6uDQDCIyWTCbDYPeZwXuyuBxWLBarUiShKCINDl7sLv92M0Gnudx2BjsHOUJC1AlJ2dxbRppaxYvox7772LRYsW4vMHkCSRc+XllB0oi3wriYmJjBkzGqPJiCSJVFRU4nA4OHX6DO4uDwbJQEZ6OoVFYyLf2i+CIGCxWEhKTGRccTFLFi/irjV3sHzZTSQmJiKKIm3t7Xz40ceRbx0USZIoyM/rDvh4PB7KyyuGJITnCQZDVFdXc+DgIU6G80VVVR1SlZ7RaCQxIQFz+AHndnfhcruHdH0rimZJ+31+VFUlOjq6+ziRqOFCiMshxhqDwai53FQV6urqrljANRKRhBRITYOT26DuVOTrfzt0tsP7v4XnHob1j8GBLVBXBwF14OENQPVpKD8Mvk4YNRWyJ1x4rapcazz90vfgpR/B6YPDttAlSSI/P4/EBC0NSFVVNmzcRH29ljg8EphMJjLS08KCDS2trdTW1A7rhrrSWK1WMjLSMIfLFOvrG6io6BktHy5PP/Nbnn/hJV586WU2bd7S77GMRiPZWVmsuHkZWqaaQCgY5Fx5bwvOYDAwefKkcMqMirPNybETJ9mxYydmswmTycT48cUkJ2nJ5ueRZZn9+8t45dXXef6Fl3j6md/2eP1iBEEgPj6eOXOuCjcHlzCZJM6dq4icOiSmlpaSlpqGoij4fT4OHT6CzWaPnNYvfr+PyspqgkHtQZOenk5WVuaQxFQURZJTkkhJ0To/eTxdHD92fEj9dltaWqioqMLn86GqKvl5uaSnXUj0FwQwGbVzUGR5SMccaLWQkBBPQkICoihgMIjs21eGw+GInHZFEMkM9wlta4JTBy/ZOruidLbDp6/DR89DxTEoXQxrvg3/36PwzccGHqu/ChkFoMpQUAoP/hd8PfzavzwGX/tvuPUhiM+ALb+H9b+GmtORZzAouTk54Xp8I4IgYLPZeO/9P0ROG5DICP7FmEwmRo8a1e3DCwYDbNu+g7a2wVcTHo8Hu13riHMlMRgMFI8dS2qq1hPV4/Xwxz9/0DPhvB/cXV3YbPZeQZqyAwfZsGETn3yykW3bdw768Li4M5aK2meBAsCoggLS0lKRRAlRFPnoo08oL6/EYBCxWq0Ujy3q5dsTRRF7XR2bt2xjw8bNfPDhR919NfvDYrEQE2MNW9pa39BLISkpkWuvnY+7y4OKSk1NLTs/2zUkH6wSLvg4eOgwoigSDMpkZ2WRk5Mz6ArgPJkZGeTl5aKqKoIgsHv3Purr6ge0ThVFobKqmnPnypHDqW5jRo8iLi6u+3ONRiOW8EpEURU8Hu+g/6aa2lqC/eznZjQamTSxhLi4eARBwNnWzq7duyOn9cLZ1o7Pd3lZEiIxcTBtCYyaDHs3wJmyK77x3LBQFNj9IXzwW61J9ENPwBf/A+avgAlXQc6o/kfQD9vf0Cqv0sfCmu9C4YQLr+cXwuS5cP1d8NDP4IYH4ewB+PPz0DT0pz5hv9aSJYu6e3xKksSOnbt44811vaps+qK9o4Njx44TCPuWIhEEgfz8PCZMGI/JpF18J06c5K117/SolIrE6/WyYeMm/vdnj/Pa62/2qHu/EhQU5DNx4gTMZs3HVlFRxe9//yYuV/9+6a6uLrZu3c6Tv36KN95ch9Pp7D7HefOuxuvzIysh6uvq2bdvf+Tbe1BTU4vfH0BFRZIM5GRnRU6B8E0375q5GMNWtM1mJxQMIiCSlJxEyYSSyLcgCAJpqamo4SIEo8HABx98OGAwpq2tHZutDkWWkWWFzIyht82L5Poli5haOgVZlgkE/OzavYcdOz8bUHxUVaW6ppZ169bT1qb1GsjLy2XmzOndVV1DITY2lrlzZjN69ChUVcXn9/Hxpxtob+/f+Kqrq2Prth00NTehqpCcnMzUaVOJjr7gs7dYLOTk5hAKb1NdV1/H6dNnehznYlodDl577Y0BHwJTJk8iJycbURCxWEx8/MlGzoYb4PRFa2srmzdvpbmp6bLq86VHHvmP/yQhFVweOLIZbBVal6ek1OFH968EtnL4y+/gzB5Y/S+weI22C6nB0H+alSLD8f1aK8HDm7Qm0Hf/mxbB75H+JYQzGUyQkKx1uGqyw+6/aF2v8sYOq4F0bGwsSUlJnD59lk6XC1EUOHnqNOfOlRMXF4fRaOyxiRnhvWeOhFvq7dixC0XRqoIsFgurVq7ose2J0WgkJiaG8opKrRpFECmvqKK2tgZT2NdoDd8goVCIqupq3nn3fTZu3Eyro5X6hkby8/PIvqhO+XzXKID4+HiWLL6ul0V2MbIss2Wr1rYPBOLi4lh6k1aySdg6jY+Pp7qmFqfDiSAKlFdUUn6uHGtMDGaLubsqKRgMUllVxfr17/HJho00NzdTWVHF2KJCMjO1ZOv4+Dj27N1HIBAgEAhgr6vHaDSQnJzUo7LF4/Gwd99+Xn7l9XDSNkRHR3PLquWk91N1FG2N5tChw7hd7u5aRlGSmHfN1UybWho5HQBLlIWz58ppaWnBYJCoqKyiq6uLjIwMYmMvVATJskxtrY033lyntf5TFLw+PytWLKOkZHyPYw4Vs9lMSkoyx4+fwOv14vF4qKioQpHl7nZ6F+N2u9mydRsvrX2F2tpwjwKrlSWLr2PevKt79EtQBukaJQgC8XHxeD0eKquqkeUQDfWNNLe0kpqW2sMlEgwGwz1P/0RZWVnYmoXVq1YyMyKbRBAEnM42Dh8+jCRKuNxdNDe3kJ6eRmrqhWvf2dbG/rIynnvuRZqam5BE7frtq2uU1WolEAhy6vQZQqEgHo+HqqoqLGZzjxr9YDBIRUUlb69/j7Kyg8iKjCBceteoC532Wxvg2X+DfX+Awrnwtf/SKp76E6zPg4APdnwAr/+3lhd63yOQMUhhQVcnbPszvPckNJyAwtlw13dg6rX9V3ddzIGt8OIPtA5XDz0KWVqD4eFw9uw5fvnkUzQ2NmI0GAjJIQySgcSkRNJSU0lMTMTn89HW1kZHp4uOjo6wL0siGAxhMhr59re/yZzZfXcPP3joMGtffpWGhnoExO4lVGJiIjnZ2VitVpxOJ80tLVq3IUEgGJRZsXwZt9+2uscWDz945EecPKX5ynNz8/jZ//7XgNH+QCDAD3/0E86cPQsI5GRn89Svfxk5jQMHD/Hb516gpaWl+zsQRZGkpGRyc7KwWq00N2vbj3R0XLBult50I3fccRvx4b6rsizz8Sef8vwLaxFFAUEQkCQDmZkZFI0ZTXpmBi3NLVRUVmKrsREMf9eyorBq5XLuWnNHvw+HYDDIq6/9no8+/gQBARUVs9nCj3/0AwoL+y8uOXr0KI/+9Bf4/d7wZ8mkpKSQkZ5OYmIiwWCAlpZWmlta8HRpTX38gSAzZ0zjW9/8OrHh8t5LQdsB4ABPPPmU1jJOEJBEbTvxpMRE0tLSEASBpqYmujwe6urqEQTNRSGKEosXLeS+e+/u9RsHh9hpv62tjeeef4l9+/YhiiKhkExCQgKpyUlkZGZiMhlwuz2cOHkKj8eDIIAkSly3aCG33bqalD467jc3N/PTxx6noqIKk9GIiorVaqUgP5+4uDjcbjdtbW3Y6+qRw78vYTdOdLSV229dxfLlN/c4ZjAY5JdP/pp9+/YjCmL4+pPIz8shJycXRZFpbmmhqamFjo4OTEYjCAKqouDzB3p02vf6fOzYsZPOThfpaWn4w7tpiKLAxIkTu6vTLvQzjY6F4ungCsCxTbDzT4ABYhM1a05Rem/DfKWHqw32fATV5bDgdhgbtha65wQhFNSi/FUnYf92bWO+j36luSpm3QJf/W+YNEdrBzgUYuLh1D44fQTmLO3d9GUIJCcnM3v2LPz+AOUVld1RWK/XS2NTMzU1tdQ3NIT3Q/IhhPPhFEVl8XXX8s1vfp0JJb2XmefJzMwgJzuTqupaOjs6EQRNZPx+Pw0NjdTabDidTvx+P6AFQu64fTXLb17aa6+cTZu2aLtWDsMy3bxlKw6nVkkWGxfL0ptujJxGVmYmWVmZ2OvstLW1Y5AkEMDn81JX30BtrXaOgYAfQRCJjo5m5YrlrF61osc5iqJIXm4uligLdnt9+PuCjs4OzpVXcvjwUSoqK2lv70AQBQRBxGS2cPOym/jCffcM6IeWJAmfz8u+/Qe6A4dTS0tZPMh3kJ6ezuhRBVRV1dDR2YEkSuHftonqmlps9jra2rRG1QggIDJ//tV87asP9Pr+h4soiqSlpVGQn0ddXZ327xYEujxdOBwOrSQ5/N26XFrjcEEQSEhIZM2dt7F61YpeQkq3ZboPu71OE1NF5c47ejeHjoqKoqRkPAJQXVMbbp0YwOF0Ul1TS2VVNfa6OmRZyyu1WKJYdtON3HrLSpIiAnrnsVgs5ORkY7fZcba3IQgCgUCAxqYmamptNDY20d7RAagkJiZy7z13UWuz09npwmw2MaFkfK/m0JIkUVIyntaWVux19eEHsWbh1tTUUlNrp63Nic/nJyc7m2XLbkINb3ETCoV6WKYGSSI5KSmcOWPk5MlTiJJIVFQ0qSkp3RZ+7z2gXB2w/mnYvg46WyFjCiSnQ1r/yctXjIBX2+7E0QxjJoc79F9kKcsh8LqhvQOaK6GtEszRkD4K5twKi27RtkkZDl43vPAj2PUJfP85TYgv0d0RDAYpL6/gLx9+xPETpxAFgWAohBJeToiiiCCIWCxmJpSMZ8H8eRQXF2Ox9J06EklLSwtbtmxny9ZteH0+ZDkUDghoxzYajKRnpLFk8XXMmX1VnzfRYz//BSdPnUEQBAry8/jedx/utVy8mGAwyOOPP8GZc+UQbmTx00d/Ejmtm7a2Nv7y4cfs2aO1XlMUGTkko4aFQZIkCgryueH6xZROmdzvlsWhUIiKyko2bNjEiROn8Iajw7Iso6oqRqNW1z954gTuuONW0tPTBxTE87hcLr7xrX/FHfbpPvCl+7npIrfFQLjdbv74pw8oO3CA9natN8D5gIwkaYGt3Jxs7d9WOgWr9Xwg6vJRFIW6+no++ugTDh85hsfjCX++jICAZJAQRYnExHhmzpjBdQuvJSUlud/ofSgU4sUXX2bv/jIEQWsSsvbF/rMVfD4fu3fv5cOPP6G11YEsy+EGOkJ3XmpxcRGLrruWosLCfn/X86iqSmNjo+YaOHAwXBggI4pCOBPCRPHYIm6/7RbMFjPP/OY5GhoaiY2JYfnNS1m0aGHkISHs/vnTnz9gw8YtBIPB7uvFYDBgNpkoLh7LTTddT3paGu++/0cOHTpCp8vFHbffwsrlN2sPFlWlvb0dm91OXGwcu3bvoSA/j9zcXJKTk7r/bb3F9DznjsLhvXBqD9QdA49P80WGfRWfD7JWrRQCJDHsv7xI2LT1izZiYmHsNTB9nrZ5X0L/exMNiNcNr/wUPvszfOuXUHqtlod7GSiKQqvDgaPVQUtrK13uLgxGI1FRFhITEigoyO/2dV4KoVCImppabHV2vF1eREkkJjaGzPQMcnKy++wlep7zDSw47+/sY5+eSHq8R5KGbG2dO1fe7XpQZJn4+ASyc7LIzMwcVo/Ojo4O6usb6ApvCRIMBklLTSU7O6vf3qL9UVNby3/88Cd4PF0kJSXxg+9/l/z8QVxJEciyjM1mx2a3a8FGFeLj48jMzCQ9Pa3Ph9hI4nK5qKmtpbmpBXeXG0kykJgQT1paGoWFQ8+V9Xq9eMLZFKIokpgwtFaZVVXVNDY10d7WjiiJpKWmkp+fP+wdBQhfy62trVRWVuFwODBHRZGWkkJBQT7x8VqEnvCDzB8IIIoi0VFR/eaunicYDHLq1Gnq6rV9zdLT0xhVUNDDL+v3+/F4vSiKgtlkIuaiHXjVcF8LQRCQZRkp3NjovFHEgGJ6HmcjuF1apZDPN2Jt6wZFELR2eTv+qHX5n7Nc21PKctGFKUra5nwmk9ZbIC4JYgYXgwHpcMAz34ITh+AHL2vCPIybU+fvB1mW+cuHH/L679/C7w8ya+Z0vvfdh/u13nR0BmJwMf1r4nHDpnXw7lPaXlRrHoaMC70lRxxVhWO74YV/17pKff3nkD06cpbOPwitrQ6e/NVTnD5zBo/Hx79972Hmz7smcpqOzpC4NGfg50WUVdt8Lz0X9n8Mh7drDaevFM5mLS2qtRWmLbx0V4HO3zzBYJDdu/dQXVODoigUFOQztZ90KB2dofC3LaaCALmFMHuplk2w4TXY+yl4B0+CHxaqCi0NsOEt2PextrSfvlATc51/CALBIO0dHTSH06g2btzMR5982r3lyNIbryf2Ih+Zjs5w+dte5p+npQH+slYr94xJhplLtbZ/OaMhrzhy9hBRtW5R9dVQcULbTPDgZsgYDWv+H0ya+9fZjlrnilBTU8vmLVtpam7G5XLT2KB15/cHAkybWso3v/HP4c32dHQujb8PMVVVaGuGT9+Ej1/VuuVb4yAuHqJ7JwEPCVUFOQDednA6wGCB6YvgutuheOrQEvx1/m44duw4a195ldpaW/ffFEVl7NgivvLAF4cV9dbR6Yu/DzE9j6sDKo/A8b1w+DOwnwNH765AQ8ZogJRRMG42zL4JJs3W/KRDTfDX+bvh4KHDPPOb56ivb+hOa1m29EauX7KI0aNHdae36OhcKn9fYko4UT/g05pZB/2adXmpCAJIJjBFQ7QVjEZGZCManb85/H4/ra2tNIQbvaSmppCSnEx0dLQupDojwt+fmOroXAbnK5R0AdUZafQrSuf/FFrDD/2y1xl59KtKR0dHZwTQxVRHR0dnBNDFVEdHR2cE0MVUR0dHZwTQxVRHR0dnBNDFVEdHR2cE0MVUR0dHZwTQxVRHR0dnBNDFVEdHR2cE0MVUR0dHZwTQxVRHR0dnBNDFVEdHR2cE0MVUR0dHZwTQxVRHR0dnBNDFVEdHR2cE0MVUR0dHZwTQxVRHR0dnBNDFVEdHR2cE0MVUR0dHZwTQxVRHR0dnBNDFVEdHR2cE0MVUR0dHZwTQxVRHR0dnBNDFVEdHR2cE+P8BmN4qavPENGYAAAAASUVORK5CYII=;" vertex="1" parent="1">
          <mxGeometry x="-69.89" y="125" width="139.79" height="40" as="geometry" />
        </mxCell>
        <mxCell id="VhYDefbL7mIAKc7-yA0q-6" style="edgeStyle=orthogonalEdgeStyle;rounded=0;orthogonalLoop=1;jettySize=auto;html=1;entryX=0.4;entryY=0.1;entryDx=0;entryDy=0;entryPerimeter=0;" edge="1" parent="1" source="VhYDefbL7mIAKc7-yA0q-5" target="VhYDefbL7mIAKc7-yA0q-4">
          <mxGeometry relative="1" as="geometry">
            <mxPoint y="80" as="targetPoint" />
            <Array as="points">
              <mxPoint x="-24" y="80" />
            </Array>
          </mxGeometry>
        </mxCell>
        <mxCell id="VhYDefbL7mIAKc7-yA0q-8" value="&amp;nbsp;Llamada FonoSeguro&amp;nbsp;" style="edgeLabel;html=1;align=center;verticalAlign=middle;resizable=0;points=[];" vertex="1" connectable="0" parent="VhYDefbL7mIAKc7-yA0q-6">
          <mxGeometry x="0.0605" y="-3" relative="1" as="geometry">
            <mxPoint x="-4" y="-3" as="offset" />
          </mxGeometry>
        </mxCell>
        <mxCell id="VhYDefbL7mIAKc7-yA0q-5" value="" style="shape=umlActor;verticalLabelPosition=bottom;verticalAlign=top;html=1;outlineConnect=0;" vertex="1" parent="1">
          <mxGeometry x="-240" y="50" width="30" height="60" as="geometry" />
        </mxCell>
        <mxCell id="VhYDefbL7mIAKc7-yA0q-12" value="API" style="ellipse;shape=cloud;whiteSpace=wrap;html=1;" vertex="1" parent="1">
          <mxGeometry x="-59.99" y="260" width="120" height="70" as="geometry" />
        </mxCell>
        <mxCell id="VhYDefbL7mIAKc7-yA0q-20" style="edgeStyle=orthogonalEdgeStyle;rounded=0;orthogonalLoop=1;jettySize=auto;html=1;startArrow=classic;startFill=1;" edge="1" parent="1" source="VhYDefbL7mIAKc7-yA0q-18" target="VhYDefbL7mIAKc7-yA0q-12">
          <mxGeometry relative="1" as="geometry" />
        </mxCell>
        <mxCell id="VhYDefbL7mIAKc7-yA0q-23" value="GetMetadata&lt;br&gt;GetTranscription" style="edgeLabel;html=1;align=center;verticalAlign=middle;resizable=0;points=[];" vertex="1" connectable="0" parent="VhYDefbL7mIAKc7-yA0q-20">
          <mxGeometry x="0.2361" y="2" relative="1" as="geometry">
            <mxPoint x="-30" y="33" as="offset" />
          </mxGeometry>
        </mxCell>
        <mxCell id="VhYDefbL7mIAKc7-yA0q-26" value="" style="shape=image;verticalLabelPosition=bottom;labelBackgroundColor=default;verticalAlign=top;aspect=fixed;imageAspect=0;image=data:image/png,iVBORw0KGgoAAAANSUhEUgAAAfUAAAE/CAYAAABfO1rDAAAAAXNSR0IArs4c6QAAAARnQU1BAACxjwv8YQUAAAAJcEhZcwAADsMAAA7DAcdvqGQAAPBzSURBVHhe7J15nBXFub+fqu5zZoYZ9n0VRFFcwR3EuOMaoyYa772axWg0+ZnF5JrlZjNXjSa50agxRo3GuC9RozGuQdGoCAIqIKvsyA4zzH5Od1f9/qiqnp7DDLKIItTDp5hzuqurl1Nd33rf2oTWWrMdMIm2Tlq0+palrT3KHu/2lf5tC3e+TcXxeDwej2fnRGxfUW9BoNvYmqVUiDVoK+oiu680Hjbd0rRlyXePx+PxeHZutpuob4wTXns6rdFKIaQ0ol1qZGv3RZg/2trtrQTeRNRJggiEqQQId5xspwLg8Xg8Hs/OyfY1Z7M6XhoQCJEV3hZB1ggQ0gYj7FoItAalNEmiiOIYAJXYioEjSUCrlu8ej8fj8ewibF9LvVXKGSsd0CpBSInWGiEDlNYgZBpD2yZ1YfXdpZDa3m4fAIqo0Ewun2+JJQJvqXs8Ho9nl+JjFvWN0UKQqBafgbZd5D7MhSCBQnNMRXmIAFQcIQNpjtYCpBd1j8fj8exabF9Rd0KensGKrIBilBCEAdo2p2sgSoyBXSrFGlA2jUC0CL4EVAz50B6jrevdue43Ssnj8Xg8np2X7SjqTqodpm3c7XED1qIEps1YwLz5i1i5ag0EIVEUI4S2rndpOtUBgRSEoSQXSEYdcRj77jUAoSEApACdJEjpKg4t5/N4PB6PZ1dgu4m6JsmIumjVG10DsfWxj3t5KkGugs5de9CpSzcUkkIUIYQyxrbWaK3TRnYpNFLAe9PfYWD/vhw6Yk8EVthd4lpBtvOcx+PxeDy7AJtQPmdpZ8OH7SnF7NG2R7sCEhu0hKeffQMRltN3wG507dETggCEoKIiT1lFOfmycvLlFZR36EBFZRUVlR0pL68iV9aBvfcdydR33jNnsB3n3bB2L+gej8fj2RXZhPrpjAQrNBqNQqHtt42FPRuUtayNoEtim1IMNCt49MnxVHbpwW5DhxGWdTCWOxCG1tC2FycBkak1CCERIiRf2ZHla2rNMcLEEcqcPVFJywEej8fj8ewibML9btzeRibNfHBu4pe2Dsi2XrvPSRIjghCAgu0Et64m4bnnx1HVqSvde/RGa4lGEgY5isUIgFwuR6JiY3pr03NOixhQBBoUAbHMM/GNl/npd84hTDSBEKAUhPZafXu6x+PxeHYx2hV1pSGxY8GdPrqIbR6QEXMBqMR0QNeuU5yAOIH5izYwb/4impojEAFxopAyIAhzJHFCohIEmiAwsiwIAFAiQaCQGhSSIjn69+nKcYf2bxF1QAsFQnhR93g8Hs8uR7ui7hzvUQSLFq9h6bJlFIsRSmmCMESIoLW6Ox+5BoGZAjaQxgqPtUbInBHjOEZhhpwFYR6EIFEKlSiCMCAIApI4QqvY+Ae0EXUtTTOA1KAJiESePYb0Z+TQCvLYmgOgMJPaeFH3eDwez65Gu6IeAY0RTJu+hOXLV9C5c2eElChlXPJo0abNLjCbAylRiTHXtZBEiSIIc+TLy4niBISgGEVmRjkh0FaVhRAIAVJo006ONO5/YUQ9sKJeFHneevPf/PQ751GGsdRVHCPzgXe/ezwej2eXpF1RLwJTZqxi1arVDN1jDyo6VFAoRARhSBgIVHvTq7sp3DUE0rjxtYAghOYiFAoR5eU5kMYLEIQQmk7vaG2mbpeypb4g7EIuWhgPgLHUBUkId995D1f94EuUYS1126Yeq4RQmrZ8j8fj8Xh2Fdrt/a40FJOIisoK8uV5YpVQVpEDqSnGCQkKJfTGQZpAAAmaBEWiFcVYk8tDVUcj6AD5PORzpkNdoVCwLvcighiBaUPHWv+m+5uyf6EYQUWHCooRJIkyNYLAJBxI47L3eDwej2dXol1RFwKaCk1sqN+QzrpajCKkFIQ5iRCuC9zGwQx6S1A6AaEIAkAo4jhGKYUgQQqFVjEqSZBCU54PyIUCoRMz3WuannMkOEE338MQCoUC+RxmFjlr6seJWb3N4/F4PJ5djXZFHTJjzbUCrQgkaBVbi1ptMkCCkAohFFrHSBSB0KCtBa4TAqERWpmLUAoVxQRC2rnnzLlbhDwbjJs+CGz7uVtjXZhtHwdKKZRtg9B21rt2WjI8Oyju93N/N4cd5XcuzXM7wjV5PJ5Pnk2Kemb6F9cFbotwRwldEhAI3VaQaTCYgqqtM0sJ0q6xDhAXCqChWCiWRv3IcSIgS2au01qjlPIF7KeE0t8pSZKNtn3UbKpS4PKPy0ObikumMuvibUnlxOPx7JxsUtSFDsyQMh20EtyW0LYgp8Kshe0lbysHWiJwx8lM2gHoEKFzCJ2zw9g2eWkIoLlQILCKH5aVgYB8WZ4kiVsVih91MD30BVEUEdke/Nntnh2b0kqZ+xsEwUa/n/ttndi29Rtn80ZbtJV32tqPvRYpZRovG9ddR/aahBCtjvV4PLs2my4FtBHiFpu75bP7v+UfWdvc7C0V/6yFnh7VEnRqm5sKQXZYWuti0HR0r+zQAQ3EsW1HV4okjtPCeXsFV6DmcjlyuVxaCNOG9eTDjhUc2c/Z76Xx3G/uxLb0uGwclzfaS+PD9pNp1vmweKWUxvV4PLsmmxR1LURGTd2HzF9niWsnzBnSbW3sK8GJeZpcZodz2VOSmpTGUgcIQzt8TUqCMCROtu/c707EE3uebCHstmULch92nJD9/YQQG7WrZ+M5sgJbuq+t/W2l4eJtaj8fYqmTuT4Xz+U3b6V7PB7YxDj1ZuClNxdRV1fHiAP2B7K2tLYyXWLt2Fjp/9ndbZZhboCawX02UZVNw84oJxIQGqkESoQUJdx/731884IzyCdNSG3WX0/s1LRZ/8FHTbZwDgIzC14p7TxWzyeMsELurG6ttelwWfJ7ZQU1K6xZYd+UkGaPdZ/bE/62hLutv9lzu7TcfQgr9B6PZ9fmQ0R9IXV1tRx44AGpoJupW7Ud0tZCyze7oEor97nba/5qAGFnpnN7MuWaMLtb2t3TGeXM5DNKhDQqePzRh3nxib9QppvJy5BCoRlZFqK0xvSh3z5oramoqGDIkCH07t0bMmIhzJeNCmrPjoHzqriKmBCCyspKGhsbwXp9nEC6v1nrOZ/Pp4Jcuk9KudHxQRC02p/L5Tbr+Ox+9z0IAsIwbNW8lMvl6NKlCx07dky3eTyeXZcPEfUFbYg6oDM+8Y0QaCfnraJkvtidpSk4YTc95K2oE9izmnHrEkgIiUO45657WDT93+SSJnScEOQCYm2moBXZWsJHjNaaefPmUVlZydlnn43IdFby7Pg4S52MqNfX1xPHMUmSpMKfJEn63W1zHSOVUh+638XJfnY97LP7SuO0lb67Hrfd9SORUnLJJZdw4YUXUlVVVXKnHo9nV2OzRH3EgQcYQW87amuEs9QpVfVNk9Vg7dz7wsq4sOPfTXqJCCkKePDe+7nqe/9FqOxycq0qGttP1AFuueUW5s6dy4033li6y+PZ7jiX+4033khjYyMXXXQRPXv2LI3m8Xh2MT7UR+2ksV3DvBTN1gmqcQSAHceeYjvPfWiKHxrB4/F4PJ6dmw8VdY/H4/F4PJ8OvKh7PB6Px7OT4EXd4/F4PJ6dBC/qHo/H4/HsJHhR93g8Ho9nJ8GLusfj8Xg8Owle1D0ej8fj2Unwou7xeDwez06CF3WPx+PxeHYSvKh7PB6Px7OT4EXd4/F4PJ6dBC/qHo/H4/HsJHhR93g8Ho9nJ6HdpVcLwGtTFrN0yRL69u2LtGuGC6RZ5tQe1dbBbinztvZtDgKNtMuvmqVXzSKsbulVJQQJAdOmTuL73ziXQLcsDmdWc7dftiN+6VXPJ4lfetXj8bTFJkV90fJmZs+ZS1NjE1JKVKIRMkAgMUdJszRqqyPN+qlKCJTYOmEVWhNqhWx1aSZdgQKhAEX3rp0ZM2o/pFmCHYGtb2hFILavE8KLuueTxIu6x+Npi3ZFPQYia+8KZ3Xr7JcWY7jNBD4C2qsSuO1JDKGEQNp12IVGoFFKEciw5KiPFi/qnk8SL+oej6ct2jVnhU7IEZNDEWhFDk1OQKghJ0wIMSHXRigDKlBbFcrRhPbi2gquopELQesEiQYdIXSM0LER+e1W1fB4PB6PZ8ekXVEPhCBEI3WC1AmBVgQ6QaoYqRUBtBO0Pc42dG9FENqkI9EbCboL7nyhALQikBLh2gK8nns8Ho9nF6RdUQcNSiO0QgoNKEAjJQitQCUIpVqCTqylnIBWVlzlVgYQxEiKNkRIYiQJEoVEmesCU3lQ2vbOs3b8Vrblezwej8fzaaZ9UdcSbe1u42QP0FZ0NRJEaQhAhDYEIMXG5vVmB4FAtvPP7BFO/EWIIDCVAaS5Vi030SLv8Xg8Hs/OiSzd4FAIFAFaBNY2lmghSYRES4kWAi2MgawzXm9n0ye2s93WhASsKDuhzp7InEw4F7u2cVO3u43j8Xg8Hs8uRruinmpqRkuznu2siJfiOrIZm37LgxmPnhH1Nizv9Lw2WqvvXtM9Ho/HswvSrqg7XWwRbY1GbRSMXb5xEJn27y0PTtQ3GgSfkg5DtxcqgpZKiBd1j8fj8eyKbFLU0ybujXqhm9Z200O9RUdbh9ZHbFkwqqxp7SVoK7R45FsqHe3WBDwej8fj2YmRpRuyCG1mdzNTr5rpV91ncEPW2hq6VtoGvuWhfVnWm2i1T4AETeKF3ePxeDy7HO2LeraRutVws6AlIM1o8Y2GpFn/dxuW9WaHjWsKJaHlFG2fzOPxeDyeXYv2RX2TWOHUon2DWLBR+/uWhI1FvK1griP7z4u6x+PxeHZV2hX1NjzirQKipAm8NGgQdlT51oRsG3vpd+MdCFt7DbSZY05gFpzxwu7xeDyeXY32Rd22ULf0Z9eozL/EBoXeSPCd930jw3pLgiWV5nRfxkNQGrIGvsfj8Xg8uxjtirozxFsM8lJb2gTj8m6DdjZvFqKNw0s3lHoGXGgrrsfj8Xg8uwAfKuqtvett/dtYV1NNLd24uSFzeCtK47UXPB6Px+PZBWlX1D0ej8fj8Xy68KLu8Xg8Hs9Oghd1j8fj8Xh2Eryoezwej8ezk+BF3ePxeDyenQQv6h6Px+Px7CR4Ufd4PmVo3fbsSlrrdF/2s/vu8Xh2fryoezyfEtoSbSEEQRAgZcurrJRK95WKu8fj2bnxou7xfEoQwsyslBVppRRxHBPHcSamiVtqqXtx93h2fryoezyfEpwFXldXR11dHUIIpJQIIRBCoJSivr6eYrEIGfF3+12lwOPx7Lx4Ufd4PiUIIWhubuZvf/sb3/3ud3n00Ueprq5GKcWkSZO44ooruPbaa1m4cGEaHyvuXtA9nl0DL+oez6cEIQS5XA4hBG+99RbXXHMN//jHP3jkkUf4xS9+wb333ktZWRn9+vUrPdS73j2eXQQv6h7Pp4hcLseYMWM4+OCDmTt3Lu+99x4zZ85k2rRpDBkyhMMOO4yqqirIuOvJWO0ej2fnxou6x/MpY8iQIRx55JH07NmTQqFAkiQkScLJJ5/MEUccAdYyd+3t7rvH49n58aK+GWitWbNmDbfddhvf//73ee+999J9Cxcu5JprruFXv/oVS5cubXWcx7M9yOVynHDCCRxzzDEEQYAQghEjRjBq1Cg6deqUdqDbmt7vbR2zucd6PJ5PHi/q7aC1Tt2XSqm0sHz44Yf5xje+wa233srTTz/NxRdfzB133MH69evp0aOHL/w82xWXHwcMGMDo0aPp168fWmtOP/10Ro8ejZQSKSVJkrQ6LmuxtyfUSqk0ThRF6XGl8Twez46LF/U2cAVedrhQGIYccMAB7LPPPrz55pssWLCAVatW8frrr9OrVy+OPPJIysvL00LX49keZPPj2LFjOeaYYxg5ciRHHHEEnTp1gkxv91Ihzx6f3Z9N2/0Nw7DVfi/sHs+nAy/qbSCs+zJJEgqFQloA7rfffpx++ukEQUCxWKSpqYk4jjniiCM4/vjj04IvO7uXx/NRka0wSikZNGgQ3/zmN/ntb3+btqWTEe62vjuBV0q16kiXxVn5SZJsVEHweDw7NkK39VZ70sLOFWqON998k5/97Ge8/PLLBEHAQQcdxI9//GPOOOMML+qejwUn7EKItNKZz+cRQpAkCUII6urqeOedd3j//fcpFAoopVJxLn3l3fZhw4Zx+OGHU1lZibCT2bi2eS/qHs+nAy/qm8AVZs66EULQ1NTE7bffzg9/+EPiOOYb3/gG1157bVoQOnwh6PmoyVrpzpqWUqaC7bavXLmSp556ikmTJtHc3Jzubw+3r6KiglNPPZUTTjiBzp07txLzTR3v8Xh2HLxJ2QZZN2ep+7FDhw4cfvjhHH300Rx88MGMHTuWjh07pnHxBaBnO+E8QEmSpB3i3HYn7h988AEPPfQQL7/8MuvXr0+HvBUKBZqbmykUChuF5uZmmpubqa2tZdasWTQ0NKTpurwfRdFGFr7H49nx8KLeBs7qceLsLB0n9iNGjODiiy/mggsu4JhjjoFMwYrvVOTZjmTzpsuTLixYsIAHH3yQN998kziOCYIArXWrtvFNEccxtbW1COvGz+bj0o5zHo9nx2Sndr+XWs7ZdsVtQWuddpKrqqpqJeaFQoGFCxeydOlS4jhu1f7prkfbnvVKKSorK9lrr73o3bs3YRhuVuHr+XTjfmMnxluSJ7OvazZ/z5w5kyeeeIJp06alw9G2FK01u+++O//93/9N3759W12b+1woFNL2+2KxSD6fJ45jwjAsTa5NXDs91uPgKh5ue+lz+KjeWY9nV2GnFXVXYJSireWyuYVQW5QWrNJ2Jlq/fj3PPPMMr776KoVCgTiO0/1ZsoWklJLy8nK+/OUvc/DBB1NWVuYLsJ0UJ+LZSqCwHdK01m3m1yylr6o7FiCKIhoaGjYan76lhGFIhw4dUuF2JHbWOvfelL5DW5JnlVLp8dn+AO75uG0f9jw8Hs/G7LSi7nC9gbPC+lHccmkhtmLFCh577DFeffXV1FJyhbYLpZUBtwZ2GIaccsopnHXWWfTo0WOjtD07H0mSUF1dzZo1a5BSEobhRmuil+LykxO+XC6HlDLtAe+EcWuJ45iOHTvSp0+fVNRdhSNbEXHnUUoRBAGFQoGysrLS5NrEWeROwN39lL6f2XfAW+sez+az04p61s3nChBXWJRazltK1qUuhGDJkiU89thjvPnmm0RRlO53cRzuUWutyeVy6TUFQcDhhx/OF7/4RQYOHJjG9+x8aK1ZtWoVjz32GBMnTkRKSRRFqdBtTt50cV2HOSe+24oQgqFDh3LppZfSs2fPVteSFXdh29ydJe2u5cO8X+6dzHom3Duh7Lh513bv3lW33wu6x7N57LSiniVb+NGGJbA1uIJp0aJFPPbYY0ydOpVisdim2z/7iF2B6M7vCuNjjjmGL3zhCwwYMGCzCnbPp5Pm5mZee+017rjjjrRHuZQybZfelPvcibewrmnXZ8NZ7ElJ57YtRUrJ4MGDufzyyxkwYED6nrg8m32HsPk6iqJ0OdgtQWfa0eM4JpfLpftKKxAej2fz2alFvdRt5wR0W0XTFToAa9asYfny5cRxnKZb+kizhSMZS8sdEwQBHTt2pH///lRUVPiCbCemrq6OcePGcc8996TWqVuUpa0KYVu4fOw6VirbRu3EfmvRWrPHHnvw3e9+l/79+6cVDCeuOjPd7Na8Q21Z6C5dt7+t68/G9Xg8m2anFvXtjbOMnEhTUkiVfnZkH7mwvYjDMEwL6dL4np2Huro6nn/+ee6///709y4N7eHymrNu3XeRaU93gr+17LHHHnzve9+jd+/eadrOoiZTQW1ubmbUqFEMHjyYhx56iCAIPtT97o4F2LBhA7fddhtJknDmmWdy6aWX8vjjj1NVVdWqfd6/Dx7PlrHTirqzenSmva+2tpZnn32WF198kfr6+tJDNhsn1q6gcecS1tqiDUvGxXXeg2wBLqVk9OjRnH322fTr188XYDsxdXV1vPjii9x///1px7ggCFIrdVOinM03zqJ11q/4iDqSDR06lG9/+9up+z2bj7N59rnnnuO2225j4sSJvPDCC+y///6bff4kSaipqeGWW26hvLycb3/72yxZsoQhQ4akbngv5h7P1rHlPrRPCU7QhV1xqqmpifHjx/O3v/2NdevWbTSr1paEZjszV7OdiSuKIpqbm2lqaqJYLFIsFtN9LjQ1NdHU1NTqeBfXpZutXyVJslEBn92fLWBdRcJ9L/2b2OFI2bilZNMm4+LVGevPuYsd7hra2ua2Z79nr3lXxj0b1/SiM0PbNoV7di6ui++Er/Q5b2lw6bkKamnFlMwkS7fffjsnnHAC//Ef/8Ef//hHoigiSRLefPNNDj744DT/vvjii5xwwglo20Hwggsu4OCDD+bMM89k2rRpJEnCwoUL+dKXvpSOBrjuuus46KCDGD16NN/97nf54IMPqKur44EHHuCoo45i1KhR/Od//ievvPJKeu0ej8ew8Vu7k5B90bXWFItFampqKNjhPzs6QRAgbecn5+bPFvzOanM9p902h4vvvAhBEBBFUav2TFcQZ4+Joiht61eZPgnZ9bWdWMdxTBRF6Xncfve39LpcWp5PJ+53nj17NhMnTuTUU0/l7LPP5tFHH6W2tpbArl7o8lyxWCSXy1EoFGhsbOSGG26goqKC1157jdtvv50VK1YQxzFJkhDHMfX19Tz33HO88cYbjBs3jscee4wuXbrw4x//mLlz5zJp0iSuuOIK/vWvf3H++eczY8aMNI96Yfd4DDutqGcFxL30jY2N6fdPA9q6WYMgYP369YwcOZIRI0Ywb948sFZTLpfjiiuuoFOnTkydOnUj0c+6dJcvX86XvvQlhF2YJpfLbWQp5nK5tG1UCMGqVau48sorufXWW9NC3T3bXC6XDs2bNGkSP/3pTykUCpk7MPfgKiUueD69BEHAvffey5gxY+jatStjxoxh4MCB3HrrrRt5Dtxsc9gK5OTJkznjjDOoqqqid+/eHHvsseTz+bQCuWHDBubOncvxxx9Px44d6devH8cddxzr1q1DCEG3bt244ooruOKKK4jjmC996UtpM8Sn5Z32eLY3O62oO1xB46zGD+vMsyOQtczd52KxiBCClStXMn/+fIrFItg22smTJ1Ow03c6izprAQkhiOOYd999l/nz5xNFERUVFSjba9q5cp3YK6VobGxMLXIg9XC4Ajhr5WutWbZsGdOnT0+fc5Ik6ZCtLL7w/XRTX1/PI488woQJEzj44IMZMmQIy5Yt409/+lOa91x+UkqllrvLa67yKKUkn8+n6bqKostTuVwuPb5YLNK5c2euuOIKHn/8cYYNG8Ztt93Gd7/7Xaqrq31l0ePJsNOKevYld8KOLTyc9bCj4to0nZBnC60zzjiD1157jZqaGpRtsxw9ejRlZWUUCgWCIOCRRx7hpJNOYsyYMZx88snpAh9XX301s2bN4tJLL6WpqYkrrriCz3zmMxx44IGMHj2aV199lbKyMhYvXszXv/51Ro4cybnnnsuMGTMIw5BVq1Zxyy23cPTRRzNq1CiOOuoo7rnnHmbNmsVf/vIXXn/9df7nf/6HmTNnct1113H88cczYsQIPvvZz/Liiy+W3qbnU8jjjz9OZWUl7777LgsWLGDhwoUsW7aMQqHAgw8+SJ8+fVi6dCmrV6+mvr6eBx54gFwuR3l5OZ/5zGd46qmnaGpqYvXq1YwbN47ITtZUVlZGly5d2HvvvXn++edZuXIlK1asYMKECQwYMIDq6mp++MMfsmzZMi666CK+/OUv09zcTE1NTVoB9ng8O7GoZy307Av/aanRa63TqTqlnUZUCMFJJ53EhAkTqKmpQQjBP/7xD8aOHUunTp0oKyvj7bff5ve//z233347L730Er/85S/5yle+Qi6X4+qrr2aPPfbgtttuY8GCBSxatIgXXniBCRMm8B//8R/85je/oba2lj/+8Y/06NGDqVOncuONN7Jy5UqiKGLlypVMmTKF+++/n5dffplvfOMbPPTQQwwZMoSLL76Yo446iquuuooPPviADRs28PDDD/Pqq68yevRonnjiidRi83w6KRaLPPbYY3z5y19O51PQWlNeXs7ll1/O7bffzrBhw7j00ks58sgjOfPMM9l3330JgoB8Ps+3vvUtoiji8MMP59JLL2X48OGUlZURBAFJklBZWcnYsWM5+uijOeOMMzjjjDNYvnw5P/nJT9hrr7044ogj+NWvfsUpp5zCww8/zNlnn83gwYNLL9Pj2aXZaYe0ldbea2trefDBB3nuuedaxdsREEIwevRozjvvPPr3759eu7Ad1IIgYPXq1Zx00kncfffd/PrXv+bcc89l//3354orruDWW2/l8MMP57nnnuPZZ5/lD3/4A71796asrIy6ujrq6+v517/+xaxZs7juuut4+eWXiaKIuXPn8vrrr7Nw4ULefPNNwjDknnvu4Stf+Qo//OEPOfbYY1m9ejW33347HTp04LLLLmPp0qW89tprzJs3jylTphBFEY899hjjx4/nL3/5C48++ihxHDNnzhymTJnC/PnzeeWVVxg+fDh/+MMfqKioKL39XYq6ujpeeOEF7rvvPsj0fdgR0Fqz5557cvnll9OvX7/S3a3eqTizMpvrGJf9XLQruJXud+jMCACVmXTGPYv2KuJZr1Vphd3j8ezElrqwbXfOOnQW76fBUnSFlSs43XdXiJ555pmMHz+ee++9l+OPP56qqiqEEDQ2NpLL5Tj88MN58cUXeemll5g4cSJPPPEEAwYMQFiXfpIkvPTSS5x11lkUi0XGjh3Lf/3Xf6WFZWAX6XBEtkf8hAkTOO+881izZg3HHXcc5513HqpkwY9CocATTzzB5ZdfTmNjI6eccgqnnXYaOtNhzvPpxL1T2DzicJ0ts+LsBD2267q7Ph6UzCznjleZfh1OqJ2AZysT0g4DDGwTlTuvx+Mx7LSiTmZMrczMtuXEZ0fHFXrZQsv9PfHEE5k+fTqPPfYYxxxzDB06dADbCXDMmDFMmTKFqVOnUltbyyOPPMIXv/hFkiShoqKC5uZmqqurmThxIqNGjeKCCy5g6NChabt7hw4dGDVqFE8++STV1dUsXLiQ1157jUKhwKJFi+jfvz8XX3wxgwYNYtasWWlFw7lQFy9ezAcffMA+++zD+eefT8eOHVm0aFFaSfGW1acb9/6U/o6u0lyKyx9hGKYi7t5JMulktzmcwJfGLY1TepzHsyvj34YdECfezrJxhVb37t3J5XJ069aNESNGcMQRR9C7d2+01um+ESNG8Pvf/54rr7ySs88+mwcffJC77rqLMAwZNmwYFRUVnH322Zx//vmsWrWKL37xi1x66aX07t2bhoYGqqqquOiii8jlcpx66qn85je/Ye+996Zr164cddRRVFVVccYZZ/DDH/6QDz74gAEDBrBq1Sr69etHEATccMMN7LXXXqxfv55zzjknbafv0qUL1dXVre7T4/F4PB8tO22busO57j5NberOzVnqXnRuSmeduO2lloprw9R2KFxZWdlGXorErrrlno+zgtywo6x3oy33KptYoMO5Ul3ctiysXZVPc5u6x+PZ8fGW+g5ItpCXtud7dny9EwIn0lnLPiuycRyni2M4AXa4dk6XhrZtl66t0rnKs4LsKhWJneXOdeJzx7p0si5Rd62uUuCu1ePxeDwfPV7Ud1CcoDoxTuxEMtJ2mnPimrWqS0XYLY6hlEqHxLm0lJ09DlsZyE5SIzKd8oSdECS2q4JlBbusrCwV7NLzu2ty1+hEv9Sr4PF4PJ6PDl/C7oBkxdyJoLPYnTgGtgcwVrQjOwe7s4ZLrXcyVrSzxl28MAxTgXdinq1MBHZZTSfaLrjjpe3klLXCXX8AZ8m7Y9y1eDwej+ejx4v6DooTXieITjCz7nKHtFNuukqACzozdzwZoc6m5UTfBYezuJ0oOwF3cbIWuUvPbSutOLjtHo/H49m+eFHfgXGCjhXPrDi6z1lL3FnHbaFsxzWR6WSntU4t9PaE1wm2OzZb0SitdLg0SisIWdo7z65Ke8/pk2ZHvS6Px7NpvKjvwLQl4qU4tziZNnQybfKO0rZsJ9KUWNgOd/ym4glbQXDxSo91+7PbdnVKn82mKkBtUfobUTJJy7bgroeSjpXbmq7H4/n48KLu8XyMaNuUoW1/BWlnSNscUXZxREmHR9fcsq24tMlU+pyn5sOuzePx7Bhse0ng8Xi2iOw69sqOYqBk6tW2cMKtM30lXL8IJ+7bghNxN9JB2z4aWXH3eDw7NttWCng8ns0mK+JJkqRTp2Yt7w/DWdLO2g+CgFwul6axLTgBdyMg3PWyGRUOj8ezY+BF3eP5mBC270G2o2LWSv8wS9sJrBNwbWcMjOO4NOpWUbroimv3x7vfPZ5PDZsuRTwez0eKsnMKZDsQus+b4+J24uosfOfK/yhw6ZUKuBN4j8ez4+Pnft8BEG3M/e7ZOWloaODNN9/khRdeoFAopB3lVGYin/Zwedl9BqipqQGgU6dOqft8a1FKMWTIEM455xz69OmTegTcdW1L2h6P5+NhlxB17EIa21vUs4XulnLkkUfyH//xH/Tr12+r0/Ds+CilqKurS1esc/lzc37zrNvdif/TTz9NoVDgxBNPpFOnThtZ2VtKPp+nZ8+erYZHso152+PxfHzsEqKutaa+vp4HH3yQ559/fpsLvvbIprs5BaArKLXWHHXUUaml7vF8GC7v3HjjjTQ2NnLRRRfRs2fP0mgej2cXo31f306AE9lsZ5+slbO1uE5OIjNHO/Y8LmyKrOCLkjnRt1eFw+PxeDw7Pzutpe5E131uaGjg6aef5t///ndp1C0mCAIaGxspFot07twZSnom8yHiLDNrlTtRP/jggznllFPo3bv3Zln5nl0bb6l7PJ622CVEXdmxwUuXLmX58uWtLOOtQQjBpEmTWLduHaeccgqU9BDOnrst3P7s9fXq1YtBgwZRVlbWap/H0xZe1D0eT1vstKKOFUtnFWfZVlHXWvPHP/6R999/nxtuuAGdmeLzw1zvlIi6O7a0QuBF3bMpvKh7PJ62+HAF+hSTFcxS8XTCubUhO8RH2ElFsuOFS+O3dWz2mtx399nj8Xg8ni1lpxV1bTvElQpndv/WBnd8di1yt42SoUdtBYcT+Ox3L+gej8fj2Vp2WlGnpGd5VjCz3zc3uPTaSr90e+m+0kBJRzon9m2ls1VoG5QN9lSJ/doSQaNR6DSiAhI0MZokE8uR3a823t86smc7UFqJbCvPlOatzcb+ftr+ygkKleaPllxS+ntrQKFtnklsTLu/Vf7TJPZ/SEArUCrdr+2/Vglrl1CCJrLHZtJWwJbco8ezk7PTinpWiEvbudsqCNujrQLSFaZtWd+bS/YatstsXZmy0ZWPtii1+12pmI3ktkUoktK99ugYSkS/1fk824328lpb+bC9z5vEZYNWom5E2lT/MhXDbLaxom7ixlaYM9nL/jV7ExRxa1FX2UqDO5NNOE0oQTlRNxdosqITdW0rEh7PLs5OK+rbiisks5UDh/vs5t/Ouvk3uwDdTmggEZpEavPrChOEhryGnAa0AGF2CAQaiSIAEQA5BDkCQgINUptjTdoBGmmzjUzLXI07jyvpPdsLIQT19fUsWrSINWvWpEMpXb7LzqHgtm12hdHlFSBAECIJkEgkAoEEAiAo+ZlNbhBACOSQSLPfpkcAWmhCNDkkaIF2eVBKI+NKm6haIJSERGYs8YCEgARJgr0Xd0sSEhmhxIevcOfx7Ap4Ud8MdGYJSocT86zF3pZX4ONGoymSUCAhFhrthF1byyb1XgrQ0gREaoUZyypsVai2aHVarG+UdYywu8ie7YET54aGBqZOncpDDz3E1KlTqauro1AotIqbrZBubkVTCROcuEolESoAZYRY2koe2QA2NxnZF1a0jahrkMpa5wpp0wxEjkRLlJBoaYVdg9T2AhLR4hLQLhsGJIQohEneVhZiUSSmSELcuqbh8eyifLIKtIOzKRem1jpd8jJrEX3S1roEyhFUIAhcyautsIemIFS2zNXWkpLayLQCYpGaXi2Wli3os0FqY7G5gt4ZTp7tT+fOnRk8eDBaa1auXMm0adP4+9//zttvv50uElPKh+VJnTq5rTS66NnDhBVqK9ZIBcKpr0p3pwkI40yXCAKkEWttRV8ERLYhR4sEGRixblVvtHVHIUCgraxj3e0274rA+hF8DvR48KL+4TiRzs4C57aXkhX3TwwtELFExMKUv2hTVIuESCgKwnQ1ainANegEQYwiIiYmIUYL1WLItyTeUvor3WJNWYvKs31xebG8vJyDDjqIyy67jKOPPppFixZx77338vLLL9PQ0NAq7pZgWtCTljbxVKBbYmgSELERc5GAcJ3pjPu85RizTaNTC1w7C96mGSGsfe3OnNH9wAab/yQxITGBa4t3aNNEEKS1UI9n12annnxmW8g+FjeJTX19PatWrSKXy/Hkk08yf/58fv/737c6jk9c1K2bHSCniVEIlC3yWtztrY+xVpVIjHvTulGd/dMqtiuU3eOxERJhejYbqywoPYPnI8AJdRRFLFq0iLfffpu//e1v1NbWMmrUKI499lgOOeQQqqqq2pzhcFP50nRPM4JubN+gpbJmLWg3UkKgbWURQNhfXRjxBpRI+7+bnOTEXGWs/agJ6jfQNH8esno9ZYEk0holFVqYKoJGGqcAZpssy5Hvtxv0GgRhJTrMmSRtm4AU3kbxeLyot4N7LK5ABFi/fj1vvvkmM2bMYPLkyXTp0oXrr7+eqqqqVsduqvDc7qgWUdd5KNg+xzkgTCQkoSlZnVrbAtv0Ro5BCmJCFJIgu9uRFXRtdibC9JePSMghKfOivt3QWrN27VpeeeUV3nvvPaZOncqee+7JZZddxm677dYqv2aP+TBRNz9mZC3sMJX2bOXN2OSmkuiqfsaGNqIe6ASEpsFWI8uQhLapJvXoyARohBUfsOLFf7Fh6tuUr1xFeaAoimaiICEOEhJhHO6BEoQKYhlAhw502OsABh19MuxzEOQ6ELs8at30Hs+uTnDllVdeWbrR0/aQMzdj3IYNG5gxYwZLliwhjmOam5tbrUG96cLzY0CY9sgE09jt7KpQBlbIRUubuRVl6S5ZgZbGmRm4tnJtjkm97LZO4JCAFKZvfIgwvZ892wUhBHEcU1ZWxuGHH05TUxO5XI7DDz98o8qlw+XHD82XrpOFCIhdjS+TB5QwNrqxvwNjzRO41nTzqwtBQGjzQUs2M21BRYjqYOE8Fj39JAtefAZWLEI2rKVQX0OxoYliQyPFhgbi+gaSugZEbT1yQx1JXT3NNRtYvmY9Ub6c7vvsC2UdQJi2eClb50mPZ1fFl75bQD6fZ6+99uL888/n+OOPZ8mSJTz00EO8+OKL1NbWlkb/RNDCdFxP7KgirE0VIykiiKQmCRSJSNBCo4TprBTZmoC2A5gCrUHZ9kttJgjRts0zcb2PsSqfmD5TOdvhzrN96dy5M/vssw+DBg1KK5xZ4W4vbBLtep2HNr8IouyIiNSfZ/KTxnZ4Uy1iqoRpDA9iCGMIsu57EYGqg8WzWfDwA6x64Rl616yie7GGvKomTxNlCZTHkg6RoKoo6BhpOhcTuhZiuhViuhdiOjQ00LjyA2jYALoIFJHSDVj3eDze/d4OOrM0avb74sWLmThxIo8//jirV6/mC1/4Avvttx+HHHIIHTt23LwCdDtjNRghIVEapEC4TkZRM9TWwqqVJHV1xlEehHY8kzTt64HpPIdWEBi3J337QccuEOZJRAjOCnMFvsAMaXMWnme74lzqH+mCLrbrexKaFhypNaGbp0ApCKXpuG4t+FRHjfGedrATCLRuGR4ndQLFRurfe4dpzz7D6rcm0jkuUh43I4hIAgVaInUurSWaZnhBoCFUCo1ACcm68o5UjTiEz1z0Teg7iERohBTWc+BtFI/Hi3o7uEk8pJRpj/fa2lreeOMNpk2bxltvvUW3bt24/vrr6dixY6u10bEW0ydGYsRVC+s+FZj2ct0Ei+ay+LlnUatWEDdsIK8hUAEiCRC6DNBoUUCLBAQ0BxLVqROVew6j/9HHQt9B6LCC2AwuSl2sWT7BO99l2C6irs2gBmU7xQUqQWpbY1MKAmlqilq2jIvEiboZ5pYACdKOXDfO+UBHUF9H8d+vs3rGdMpVRKAjZAAFHRPnArRWBDoh0AqpFYmQxOnQPNODXiKpz1eRH7gHA446Frr1Qgk7JM5Ol+Px7Op4UW+H7GNxgt3Y2MiKFSvI5XI89dRTzJ8/n+uvvz4Vc3dMW+OEPzaMoQPaDAkSQoGKodgE789l7hOP8sHE16mIGglkDFITaQh0SF7lEUohgoQkKSIFFIKQhjBHoWcfDvjc5+l/0mehvCNahCR2IJEszUFe1bc720PUY62RWiGTGJII4qLJTCqGUNqp4ayoa2Ezmxk5YcdPmhpk2jaDrSkkUCzAmjVmU1Q026WbpMa1vNvpXrWdDVFKm651CWggqIDyztClJ3Sost0AEusf8I0/Ho8X9XZwj8WJdWkP4ltvvZXZs2dzww03bGSVl37/WNGth7ShixA3wZw5LHv0cZa/+ipdaSZIGlCySDGnaQpAEtAhCiA2DeShBKkSijKkKV/BmopOdD/sKA667HtQ0RmCPIrADHuzZbspoNsw3T0fOR+1qGs7L3ugIuTqtWyYOpX6FUvIEVEfNyHzOQItkSpAKiOe2lrJZrQ5JAiEloTKpJhYoZf2O9K8S1JICHM0FCPyMk8+EUgl0EIitSbQilhCcyhIpEIJY8GHStMclFPeezf6jxoDnbuavKYTUwHwtUmPx4t6WzgRxwp01gp3+2+99Vbmzp3L73//+7SAdfuy4v9JkChr5MTNoIs0T5vKu089ScO706moq6ODBKWKxKFGhxBrhVSavG2Lj6UZipSLY2ItSPIdqO7QibLhB3L0j38G5VUQBKYQdxqezUWf3K3vMnzUom4ayIvQUMuSR//OmtfeoGHlYojqicohlpowCQiSgEAbUY9lghYJAZGt2JlOdtrOJGf6yttKHxJkQBQbqzrM5YiiIvlciI4ihDRzuztRVwKiADCt6QhlppGtL+9E9wMO5YgLvw59BxprX2atfY9n18aLejtkrfO2tt16663MmTOHG2+8sdVxYNuwt6qAyfwUW/mraCEo2rPn4waoWcPaF56jZsZ0OhYjypRCC0EkBMXQLMoSxgk5oQlEQlFDFJZBlNARULFCyTy1HTrBoD0Y8p/nQ3mFqQykhrmdTazV/57tyUcv6gmoRlixhEnXXE/l7HlURnVI1UBjhaIoNfk4IJeEBMp0mIuCBCVjcqpohj8meZSQRKFCCUWgTVu40CJdlEULSaw1OSmQSYQMFLGOIAiICJAYUQczMsOIvEaoAKED1lR0puNBo9j76/8P+g82HTkDM3e88JPPeDxe1DeFKzizf7HW+y233MKcOXO46aabSg8ziqwViKDVQJvUos0M9dHSzrcO5HQTJE2Q2EU0thYR2LbJCBpq4YNlEEfGte5+bmEHp2vstWKvGxCh6TGFbQ8FyFVAx54wZA8oC9Nrlqm33d1YarubrSXZq9SDkX2mbbGp/dm0S38fVwFzHR2z/Rzc7+k6QLp92Xjuc5Ik6fwE7rjsNmCj76XXUXrt7e1v61ll7yOLO25LRb10RIdwXiWtIGkmmT+HKb/7NR3mzqKChEAnFGSMkhAo2SLSmGGToJB2QKRQZkhkIrWZAS4d4y4AgdICEQQorQkENm+Z2eLcPAiATd90uxduERkECMmafBWdDz6c4V//NgzYA4KwpAl/4+e5uc+/dH/pttLfoJS20nL5yO0rjVOad0o73Go7g+Drr7/OxIkT+da3vkV5eTlBELBhwwaef/55mpqa2G+//XjppZc499xz2W233cAu/DNhwgTmzp3L0KFDef/99znzzDPp378/Wmtqamp45ZVX2LBhA1VVVdTV1XHqqafSq1cvtNasW7eOF154gW7dunHMMceQz+db3Yu7vtJ79nyy+MlnNoHLrNm/7vNbb73F+vXrOeWUU1odA9i5qRUIs1SklUdT8DntM15IsKKeALm6VdROe5P1775L8+zZNM7byjB3Jo3zZtE4by6NixfTuL6axpoNNNbW0VhnQ20djRtqaaytNZ9r62isradxQyP1NfU0bainecMGog0b0PUbqK6tp14EVA0YRBRKVGatNtePCeEa8wXQviCVUlrIZr87REaES38XSgoXl47bXvpXWGF28ZMkSa/Rncel4X5zd13umPa+O7LnyxbspWT3Z3GjL0qfQRYhBBMnTiSKIg466CAqKytb7S/FPb+2EJhMKtasYdWEcZTVLEcIU7cz8xa0zEKohRFiN5WwOdS0iWthJhdumWDYLrHqVvu1s9GZk2E3umev7TTGZi5DCWkDjxaCBGjMhVT060/Pgw+Dzj3TtM1FbPx8s3mhNN+435aS/OM+Z7eVxs2SPYf7XpqHKMl7rsLo0nXb2jqnUopVq1Zxzz33oJRi5MiRRFHExIkTueuuuzjssMPo3LkzzzzzDIsWLWLUqFEATJ06lfvuu4+BAwfStWtXnnvuOTZs2MCIESPQWvPvf/+bf/zjHwwZMoQgCHj++edRSjF8+HCUUvzzn//k1VdfZfjw4ey+++7pUtPZ+2zrs+eTxVvqW8ktt9zC3Llz23S/t8yJGZrJOzIIjEvR+AslibLrU9c3sOyZR1n31is0Va9DRlHJkR8fGkEQSLROUElELhDUhB2o2ucgDvvmd6Cik+2YlB4AdhpRkRbErQu6ttCZhXJoo3B0BZwr9FycbGHntpUe49IutUyxlrk7VkpJHMeEYdiqIHbpOLHNXmP2e+k9YMUza92XfnfHtLe/rXi0c59bYqm7tJ2AuOegtSYQAlSMnvMeU2/4JR0WvEdopiU0Yku2U7u7V2dhumVPjQxvHaaXu05FXWOqjubEdp4b1pV3oOtBhzP84m/DwL3Nsq3ulG30hdmwYQPjx49n7ty5VFVVUSgUGD58OKNGjSKfzzNp0iQmT55MTU0NQRAwduxYDjroIMIwTH9/97yEELzwwgvU1tZyzDHH0L17d2bMmMGUKVM47bTTWLFiBS+//DJ1dXXkcjnOPPNMhg4dShRFPPbYYyxdupSamhq6devGhRdeSNeuXfnBD37APvvsw+zZszn//PO5++67099WCEEYhhxzzDEcd9xxPP744/zlL3/h2muvpXv37lx33XUMHz6cSy65BICXXnqJu+++mwsuuIARI0Zw1113Eccxl19+Ofl8nr///e/861//4oILLqBv377cf//9dO/enQsvvBCtNffffz/vvfceX/rSlwjDkIcffpjhw4dz7rnn0qlTp43yn3vOnh0Lb6lvJW+99Rbr1q1r21K3hZ6bHdsFZYs/JTRKmHZHgUZGGubOZ8nTTyKmT6NDzRoq69ZSUVf9sYfyuvWU16+jvGE9+fr1BHXrCBqqUUlEWcdO9B01CsLQlt2mIHcFrrPBXOHqCqcsWVHMfnaFhBPIbMGW3ddWeiJjGbng0nXHKWsNZ+Nkz+HSyqab/euOd8dkrftsAeeuPRs3ez4notn0s/tdHCe62fRKEVtoqZdeD9n7BONhWreGFW++Qq56jZnu181zkEbK4q4pddW0FWnzEdoeby33tPJgrHENNIU5KvoOoOfBh0PnHubiMqfM3pe2LuYHH3yQ+fPnM2rUKHK5HJMmTUqndH7llVcoKytj2LBhzJs3j2XLljF48GC6devW6jk5lixZwgMPPMC+++5L3759ueuuu6ivr6dv37789a9/ZcCAAQwePJg4jnnyySc58sgjmTZtGi+++CIHH3wwffr0Ydy4cSilGDFiBOeddx7Dhw9n//33Z88990QpRf/+/dMwYMAAdt99d/r370+fPn1YtWoVf/vb36ipqSGKIi699FK6du1KGIZ069aNxsZGnnjiCVavXs3q1au5+OKLGThwIGVlZfTo0YPly5czbtw4li5ditY6FfiKigp69uzJ7NmzmTRpEnPmzKFHjx6cc8459OjRA0ryeWn+8ew4bFxSeLYZbYs5gR3Ca0OozZLmAmPVKtya1BHNtWuRTXVUxE0EOkpF/+MOWpgFO1QcoVVMGEq7OpeZucvclGssteWt/SpLMlRWrEot5qywkRFsV3C4v04EnTA7Czt7rEur9Njs+d02rKVaeqywFQN3ne56XnnlFb797W9TW1ubnrupqYnHH3+cG264gZkzZ/KjH/2IefPmpeeMoohXXnmFq666ivHjx/Pzn/+cBQsWpPfR1NTEs88+yw033MA//vEPfvOb37BkyZL0+Lq6Oh599FHuvvtumpqaWt3btuDuM0v6bLTtT7ET4J6X+5vP59l///054YQTOO200xBC8M4776RL2A4ZMgSA+vp63n//fdavX98qT7jPQggOPfRQpJTMmjWLpUuXMnXqVI444gjmzZvHa6+9xsSJE5k0aRLTpk3jhRdeYMWKFfTr149jjjkmXT1v3bp1vPPOOwAUCgXGjh3LeeedR8+ePXnllVeYNGkSb7zxBm+88QZvvfUWCxcuJEkSunXrxjnnnEMURbz55pt87WtfS70zQgi6du3KCSecQK9evfj3v//NWWedxV577ZXmnb59+zJ27FiEEMyZM4fTTz89bX8HGDx4MCeddBJr166lpqaGk08+mb59+7a6/2z+cc/Xs2PhRX07YdYpzyi86ROUrnzWstRlAsToqBEK9eSSAgFmXvZPIiA0UkAuDEAppH2RY2VmmGtZ+SUj7Kmg26VjtHnhnaVJxlrOtiNiC4asoDvhc+13br+L6+JlC1uXfvZ7Vqyz+1062f3uGt25kiRJ9/fv35+ZM2dy6623pnFnzpzJHXfcwdChQ6mqqmLDhg2pG1xrzaJFi/jTn/5E165d6dixI8uWLUtdoUmSMH36dB566CG6dOlCVVUVs2bN4tFHHyWKIuI4ZsKECbzwwgt06tSJMPzoZkkTmWYM993dc4s5vnPg7k0IQVlZGZ06daK8vJyqqiqCIKCxsZHly5czYcIEpkyZQl1dHV27dqVDhw5pGq4S5/KlUoqqqipOPPFE3nnnHR599FEGDhzIkCFDqKmpoWfPnowePZrRo0dz2mmn8ZOf/IRevXoxb968tAkgiiIGDRqUpgmw5557om3l4/jjj+foo4/muOOO45hjjuGoo45i6NChSOu56dOnTzol9T777NPq2sIwpG/fvowcORIpJUceeWT6LNy97LbbbgwdOpTKykoOPvjg9P7c/mHDhtGnTx969+7Nvvvum+536WSfR3abZ8fBi/r2JJvfM1ooNYRIAgLzcghFk4wplmsK5YpEmJ7Gn0SQSQ4V5Qh0JTKpQBdzBLqCgAqzlqsKgND0sC9xtbolOYUQNDQ08PTTT/Ozn/2Mm266iWuvvZaHH36Y2tpa4jhm0qRJXHPNNfz3f/83P/jBD3jqqaeor69PC5jSwmL8+PHcd999LF26FIDZs2fzl7/8hfnz5zNnzhx+97vf8eMf/5if/exnTJkyhSiKaG5u5oEHHuCXv/wll19+eWpRa6353ve+xw033MAll1zC1KlTufTSS7n44ou56KKL0s/33HMPQ4cO5Sc/+QkPPPAAr7zyCuvXr+emm27iuOOO46STTmLAgAF89atfZfHixTz00EOsX7+eRx99lF69enHeeeex7777ct555zFz5kyeeOIJli1bxjPPPMOQIUM488wzOfTQQzn55JOZMmUKL774IrNnz2b8+PHsu+++HHfcceRyOXQbzRhby+TJk1MRc+matHcCi6vEe6NtBbGuro6FCxdSXV3N4sWLWb9+Pd27d+e9995j6dKlHHjggRxzzDF07NiRpqamViLXknRLBfGEE05gyZIlPP7444wZM4aePXuy++6709DQwN57780JJ5xA7969mTx5MlJKnnrqKXK5HMceeyzHHHMMdXV1RFHUyivkwrnnnsvZZ5/N2WefzRe+8AVOP/109t9//7RSGgQBHTp0oKKiIq38OoFVtm9GWVlZ+tf9xu74XC5HRUUFQRCQy+XSe3L7y8rKKC8vJwzDVvsd7lyeHRcv6tsFZ6K7Hr52s/0rraAHSDO7FhqdkxSChKYgRgmNVPITCgEhFSQFSUgFUpUhkhxS5RA6B+TSfu9uSdcWbW954Zubm5kxYwbvvvsuw4YNY//992f27Nn84x//YNmyZUyZMoWqqirGjh1L586def3115k/f35aeLYWHKiqquLVV19l5syZAIwbN44VK1awbt067rvvPjp16sRxxx3HXnvtxZ133snixYuZNm0a06dP54ADDuCUU05hzZo1PPvsszQ0NPDPf/6TFStWcNxxx9GnTx9OP/10Pve5z6Xhs5/9LAceeCBCCEaPHs2FF17I//7v/3LHHXcgpeSrX/1qOrTowAMP5Etf+hL33nsvd955J7NmzeKyyy6jR48e6bKoJ510Evfccw9/+ctfWLt2LV/5yldSy/DYY49lxIgR3H333dx7771IKfn85z9P586d0wI5ax1tCzNmzODaa6/le9/7Hi+88AINDQ1WwD6aSsMnSub5uHyjbPPN22+/zXXXXcdvfvMbevfuzbHHHsuwYcMAeOaZZ/jDH/7A+++/T0NDQ9rkUZqWy5e9e/dmr732omvXruyxxx5UVFQwcuRITjzxRO68805+/OMfc9NNNzFkyBDy+TwHHXQQixYt4u67706HwK5YsSIV8uw5HO63lpnOjMJa3Nn8kL02d33ueLfNVVDcuUq9XO6vS7e9/Y7svo8iT3o+WnxHua0k21HOZWz3Umnh5M66fAUgFVoKlDDlpxv2I7WAOCFeupTqaZPJr1ttFz81PX4/7iCAUChIIgKpECQgFM25PGV9+tF7zFGQLzO9js1dZ/43n4QQNDY2MX36dPL5PBdeeCFDhw5l9uzZzJo1izFjxtCpUydyuRz19fW89957LFu2jH322Yfdd9+9VSHinm23bt2YNGkSxWKRnj178o9//INDDjmEKIp4+OGHWbVqFStXruT999/n1Vdf5cgjj2TIkCFUVlYSBAFr165lwoQJxHHMUUcdxV133cXFF1/MaaedRj6f57bbbmP69OnMnj2b2bNnM2PGDDp27MgBBxyAlJI999yTl156iWnTpnHVVVcxdOjQtCkhDEN69OjBsmXLeO6557j88ss5+OCD00I0n8/TvXt3Zs+ezbRp0/jmN7/J/vvvn95nRUUFnTt3ZurUqWnnpr333rvNQrW0gJ08eTLFYpERI0a0u556lsrKSh577DFeeOEFpk2bxjvvvENFRQX9+vQxTS7r17L8jZcp27CWnAxRcWL6UtCW7u94HeWyQqe1pr6+nqlTp9KrVy/OOOMM9t13X8aMGcPuu+9Or169GDx4MHvssQfDhg1j1KhRjB49mj333JPKyspWwpgVS6UUTz/9NCNHjmTMmDGp5bzHHnswYMAA9txzT0aOHMkJJ5xAly5dGDRoEEOGDGHYsGEMGzaM448/nsMPP5zddtuNAw44gH333bdVc5Ojre9BENC3b18OPPBA+vbt2yqesBXAHj16MGLECAYNGtTm8X369GHEiBH069ev1TmEzcsDBw7kwAMPpGfPnq2Od3FKaWub55PDi/pW4kT95JNPRpf2ThbKWN/OmhUaLczc2G54uplUwy53GidESxZTM30qZdVrEHZcbqngfhxBoAhRCB0jhUJjFutozuXJ9+5PrzGfgTIn6i2FeFoe221NTU289957xHHM2LFjCcOQqVOnsmTJEoYOHcrLL7/M/Pnz6d69O3EcUygU2G+//VJRd9aFK3RyuRyFQoGZM2emLvSjjz6a5cuXs3TpUk4++WRGjx7N/vvvz5FHHsnIkSOZNWsWzzzzDMVikU6dOtHQ0IAQgmOOOYa77rqLr371q/Tv358gCMjn8+y3335pOOCAAxg+fDjdu3dHSklZWRmLFy9myZIlfP/7329VkLrCsqGhgeeee45f/epXG7ku8/k8q1atYsaMGfzgBz9otV8IQT6fZ/78+WzYsIELL7yQfD6fHkuJWLlzAkyYMIG1a9fSr18/mpqaWL9+fbth7dq1BEHAwoULmTt3LosWLUorGpPfeot+nTvTNRCseus18hvWoqKEMAzN8MY23fM7lqi7Z5LNO/X19bz11lsMGDCAc845J+3Z7n7zvn37MmTIEAYPHkzfvn0ZMGAAr776Kg8++CAvv/wyr776KuPHj2f8+PG8+uqr1NfXc+edd1JTU8MXv/jFVmvad+zYkd122y1Nr7KyEiEElZWVDB48OA39+vVLBXevvfYisMMZs/ml9LP7HgQB3bp1SwW9FCklnTt3ZuDAgem20uO7d+++0fHZ/b179/7Q4ZGO7HV6dgy8+30r0Nb1lXU9JUnS4rZC2uFsZt5rqTUfLFnMujVrzAM3/dFavPRIZCKQMeR0YIcStaG4H0NQEgqBohCaUAwUcaCIpSaRdvUscDNyty7qtQAN2haq9fX1LFq0iJUrV7JkyRI++OAD+vXrx/Lly1mwYAEjR47kM5/5DF27dqWuri61fLOVJOd6BDjiiCNoaGjg73//O3vvvTeDBw9myJAhNDc306lTJw4//HC6dOnCq6++yrp16xg3bhxBEHDsscdy7LHHUldXR3Nzc/o7Oesol8txwgknMHbsWE488UROPPFETjrpJIYPH55eD7YJwC2z60TWdaoLw5COHTsihKCiogJsnnAFqrDtlVJKysvL03tz+wLbBhqGIeXl5Wn+coVmtvDM7hs2bBhr1qzhxhtv5JprruHqq69uN1xzzTVcddVVvPfeewS2LbahoYF33nmHp556ihtv/D0rVhq3cCAlQRgSRZGRV9WWqO84aN06r7jfrUuXLlxwwQWcdtpppYdshLSdJIcPH86pp57Kaaedxmmnncbpp5/O6aefzimnnML+++/PWWedxeWXX87ee++dzm+QLQs8nk8SL+pbgSuIs59dbR2r0wrbUQcQWvP0E3/ny/91Pr+57jcsW7ysxZ5RJuRkSD7I2eFvLTbwxx00EAeaKNDEEhKpSYRZPlsJ9wBcfaRE1B2ZZzNv3jyuvfZarrzySpIk4XOf+1zaa/zJJ5/k//7v/5g8eTJRFFFbW5se5wpJ91yFEHTr1o3hw4en1lWnTp3Yd999Of3003nmmWe47LLL+O1vf0v//v3p0aMHhxxyCEuXLuWOO+7g2muvpbm5mTVr1qDs0DXXkSjbTunIfnY9xpXtvZ/1yjghcELrxNLtywpwGIatzuPuU9tKjMs/2ePctaZ5q6QyOXr0aL773e/y//7f/+PrX/86l1xyyYcGZ9VrrSkvL6djx46cddZZfO1rF9Gndx+CoOWecrmcOX866mHHRIiWd9E9V2ErWHvttReDBw8uPaQVzroPgoAhQ4Zw6KGHcthhh3HooYemnw877DAGDhyYeoScNyX723k8nzR+RrmtQGvNH//4x3SVNmwB7Qp/GUgUmkBL65lUPP/UE1zz69+yZPlKdhs0mLFjx3L++Rew28CBEDVT/8arvP/gn6hYMN1UBFqf8mPDNBcItFIEIkBpM91tdUVnOhx4BPv/6GdQ2RnCkNhepbC1Q6FNx0CtYd26ddx7773MmjWLiy++GK013bp1S+edXr58OWvXrkVKmc4p3atXL3r37t3qelxh6XoL//rXv6a8vJzzzz+ffv36kSQJNTU1LFu2jKamJqSU7LbbbnTv3p36+noWLFhgrU3TnhzHMXvvvTdTpkzhgAMO2KgdOkmMy9nNMudeD601y5Yto7q6mgMPPDCN7wRXa011dTXvv/8+hx12WHpMHMepMK5cuZI1a9akx2utW53P3cPw4cPT9F28rKg74Splc17lxYsX893vfpfx48cDcPbZZ3PWWWdxwL77slvvXiQL5zDtpmvIzX2XMmEqmRpFGAYkStlKnDvPjjOjnNbY6ZkNWXHXpc1jbeCeaxzHyMzEP6X7Kal0ZisQHs+OgBf1reSWW25h9uzZ3HjjjWmBkT5KIVBaIxJhFqMQimLten78819wx11309RcMO1qg4fwuc9+lkvO/hyFhXNZ9sTd5Oa+Tag0of6kCgmJFgE60YRSopQpsNZbUd/nxz81op4zU+DqrKi39Bhg7Voj6uvXr+d///d/08LVFbalBa5SinHjxjF+/HgKhUJq/TgX9sEHH8w777zDihUruOiiizjiiCPStkh3fFuCly2A3fes5eu2kfn9stem7Pjf0oI7m4ayQ4nctuw5nUi4uKX37ix/t93ty16Te0bZ+3Bxstec/dseN998M7feeiuHH344Z599Nvvvvz99+/alLJ+DJCaeOY13brqaygXvkRM5hNIkibmHliy544m6ibfx75d9nh/2bLLHZJ9/9jk7iz77m6o25u73eD4pvKhvBUopHnnkEX7/+9+Tz+dbFRxam5WkhQhMGzMQygR0kXmLFrFi9RpUlCCFRGtBn549Of/kE/jCqEMJ3n6Z8gXTkLEg2JZV2rYBMwENqEQRCglKI4S0oj6KfX/0M6jslIo6rabCdYuxBkRRxKpVq4jjmMGDB7cqMGlDfLTWrF69mrVr124kjkopunbtSm1tLVJKBg4cSIcOHVoVvtn262z67pxxHKeu8fbiZF3rOmNlO6s9e83ZdLKfS/eXvl6lx5Tuz5KN6/66e3TP08UrPX9bxHHMzJkzqa2tTacdLS8vN94CKUHFqDkzeOfGq+kwfwYigZwISVRsf2B3jh1X1EsrbFsiti6vuc+uz4VLM1sBI1N5cJ89nh0BL+pbybp161iyZAnNzc2QKXjNyy3R2roFAa2LSJFwy+1/4uG//Q1ViMxY9SDHiccey48vvpDBOc3Kp++n7P1phDpEaldgftwotFToJCG0S7AKIagu70KHEUdYUTfud2uzpGtytayw3tKu7CgVMF2yqEm2UNTaTFsqhF3aqw2rCyBx87lbSXHbs3FcIe1whbQrnLO/mzvO7VeZKWqz25PMcpnusy6x8krToiSPuM8u/eyzaeu63OcsmxMni9aaQqFAGIZpBy8XXygFSQzvz2LKDb+gYsF75EUOHSnz+0phpjVGmymDnX9GCxBZn03759802vZEkWgCM4mRXSDIiboG1pZV0u2gw9n74m/DoL1SUXdnzT7H0me7qWeTHeOu7VchWhLWylyLGwVg5pdw8TXY7zYHZp5DS7q07s9fEs/j+Wjwor49MOUTWtoVVrVm5sz3+NkvfsZzLzxPEkWcePxxfPkrX+OQkQcztFtH1r89kUUP30Xlgvds+2Bpoh8PptzT6ESTw8xmhoB1HTpRMeJwDvjhz6GyKwSBLY9saQt2KN+2FOxkbjxT4LX7LGycVqdrfW4nrtnP2W1t0dYx2c9tbfu00O71KgVxBPNm8NaNv6B84QzyhIhIEOgcQkuUjFAysaIOUgcIZa1zAcoO5dw6TJoaUOn1mbXbBVivl2BdWRVdDzqcvS6+DAbtYfKhibptpC+dNPeSuRNzZttnZKM9ABIljGAHWts5oU06pp1fm4qukGmTVc4VErb64qrFHs+2svm+Kc+WIUAlMVoloOHJvz/NpAlvcfSYz3Dv3X/lj3/4A6ef/lkGD9kdOnQwPaOVQMTC/LV9yz/ugNZ2UhxpvAXajbU3q8uZsscWc84nass4Ny5/23GFpl1ohPaCi1v6vYWsgKVWaVuilqGtY7Kf29r2aaHd63Xb099SG8tcaIQOEDqzaoFbJ8AttasD0AFiG/qBCJefwFrsuBxp92MEXsuWa0nHhX4UlOajtraU3p+bMVK0kvpUyDVWuFv2um/p8R/Z9Xs8Bi/q2wGtFVolCNuLVkjBsccey1//+lf+dOutfO6MMxg8ZAgdKipMIStMPd0UbKasCrT4RILUtuC2hTeYdva0+DEX2oL7njHYtw1TvUgTtc+n1Yna2WfOn704zxYhQjQ5hA4JVGjF000HLO3nAE2Asn+1ENZKNb+BtHloS4NGkgiJEuacpmJpW+m1RmqN1Mq2s9uXRJo8mti65UeDyUXmbkt6CQhABKYjqQhRIkQR2L4lmUjC9gtwfwlaKk1t5NDS7x7PtuBFfTsghEQELfM6aw2HHHwwxxx9NEMGD6aiQwdTkdeZd12Z1dECYSaJLS30Pq6QyqMTcmcNpVa6u8nWpdHGVs3W4YS5lbA7Ad/Edxd/W8+/6yKsG9lY5cZTYzNv+suaOBqJFmaaYI3x4Jg5DIRpc9qqYNImzYvul1UgErRIEOkMhy3BLH7Y9nx3W4bLS6T3a+609VZTpWixzLMWekthalzvGoywi5ZU7F1+BG+Kx9M2XtS3B8IUhqYjklmttKwstMOerFtOOZe3OUAphUpspyRaZnj72ENapDlhN1Pc2k+puLsCvVVZ+BGTlRPInMueb6P9nm3DutWl1oRKI3WCEDFCRCYQm21o0G5dgBhEhBax+S2EnedgC4NAkFOafKLJJ4qcUkhtxDyWCXEQE8uIRMYoYdYjcLJqJHPbcoG5DifAmLR1AjpB6MR22lOt/BaBWa+Q0H422dL4DMyVYd/wFlF31r9J357K4/kI8aK+PdAYl7o0L7OzxqUUyJYvqbsdpQiDgFyYQ6kEpa2QfhLB3YDAiri7ISvoJbgt21tcS9Mu/e7YTvWLXQP7+5vmH5BY4SYGESO0XVo34xdxlrSxppW12rc8gEZoQaAhUGZ5YmF/58ROUaysu11nfmSJIEDYgZVbj7bd24wki4yHwraCt+pPnD2XieNEv+XdadlbemT6SqVbPJ6PDi/q2wMBWmmSOEZplZYPpv+M9bu7QkKYCkCSJOlYaqTYqND7uIIrMIXOFtwlpK7RlgJqozhbSTbd0rA58TzbiMC6wY3zWQlsnwoNtHRUM3/N2gbmuavUat+aoIQikpJItrRVKwISYdvvdYjWIUKHSBWCDVIFZiTlNjaqO/EtFWGDaSfXSBI7G4MLxm9hi1Ht+ra3nRdb5VPh2t6zDn6PZ9vxor4d0EojBAShmbwCbLmQfnDBHpCZOz5RCUqrdK71jztkWyeF1mkH43aLnWzdpHTfVtN20bpptuYYTwvaWqTOfWyGaSlBKwtZW8FvLUalkrjlQQmIpSCWgkS0dMwTOmOLZyoT5mJk62S2kdZ5OH0507Dp02z8krT1Tpjv2n7yxa/no8fnqu2AkAKs6x0y4i0xYt7WQHTX+J7G37jg2+xgh9S4Xvg6HSurzRC70viZIMBURDTEsRmOJ22bp8Rde+aQ7C20UYhtMdoJS/Z+XCi53I02tHFRns1Eg44JdJEglERCEQuzqE9RJySBJpG24md/ZCP0Ld3UdCIIyUEsIBaUhxUQS4gFUgWbDCCIg4RExqZTHAmBVoRKk0s0QYJ1/2Pc3DoGXTTtBLnM5HZbibA97bXSZiIebH5LkvR9lZl29BwQagh0gtAxuKi43vvO26UR2fzs8nGmkuBzrOejxIv6J4Hrue288EoRWwtdWyPe2UJbE9zxgTBt+O5z9nt7AeFmSQvJ5fIEgZ0edVMlkN2+zYKOqxnYB6OUWcY1s1BHC5k4SWLnA2grnmfzUUgBzUpRzJUR5cuJ8xVE+TKaZEAhyFEM80SyjFiWEQU5G/LEQZ5IhsRBHp2rQFZUUdNYROfKkeVVFDH72g8hUSCJQkkxDIiDACVCtAxRMocKc6hcGZGASGkIA5CgiYmISEoGlm0pErNEciC0qVxrASKEoMw2B7T0eG/9CpjOdTEBSZAjFoKCMnGEzuZJ97KbozdOx+P5aJClGzwfF7aVUgB2+JuQZiicE6utDSLJfNbazIRlv0tMJaLdkGg767ZAaYiShDgxk4GIVr2D09tI+UgsdYcApO1sKKV9UNb74E4qjEdE2JD2SPRsHUqADmkOyqnNVbJOV1BNB+rCjjTkO7MhrKQmqKROdqBOdqBWVrIhqGKDrGJDUElTZWfWIlknA9aJgIYOlawPQlYpTX1FB2rCfLthQ5CjPshRJ3PUhnk2BOXUBuVskBVsCMqpDspYH+RpyFfQHOTSsWRCa3LWPt42ElBFdByTJIpYSCIhaBTQJKCJltDsPgtoFoImJPVAA9CIcU4kYN4V5aoC7uUoGT3yUb4zHg/4aWK3J9r235HW+GzBuseFKYpEsZHq119m/n13UDl/JuE21rbSqUBTV38LQmx6ERFTrku0EohYWr+kZl2HjnQ4aBQHXvEz6NDNNi+UlEwfQelkmgsSM9ZfmEk7Wl2tbjlPy+lMk4PW2o442Jant4uiNRQjqFnPmpdfoGzDOhKRoEgIFHYaUzORSphIJBpE0fR4J0ALSJIiuVxIobmZiooKtNbU19fz/vz5HHjAAR+S7zRKmEpnoCBQAYEKSATEgSKxo9GjsirKew2k4xFjoEu3dAIarQVShKXJbj5xwbyXQTmREBSB+gRmzF3PslXriZKkVd9W978TZxEEhIFg5H6707crdBZQjkYndoFi6aZV1mA73Ol0KFwmU3s824gX9e1Iu6Jux9gqa1/IYgPVE8az8IG7qJo/O7Wwt5aszqbbbHrtThNqUUKjJGglCFTOrA0vElblK6gYeTiH/vAXUNm9RdRpEdq053zLnq2g5epdgdlWkediuatoKWJLY3o2Bw3E2rQXi4Y6SAq2jwdgpzpGmvZiEmncyrJoM3bOuqFtjtc69ZqsmzeP888/n2cnTmx9wlKEAmnapgHTuz0Jzc8p7bA5qUDnQJdDeRVx2DofbJO1rk3beYGQgoRldXD/UxOZ8M4s6iKJCHJpJdy0lAcoIe0oeUWZbiJMGqmgyKXnn83xI3rTJcDMgKdU5n3RgMRKPWHrUiJzQR7P1uFFfTvS6nVt9ZRNZzVlLQsZNbD+jVdY8MCddJj3Hs4u2lqMNe4s9g+3zrNoAYkwY4ZDlQcBiUhYW15J1SGjOfiKn0JFNwjsFbpkrUvRftxqtLbOdSsKOhPcCYTtS6jtudz5tFJIIb0XfivQQNHm1zJAJAXrKQnsVszkLAi7KJuGILIZO29GrCeKIDDipYFCocCyZUs5/fTPMnvWrJIztkajADOBjUIgCZG2lpgI0CRAEUFAoPLEGhJr/DrfzLb4Z7SGREOThHlr4O4n/83E2R9Qp/JEsoJEgdKuqon1TkgSEQCacpoJ43o6yQIHDOrO/3ztNPpXQrnEvO9ppjTNW7F9x80CxspWSbblDjweg89FHzfCqZJ5yRWmRNHC9JrXQqCkJA5MZ6GtCZGUFISmIDRRJq1ISqJg02kngUQHEoLQuD61NjN+hcamQCkQaZNmKwXfvGrDh2CfjcpMBpKmaxXcFPzmb6JdFQnbrt46Oc/mIYAyDeWJMpITmLxomnBMnBhNhJ2EKJ2mVRO5RXcDSTGO0ECcxOTzeRKlKCsrs7+ZbjegQagAqe0cbUq4geAIBZqA2FmzAkIJeW1XRVNNCKLSW9oiIgGNEmaugDsfe4nXZiymho40yE5URzmaKUMFZQgZEghBTijyJJQRkxOaSHagKexKna5g4apqCtrUh3TaAtYyZU/rTNpeR1CPZ+vwlvp2RNsg3Zf0XTZ7EiRKa3JJM3WzprH02acoX7EYLUxHta1FaUWSJGilCYIgXft781zw2jQMiACRmLWog1xAda4MOWgIB37lEijviLKL0GBvy92rKbLMp9KM1XL7LrbbaAo8DRSAegUb6qCmtonmYhGtzRrlAuNxsGUkaE0ooaqygm6dc3QshwrrDPZsBUobV7tUaGlczGZ8uKl0OpdxDkwfBhHbtuGc2aM1gRBodPpbzZ4zmy984QtMmzaNQLbvIHfzIWDnS5A6dRCkU8NrIrPUS2I6bCoNUirjYxBuwtYtR9uOb2/PXceD/xjHtPnLaQo70ygrKZJDhGUIFSNVTKgjM4zN5l+NIBEBRVkGMiSf1NO3IubmH53P4I6Qk+b9b7k983Ts4qwEOjI3KmwThsezjXhR3844odsY83IDZhyriiEumjWtrdBtC+88+yx33nknNz9wP+TLSndvAlv8aHfltse7cOPk8iDzIFvavLM4eTY96Fv2p+5RjRlj7PbatBMkMZKFjfDwy0t56ZXXqWsumjZLIRF2nLAWwnTUt53iQmKkithr8AAuPn8sI3tDp9aX5NlctP0vzXqt86CzJ1sc7KaCpTOTtGaPUEoxf/58zjzzTN57773MnnawmUULMgPIzCpogQZ0wZxd5tK9Qpv3x3SQ3Do0sK5R8/asRSxZsQqCPBEhMab5wVZRTLBT5WZRSFRQRqQlSmk65RVnHbEHPSsSkOb63dvkno/GvGIhth+BCEgSRRAEaUdXM7S0pUJeWhlXyvwibuEobLzsZyFMhVjbtSjcJFfZuO5cWhsjwO2T0lTqS5vvzJoWtqJtj3XpZvdl09dap/fj0i4le79tUSgUKCtrKcvcDJylz2VXx4v6TsqzVtQfeOAB8vl86e520WjiOCYMQwSaRJle+nbSUBtJWDHOFu1O0F06aWx0K1FPTAVGmDQSLSkiURLW1Cr+8sIMHp+wkIISyHwFzcUEhSQQduIcYSoaWlgvh0gIkmYqQ8WpRx3M144fzNCO9sSeT5QtFfW0Hom2k7EmaHIkBIQaUBGIkGZp9kY2O5UFLRWOrUHbtBqd9Wy3OTZHMtLmIOvJ6AHk4mYIy9Ke7ubWNFFUJMyVgYZQWu+IHS7qRNS9g2n6VpCVMqM8SsXPiWmSJOlxWutWwp6Ni60MOLEHWqUZx6ay4UTYCbFLxx2T/e6uKyvu2XO5+3LHZCsCTuTdfWcF21UIwjBs9/49LXhR30nZelFvKSCV0gTWIjcj25R5AdPCxmUdd5S2vlI3fKelkDb73QQhmkSHFJOAYmgK1IWr4G9Pv8LL7y5kPZ3QQZ5EhmgkMsiBTtBJjLHhBDLMkSSKvFQEukhUv54j9hnMj//jKA7oaU/j+UTZUlFPs5Nw8mgkMkaaSqE2Y8OrNSxbC9PnLqWmppY4VoRlFSSlcyhsJhpBpARahORyOZS1WmUQEEdRi+VZeqDFNECYFdwSLeiUU5xz5GB6lMUgAszai2a2OimNvCd2W1QoUFaWN6mUWOOuaHbClhXQrKXrvrs4SimiKCKfz6fHZPdl45cK9aYE0x2LFeTsObM4yz17HkephV56L1lrvXRfe9s8rfGivpOyLaKu7csT2JdHJcpMFesKiMzMt5kjrKnVnqi7bm/mayzyxLYtc/YyeOyf45j63nwKsoxCUEYxgRiJkIHpm6cTQmk6bsWJAmk67gXEhCTkdIGRew7gu+cczT69fKv6jsBWiXqasZyohyYf2P01Gl6b3cgf/vow65s0YVkFxTghUaZ3/tYWZlKGxvujFEkcI4OAMAhJkhgpA+ONaidxgUJEzZQFkCSKLrmYO37+NYZ2FSTO5a3NxEkCDTKgmGBGCtjRbroNQVUZV3Z7Yua2O0F2n4MgMPeSJKaiUpK+E2dtrXBnkbtzaa0JwzDd764jS1bQ4zhOKwillRCsWAu7xoWz1rMVimKxiBAitcaVUsZbmEnfeSAKhUJaprl79bTgRX0nZWtF3YhzYjtMBVaPEwhyKC1IFAQ5U7hoZ1Sl9rNqcbRnhriZ/VjRN0Ta9Ff+YH3MK5PeZc6iFTSrHKgIKTXaThHqLJhQaoRKbMFtzqZFgI4LhCRU5gUDenTkjGMOYUC3Dpkzez4ptljUW2HndxeSJNMBbs46uPu5txk3ZQ4bVDmxkOggRMcReTeufitQCBJtrGIpBErptNeLsMskpzMZliC0Jic0IQqVFOlbCX/6wTns2dnkeSHsjI6uZiIkioDG5piK8tCcw4as2GbFyhXTTrjd5+z39uK6705ss/tKced3Yqqt6zubVtbFL63FjhVeJ9ausuHOGUURkfV6lJeXp8fGcUyhUEAIQUVFBcVikTiOzYgJe84gCEiShMbGRnK5XHq8p228qO+kbJuox6bwceNxhASRoyCM7WT3pkWcK0qzf7P73Tbh+mDZYWjKrPtB0Y6Rdu2R0n7OHl9aF1c2CLsvB+SBSsC/8jsG2yTqGtPSLUBjOqtpBNNXKW598i1em7GUxnwXIiFIBOQEiDhqMfS3FDu3gxOiJEnQVnhUYpqNspZnKQLM7HGqyMBOklu//zmGdzV5WajYKrZtfpLGv+QuVtrjE2uNOkHMdixz585avFjRzQpwdpsTVPfXWbUuXtZ6z1rnpcL+wgsvsHTpUk444QQWLVrEP//5T0499VSOPfbY9Lis1R1FUav2cCEEv/71r7nxxhv5/ve/z9e+9jW6du2KUoply5ZxwgknMHLkSP7whz9w7bXXmg6+N9/MeeedRz6fR2vNwoULGTlyJJ/73Oe4++67N7o/TwsbV9U8HieVIgSZJ9GSRqAamLseXp/TxKuzC4yfXeTl2UVemhPz0pyIcXOKvDS7kZdm1/HS7AZemt3MS7OLjJsVM25WwkuzFP+aUWTcjCZem11gwqxmJsxsYvKsZt6ZVeCdWQXenBXz2ix4cy5Mmg8T34cJs+H1mQlvzVFMmqOZOMfsnzgPJs0zf9+YVWT6EkXDtg1X9nxiaFtNy1bmTPFkBoDFaBURSkF5vtyKrVnMR6rEWMK2O+dWBaWQKkZHBZJiM0LF5FDkUIRCm9XdddJmkFqhkIh8BWF5JbEWEEBsJ5NLZ5OTbh0DI6jVNbU01DdSXV1DTXVNetdaa2pra6mvr6e6upq6ujoKhQLYjmulIqaUolAoUFtbS21tLXV1ddTV1dHU1ERdXR21tbU0NzenlZX6+npqamqor6+nWCyircVfLBapq6ujvr6e2tpaGhoaKBaLzJkzh/nz59Pc3EyxWERKSXNzM+vWrWPDhg3EcYzWmrq6OtavX09dXR01NTVUV1fT2NhIsVikrKyMAQMG8Pzzz7NmzZq04vLkk0/SoUOH1CtRVlbGwIEDeeyxx2hqagJbubjvvvvo0qUL5eXlqaA7y9/TGm+p76RstaWuraUuAyIlkdIMIavDiPndjzzFynUbiAiItXGFa9sTHjRSKwKhNio0BSAQCJWYlbB0gkpigkBiHJ0ghBnWpmQOLSRRogkEhIGEuGDGCgem41GsJUoEZmK7JCJHwoF7DuB75x3DPr224H49240ts9Sd78UOIdMYeReuL4axpKevgtv/OY2X31lAY9gZAki0mWnOzaS+5dh8K01nNgApTXt46kbehPtdI1AyR6Ih0EX6VkT8+YefY+9OLaM+VBIhpQA7ouSd6bM4/4IvccjIEZSX5VmxYgWXX345xx13HIsXL+Z//ud/qKmpYeXKlfTv35+bbrqJ/v37t2pLdtZ6Q0MDTz/9NDfeeCPDhg1j3bp1lJWVcdhhhzF58mQaGxsZO3Ys3/zmN5k7dy533nknkyZNIp/Pc+SRR3LhhReybt06HnjgAZYuXYpSiqamJsaOHcu+++7Ln/70J6ZPn84FF1zA4MGDeemll1i1ahV1dXUUi0W+8Y1vcNJJJ3H11Vczbty41NIHOOaYY/jhD3/IQw89xJo1a/jXv/7FzTffzJgxY9Bac+6559KtWzdyuRxXX3011113HVprnnjiCV588UV233134jjmyCOP5NBDD0UIwc0335x6B7ylvjHeUt+FcfW57F+lFcjArHsljY2kBazZAE+Ne4PF6wvUio7Uy840hF2pD7tRH3ajLuhGXdCd2rAHG2QvamVPNsjubAi6Uht0piboTHXYkepcZ9aHnakOu1Fb1ovqsCc1YW9qgr5Uyz7UBj2ok52oE51oCrvREHShTlfREHShKexKg+xMg+hEU9CVRtmFetmZxlxXGoLONMiOxGxa0LP36gKZtkSH+661GeKXPaYttHVvur9umwtuX2nctoKL09zcTENDA1EUUSgU2LBhQ2q9JEmStnWWpp393NDQwKpVq6itrW0VL0kS1q5dy7p164jjmLq6OpYvX059fT1JkqT3EMcxq1atorq6eqNn1Bbumsi4b10b64eiTWdLbadsVQq0diPWzT/n5g0kSJ0gVUQZEYGK7Jj1rQtgKq/OzZ8oAImUZnkl07ruJLqNoDMWvZ3SAVqaoUSQI1Zm/gYpTQe05cuW8tOf/Jg7bvsTP/rRD/nOd75DU1MTr7/+Ovvvvz+PPPIITz75JN26deORRx5JrVndhsu9qakJpRS//OUvue666ygrK2Pt2rU88MADXHrppUyYMIF3332Xp556iiiKeOaZZ7jjjjtobGzkrrvuIkkS1q9fz0EHHcRDDz3EN77xDebPn48QghNOOIEvfvGLnH/++fTt25d169bx2c9+lueee46LL76YKVOm8MEHH3DVVVfx8ssv88orr/Dyyy8zfvx4rrvuurQyUllZyejRo5k6dSo1NTVMnjyZAQMG0LNnz7QNPQgCunTpwlFHHcXzzz9PsVjk1VdfZb/99qNnz55EkXHFuXzu3k1PC17Ud0FcAZvYtkKynVyEXfpVt9glQkOcQH1R06QCIllGJPJEIm96sYtcJpRTFB0oinIiWU4syohFjkSGxCIkliGRyFGUeYqinIKooFl0oCA70Cw7EIlyEnKZdO15cOcqIxYl57f7EpFDfUilPVurzxYIzupx210nHteuSaY9U2WG9jihLBQKaRoiM7bWnU/YMbpOjLNtkG6/+x7HMUopJk+ezJ///GcWLlzIu+++y29/+1tefPFFtLVSXBrZ9lWXlvt7//33M2bMGK655hpWrVqVxlu5ciWf//zn+fKXv8yCBQv44x//yGGHHcbNN99MbW1tmsaiRYsYNWoUl112GTU1LS7itnDPqrTgVe303G6FNivtGfm23TmkILZTxCpCEDkSLSgmxt2NNK5oCQRSuAWDtyLYSlCpS34zAwiE1qaSoRVSK+uZsrdmgwxyFOMEbX+zwYMHM3jQQBBw2CGHsmrVKtatW8epp57KgQceyH333ccNN9zArFmzaGxsTNu+zeMyz9Xlx3w+z+DBg9ltt93I5/MMGDCAoUOHEoYh5eXl5HI5lixZQm1tLaNHj6Zjx44MGTKEffbZh5UrV7J27Vp69erF7rvvThAEdOvWjaqqqjRfZ9vi99prL4YNG0Z5eTkDBgygvLyc2tparr76ak477TROOukkzjjjDE477TR+/vOfs3z58rSyd8oppzB16lTWrFnDP//5Tz7zmc/QuXPnVnkliiL+67/+i6effprGxkYeffRRzj333PQdwr6vcRyTy/mRLqV8yJvm2RlxBazrweoEHUAp00VNCGObBJhOSChlC6SgpSAzTlHMfHCmfRGtzPKtwhV0ti1SJeRUTKgUgVbIjMWrhUDZYIbL2TXgN8ItBWdFK1NwQvtDjrIUi0VWrlzJ6tWrqa6uZsWKFTQ1NaWCu3btWtasWcOyZctYs2YNZCo/rmBzgurEfPny5dTV1bFixQpWrlxJXV0dK1euZM2aNWzYsAFh2zIbGhpYuXIlK1euTC3kOI6prq5m5cqVLF++PE2rWCyycOFCZs2aRU1NDUmSpHFXrFjB0qVLqa6uTrctXbqUxYsXs2TJEhYvXsyKFStobm4mCAL69evH5MmTWbBgAVixf/bZZ2lqaqKqqioViv79+/PGG29QXV2dFrJPPfUUnTp1Sis2m8KJjosb245fWUHYNJokKlBb10CUmDZpEQQkBCRIColZF0HkKigq4/LWIiQxGa4lr21hkNr8vkrIrQraOuclKiPsrfOn0ibkcnni2DYnKFOpAEVjYwPNzc0kScL111/P9ddfT9euXTn77LMZPXp0+hsJ25bs8qDbpjPWexAE5HK59Lm7CqPb39TUlOanYrGYVrrKy01fhWx8bdvaXUUNW37kcjl0ZrKZ8vJyfvOb3zB58mTeffdd3nzzTSZPnszNN9/MoEGD0usaMWIENTU1vP3220yfPp0RI0bQtWvXdEhbWVkZUkoOP/xw1qxZwzvvvMPUqVM58sgjCYKAqqoqsO9kdnIeTwte1HdRXKGNfUlTwQpcu2TraV4RkkgH6KCcRIQkIjQrVaXuR1NgaDt3t7Kf7cHmn5YtwY09Ftr0dRcxiMhOy+GcoC1WFG72OpFt2TQ2UOv4m2bWrFl84Qtf4Pvf/z6//OUvueyyy3j22WdRSrF8+XJ+9KMfcdlll3HBBRdw7rnnMmvWrHS8btZC19b19+9//5vPfvazXHnllVx++eV87Wtf489//jM///nPufTSS/ntb39Lc3MzixYt4rrrruNrX/sa3/zmN/nNb37DjBkzWLBgAddddx3f+c53+MlPfsK3v/1tbr75ZqZOncprr73Giy++yBNPPMEHH3xAbW0tf/vb37jooov48pe/zL333svKlSu57bbbOPPMMznnnHM4++yz+eIXv8iVV17JzJkzARg5ciRNTU0sWbKEYrFIc3MzU6ZMYf/996dr165I29N6zJgxzJ8/P21XbWxs5OWXX+awww6jQ4cPHybo8pQT9TAM06YDJyibJElYMH8BN//hZt6Z9g7rqtcRuZ7nQGhHWCqEWXAIQaQAmTed0oTYSHA3J6Srz2lTmdzSYDA5sKWya4MVdyla2uvDMKC5UGTO3Lm8/NLLfLBkCXfedSdHH300ffr0YebMmZx22mmMHj2aXC7H22+/nXZoI1N5cl4it829w06w3TPXtiLat29f+vbty+TJk5k1axYTJ05k9uzZDBkyhG7duqXWNNYD5TxKnTt3plgssmbNGorFIoltnsmez1UC3HFBEKQVXyklYRim208//XTuuusudt99dzp27EixWCSww9acJR4EAZ/73Of4+c9/zkknnZROD9vY2GifoXknPRvjRX0Xxb2ArhB2ImWUWLoFstI54BKgiHGbG7e4cacnIrDLUJr1pY3Vra342k50BGgdosm1BG2tDMyqYJIiAc1IolauUVBW+F2rqknbbTNFvEJo4y34MGs9n8+zcuVKLrnkEm688UZ+8pOf8L//+79UV1fz7rvvMmjQIG677TYeeughevfuzX333Zce6wpOMtZRY2MjtbW1XHHFFdxwww306NGDGTNmcMstt/Czn/2MyZMnM2fOHJ5//nk++OADHn74YW6//XYqKyu55ZZbiKKIpqYmBg8ezJ/+9Ce+//3vs2rVKlasWJG6Mb/yla8waNAgamtrOfzww3n44Yf51re+xfz585kzZw5f/epXefTRR3nooYd46KGHuO+++/j5z3/O8OHDEXb876GHHsqiRYtYvnw506dPp0uXLvTo0SP97YMgoKKigqOPPpqpU6emz2P33Xene/fum2UVZa10Ry6XazX5SXsBjZlzPU64+693c+qpp/DTn/4Pb02ayLrVa9B2jKOwOSFRikRrtAyJlDQzENr8uDVB27y4dUHbCoJ7B8y9G2E3+1GaILOIYC6Xp1+//jzz7LN885vf5J233+H2228nCAK+9a1v8eKLL/Lf//3f/O53v+PII48ksc02IjNpi8uDUkqqqqro3bs32B7kvXr1onPnziilqKyspFevXnTr1o3PfvazDB48mB//+Mf87ne/Y+DAgVx88cVUVFTQs2dPunXrhlKK8vJyevXqRVVVFcOHD2fNmjU8+uijrF+/nj59+lBZWYnWOj2urKwsvTYn5k50lVJ06tSJXr16EQQBxx13HLlcjhNPPJGuXbvStWvX1I3fvXt3evbsiZSSs846i6amJj7/+c8jpaRbt24MGjSoVdqejfG933dSNrf3e/bFk1KiVYKUZmKXoq315TTMWAvfv+sV3l/dRJwZN2wKLmMlm+LWuNONO9TsMyW2s12MbW1KaOcLMIWj+SsQWpgCMu2gZJb1EFqlq3NpGaC0sEONYnK6wIihffnxF0dx4CamiZ0xYwbf+973uPvuu+nTpw9SSoYOHcpjjz1G//79mThxIh988AFLlixh3LhxHHbYYdx0000Ui8W0/U5l5tkeP348V199Na+88gpr167l97//PVVVVfzoRz9ixowZXHHFFXz729/mjTfeoH///lxyySUIIXjhhRe49dZb+c53vsO//vUv+vXrxze/+U1mzJjBI488wvDhwykrK+OVV17hkksuobGxkccff5xDDjmEs846iwkTJvDUU08xatQoFixYwBNPPAG2sgFw4IEH8vWvf50JEyYwd+5cDj74YMaNG8d//ud/MnnyZHr27El9fT3z58/nkksu4amnnkorDffccw+//OUv+fOf/8xnPvMZ5s2bx8KFC7n66qvp1q1bq+fZHs6jsWjRIsaOHcuMGTM2WRBLNIFSrKut4/7HHuOnP/8pTQ119O/dl1NPPoWLLryYwUP2YGnchVufe5sJsz6gVlSCgkAbsWvpIbLlyHabfD4cbVdqE0IQqEYGVETc+YOzGNbJ9hMQgBAkiULKACUEb06awiVfv5h3J080M8sJSbFopnZ1Fq3OuNSjKGLlypXpc82Sz+fp3bs32k7y4jqdkam8u4qAE0T3mUxzXJJpZiJTNrhryG7L/nViXmqlO0s/ey4yZU3pfldRiaIotcTdubP7VWbGOXc+TwveUt8F0Zke09kXqr6+3gy70UWEKpIDs5CGLhCiCDFt5FI7R6OVdm061gmtCbQmlyjyKiG07YsCjRaKRChiqW2AxLajY4U80GYok7bue9fOroQ0HgFrVZm/kkTIljjY9b8/BGU74jTbMbeu/bisrIzbbruNG2+8kY4dO3LOOedwyCGHgH1ebhIMIUQr16JrN3bxXIHlcG3KQRCkY3qjKKK+vh6dcVdnV59SSlEsFsEWuNlC0RVsbns+n+e73/0ur7zyCq+++irjxo3jpZde4qabbmK//fZDSklZWRn77bcfFRUVzJw5k/feey91fTrrz13LQQcdRLFYZObMmcydO5d99tmHDh06tCkmpWTjZIWivLycF198kRdeeGET4V+8+NIrvDlpMlpAhw4VoBXLl33AX+/8M58/43SuvfJnrF62iFAXUVEjoVAIHdlVDpVp097KAGZ52a0NiQiIhXlLVKvpapXxc+mYIAClzAK2VVVVDN59d0QQ2oVcjDiTEVX3PJVS1NfXc8MNN/CrX/2K3/zmN1x99dVcddVV/PrXv+auu+5KXdhlZWWpOLs84/Kqq4w6AXbf29rn8npWVF16bp87xqUhrZvdna9UsN053TmCzJh7l1+01mnlOXud0lYC3PbSSo+nBS/qOyHu5ct+zm5r68Wuqanh0UcfZd7cuTTVN4LWdk3rBLQRTYGwPZQT0zkubVNs3Suo1WsmMh5xgYlrKwPQMpzIbHG9iVu2laTWYuvbU24pYRiyaNEixo8fz7x58/jrX//KQQcdxIABA5g3bx6jRo3ioIMOQgjBlClTaGhoAPv8XGHlyH6mRHCzBWXnzp3ZZ599mD59OlOnTuXNN99k4sSJDB8+nH79+m2URhiahUXKy8uJoojFixfT0NCQVg5cAeuCK9hcQZm9TpVpGx01ahT//Oc/qayspF+/fq0KXGfxCCEYO3YsN998M/vuuy/du3enWCySzywO0h4uTzm01vTt25ezzjqLBx98kEcffbTd8PAjj3Dv/ffz8CMP86/nn6fY1ASJaYvO50KUVixeupT3Zs0iyOUAjYqLhK4PyKYvbbsTaNMB1NDGiyBMv5MgCBEa9t9nL558/G82Uot4OnSmb4IQgi5dunD99dfzpz/9iVtuuYU77riDP//5z/zhD3/gJz/5CeXl5elv6X7/rAUrM25xJ5LuuztGZkZTuLxRisvj2Hcp+92l5f667e6vE2NsxcXFcefJPgO33eV52mhH1/ad9LTGP5GdkGzGd4VsbGd9ysZxL1WSJOmEF587+/Pc+/DjzJ47n8baGtAKHeQwE3BKK+AJAmexOzc6xuYRgiQTWixo446XGgKtkTbY194spmEnDxHadqzLdjrSIGxveqmt/NuKhxN4U0HYNEmS0LNnTyZNmsS1117LtGnTuOaaaygrK+Nb3/oWc+fO5f/+7//43e9+x6mnntrKlemepfsupaRLly7sueeeqaD269ePXr16IYSgsrKSoUOH0qtXL4499liOPPJIrr/+em699Va6devGZZddRnl5Of369aNr165orSkvL6dv37507dqVPfbYg44dO/L888+zdu1a+vTpQ+fOncFaegMGDKBTp07oEpdq9nfu1asXAwcOpKysjFGjRjFo0CDGjBlDnz596NGjR7qvT58+9OvXjyAIOPnkk+nWrRsnnXQSHTt2pG/fvgwYMKCVSLRHtpANbG/lq666igceeID77ruv3XDvffdx7/33c/df/sI3LrqIxg21lOXz9OzZk8NHj+Gb3/4O1//hJk445VSUyCFkDrNqqTJNMZ+gqgs0oY7J6YhAK9uXxOxxSwxDiBY2f9s3KcBUWtqiVOBKBdKRfd5tiWf2WPc9K96bEsXS47LXUHo9bW0rpb39bd1D6efSbe76PRvj29R3QrTWPPPMM/zlL39J29S1dRW7oShZnDv68ssv555776WisorddxvEd75xKaPHjKH3wN1YVOzIT/78KnNXbiAOAAKkCtFCo4TCFG3mJXNW+NZg3PXKdHqyM74LQNo2deHchbbN3bWph7rAyKF9+fEXj9hkm/p7773HJZdcwsMPP0z//v2J7brN2IIi+5ycpT1v3jwiOyWlzCxWEYYhQ4YMSQsX58p21rSLl60EuM+ipKMittKgbFuhq0CUHtNWu2f293T3IGwhG9sx9+4as9flCkh3n9njs5Z7ZOfy3t6FqAYWLFjA9777HaZOncqwvfbmmKOP5stfvoCBA3cjVjBjveTmpyYzYcZCirLSzGooAuPX2Zxa3XYg7eEOKJ3QpzLhzh98lr07gdBm3neNWVVQll7ixrrl8WwTwZVXXnll6UbPp5skSVi+fDmvvvoqu+22G8uWLWPJkiWsWLGCJUuWsHDhQlasWMGiRYvSMc0rVqwgDEPGjx9PfX09a1avYvxLLzHu5Zep6tyFLgP24bX3PqC6sUgiNGCGpiEwvdFTm3rbyinniDersblKQst2Jz5utTYTSyFJ6NutI0ftN4A+lSWJZmhoaOD999/nhBNOoLKyspXYOaHN9vTWWvN///d/vPvuu7z99tu89dZbTJkyhSlTpjB37lyOOOII8vl8epwTfdoQ5PTaMyKcFefsMaXx3WdK0nKCnK0gtBe3dHv22nSmeaE0frYis73QNqxauZJn/vk0Z511Fr/4xS847fTT6Nqlq7mPQLKqHibNW8GKtbXEhCgEMshZi7dUMT8eXM4XgEZTldd87si96FGG6QAqsJLfxrux0QaPZ9vwlvpOiFKK1atX89///d8sW7Zso8JbWGvSjQl11NXVMWv2bJoLRSSacikoq6jg6BPHcvEvbuWWZ2YzZ2UNSSA+tZZ6VrzbEzn33VnxItMjN/sMs8+1rbSzlnqSmSyjVKRdGk6Y3XcXL/vZ0dY1ZOM7z0LWC0EbK2hl94kSy15nOlRmKzrbA42ZnCWJImo3VNOjew8UmI6byri0lZBMXwu3PvMub0xfQH2ST4dTolW6bsrHjbfUPTsSXtR3QrJDQpx1lbW0SkUGoFAo8Mgjj3DJpZdSiGI6VXbgkAMPYK+99+bCS7+J7nMgV97zOvNWbaBA8qkVdddpzOGeUfaZZHu0u8/Z1yQrqO65llq5Lr6L4wTWnSfbPp09zqWb3VYaT2QqAKWehuwxrjnA7cvet9uXje8+Zysz2YpJ6fV81Gh3H9rdW2BsX6UQgRHFd1bDH//5Dm9Mn0+TLocgT6KFHYpZmuLHgxd1z47EJ/QaeLYnTpCyhb/DfXYFtROdtWvXcvPNN5PP5xl95GjOP/98rv/d7/jDrbcyYsSBhCEIAc3NzWlan0aCkvmzXRu1E1qdmYyHks5x7nm67Vkxd8Hty8Zzbnm336Xv0nTC685Tmh72t8xW0LJx3b6s6GaPdfuy28iIeOk5sxWOxM4eVnrs9sTdj9IahEBIsx6BE/3UzS5afhczE6LH4/GivhPiCmFX+JMpwLEFo7TtpMJ2vqqtraW8vJwvfelL/P6G33PzzTez/4gDM8eYdMvLy9Ntn2bc83EVoKyQZXFjh93zc0LuRNpZvE7knTA6IS1N14ljqdCWim6pizx7rLAVgdI4pXFLKwFZEXfnzwa3Lxtcx0qX1vbCCLa91vQ+7UZ7XQIIAmEseG2mXVV2yJ7ejHH0Hs+uwPZ9Uz2fCIGdRzmwPZadeJMRBJ2xyHK5HEOHDuW2227jhht+zwgn5m7FNkBK2+aafPqXOhTWEsy61UsFrlQgs8+PTAe17MIW7pjs59Ln7sSxrfNmhdad023Lkv3uxDeLO9Yd78Tf4T5nr8F9zlZaSuN/HIRBAOn1CGOtA0KaRh2tQWtFohKEtBMBCV+MeTwO/zbspGSXJCy1Fl2BnyWfzzN8+HCkNONoS9F2eu629366yApWexboh4la9pm6z9nn2l66lAh5W7S3L7vdfc4KcOm+TVEaZ1OVh03dy0eFAGOZYz6IzFhqk+Va5zx3bUq53uUejwcv6h6Px+Px7Dx4Ufd4PB6PZyfBi7rH4/F4PDsJXtQ9Ho/H49lJ8KLu8Xg8Hs9Oghd1j8fj8Xh2Evw0sZ5WaBvQLTU+DUxfBz+68zXmrNxAHJjlUQMl7IIVCYqARJh1ruFDJgIRZoCSOY9bGF2Atou2oM2c3tgFY3DTx5qs6sYwC2HOL3VCoCNG7DGAn5x7KAf21Ni1L+353F3pzBrtLfvt4CjzRZfUc9sbLuXeGmHmLAeQwt67Fq3ry/YeBApIIL13iRDSjr02Q7o+ZCTaLoD7rVr/RsqG99fEPPyvt3hrxlyKlKFliFmI1y3x2x7C/P72OZscCErbaWjlhw8DbBcN6IRcEKATRbcKwTXfOovdOoFQiiDNCsLkDY1Zrlhg8onLS5tNJvNltwqFJiKhQEwzBd1ITBGEsDnfxBeYJKQAiSCgghwdCOlAoMtcaiBMjnXvZHqtrfKzsnnd24c7Cl7UPa2wsoRWLa+pFJrp6wQ/umsCs1bWEElBoDWh0gTECGJikSMW5SjMeuvtZyqNEGYMslJuHvaW6VfTokGbQt2VgaSFkRkwL1AEwhSmUmhQigP3GMDPzj2EET1alTy2gIoBbdZ3NytZp0WiOZPZjwrNuc3GtNxM78fVQdwprKibIi9BEtvCr2WeABcPYqBoN0q0CpEixE2iJqSZ5GfXxD3h7K9tJ5yxeTIBNjRq5i5YzAcr15LIEIRZqU2JkISw5QdrA42dVtdWCBGwZvVq5s6dx8BBAxk0cFDpIZuH0GgVkQskMpHkJRw9ag865c1c7yEgRWTzl5mhEFE0l6rzmczVHukkETYz2UzoKiF2dyKLRNSxpn4py9bNo7awjiRoRgmFEva+EQilkdqs5x4Gkg75nvTpuSf98sMoS7rYcyZoIUikTFdCBDOTH+mrFdlfJbTBsyPgRd2zMTZHKG3EPQg009YIfn7P68xYtp4oDEALAm0s5ayoG8s5andRl1aThoCZs1trlFa2yMGWUlZRBda6NmitCYQ0VoJKgIRACoTW7Ld7P376xUMY2TNT8rj0hLLFult4xqTZotuJlQ63RRjhTc9s42knMy0bjeNAoJMEKcxxLtW0UiLcYbGxfISz2gRa21nkMMLucc+3JRc5m9D9SmbG/hafUMvv2DbZ37EldZg2YykPPfQQxx13HCced3Am1pah7bWY6qJJO5U6nSCF8dCgcyayjEy+1i1i2N47Q/aaUyG3MwkKgRYRMU00s4GV6xcz4/3JLPhgJpFsRJQpIhWhMbVGoYVxElhPXCAEZbIbew05hCP2OpEuDLJni9EIEhm2iLrOiLqt95qKqrfUdyT8L+EpQZsiUxvpM2tpKNAKHTcTiBhhi1Tjcg+JRI5Y5IhEDo0k0LQbpAKRKAINeRkg4gSRKHL2OKk0gdIE2gSpIMgEmWiEUkilkXa/jmKE1gR29jFlbLJMSe+E1gRXeWgtBO5TjKKIIiFBGa+Fi6LdfwmoIugi6BihY4RKkDJAE5hlQgElrNfDlMG2PhAidM54BJQCXUSIJhANCJpL5GfXQqd33/LLuE9OKIUyQpmz25xwlgMdNxE6aeikzN/O2c+qho7xeqqi9RsdsyWhyoYKDXkFOR0TUgCKtlnG3I0WkAhQSBTSVFKECYkQ7QZlQ4ImAWJhQiI0MQUaWMX81W8zefZLLFw1jShXTZKroyCq0bkGVNiIDhpRYRNJrokkbCIOmohkI01RLdUbVlHfUG2rSzGQINxkfukvYXE/lM3PXkZ2LPyv4WkbZYTbtPMqymVEZbKBTnE1naO1dI7X0ileSyf7uUu8mm7RCrpEq+kUrWs3dCyuoYuqpquqobKwms7Jerok683+eB2dbejURugYr6Nzsp5O8Xo6xuvprGroojfQMa6mU1xNh6iaQEUtQpoVSC1MG7YW2Sb2THAu83Ik5QhySGRaFTDlsnVduGRdu70QKKGJRRNFuY5muZpmuZomsZpmsYaCDUW5hqJcS1GuJ5LVxEEjOkjQUgJ5kPnWhecuROnPUbrXNZrkZYuQ5zXkMwK/USKlCQpbs9IaYT+3PG37u25VMJZsoJWx1DWEIjC/pTYVPaUDtHVRuwqKRJuKbKb+uanQciPatIULU0FtSuqZt2wm78yczJIVi4hVEdBopRFKggoQtjIpdB6p8whcyCFESBIroigxV2ffFbT1HqXPyOKakwSpB8yz4+Dd754SrHApDQRoEoSIWdOU45k3F7Cmvpk4EKaA0qFVu9i4AXWAAALb7t0eUkoWL1nMB8s+YOgeQ+ndqxdaa1TaUQ5IP9niLC1ZWvaCRgpAKwTQs0slxxw0kL6V5rtE2MLeHlx6TS7NlrKydQmW/ax1ixNYJSDNfO9aKQgkMZrVDYtYWP0uiWxEaecothUjLRA6QOoQkeQIdAVdK3vTo8sAOpb1QOgyJJh+ArsgTh8dmV/e5kkXI9OsIo26uEaTrWHGjBncf//9HHvssYwdO7Z092YhAEQCiTKVM2GUXekE4fpMZL0NgrSPBzqHTkCEG2dPh9lu2sQ1pglK2McQRzGrGt5n6sJ/UVdcQ6SajGtfFCFQaKlQyngGBCGCwPiptH2HNIRJJT07DuSAQZ9hYId97VlNm3osJIFQtiHKro5nPVBB2hDiGh08OwJe1D0luMLT9HRVKkGKiFiW06CNmzBbALvC1wWdaedsC3fcv8bPYNLEiZx66mmM3L/PRumVxi/96xC2OLFXnFpuruVcZkVgo5NkrrS01zvtXIgz1APj9oxpRlFgee1i3p49gUVrZpCIJrROTLOFMFahQCNs036gywh0Bd0qBzFs8MHsu8cRlNEdaa99VySbp2iVD+yebF+G9Hd0v63tZbiJDgk6s/Z8dtv06dN56KGHtknUAVDKXCLSinYmyyjTjKU0CKmAIv+/vTePk6K4//+f1T0ze7MssMt9yn0qIIgKyiVIFDEajSbm+iYmGo1HPBJNTKIfk/hJ8vvEfBJzmY9H4o0XGgEBRRA5RJFDblhWzmVhYZe9Zqa76vdHdfX0zC7IYZIF+rWP2p7q6q6u7q6uV73f9a53KWoBiSCCi0Jgp2uWMiCRnt6ItOOSONQk9nOgYTfSSoDlIiwXRRKF6w1ECY94jYGoIXWdm8AmGs2hOHIGLaVnLCi1Bsm1hDdQ4FkMKD2EIFHYaJsWrTdpeuniEP9+hKQeohEkShtvecIQKq6tjJWN8tpSA0uhpQ6lx+EREaSIHKF50o3drFmzWbp0KZdeeilDh57lp+lmy8heac26DxmQenS6VkcqpZBe4YR3jK+WNVvDrL7lrgocbUZrzVWkd6pWpSptZI+y9aijQx0JDlBWtYbVm5bwSfkGVKQeKRIIJbWtvZDe9bQtglASW2VhudlYyVZ0azuUMSMvp4XoRgTL65Ccfsh8x43evvI0SMHKpy0UvWMsX3vSFDKbOeEt77p69WqeeeaZEyZ1FezJavs181NDgKskwmqg3t3H3spt1MWrQURQSoBIN8psBKUQlpW6D6UvIvCm5QnLq7PKm33iYvvpwqvbApXWeVUgFK6VIJJn0Sm3P63oppVvQuIqgbQFEaG82SGWHk4QEon0JHUZWr83M4SkHqIRFJ5UgWmckghsLc0KtGoOj+DBM5wLzMvKsBpvCrNmzWLJkiUeqQ/1JSijVtcwzXqqIdepWhWZ1uh7MdcjaEP6wjS2XruvWyxNuMHOgzAqRHO80I2jn7fSHRXldQVckaCBSkrLV/HR+oXsPrgZEUvgiLgestCZ+OXS13URQmo1vIxgJQvp1Lo/Y0ddQUurGxEiRIkE7vb0QrDOZL5xMxbuGXl4u5Vnyekdd6QHZ5q5tE4BrF69iqeeeorx48YxcdKkVNoxwXvPwbpmLiP0DiUUDvXUyD2sWPcuOys3cSh+ECl0Z1GbVx4eQaWE0v+8R2G8H+jnZAxblXKxhYUlBHqiiZ7Lb4aiVNCwREUpad2eET0vomv+EI/UBVIJXGF5pO6p2X1J3eSY2cUO8Z9GSOohGiFYIfRnr42UkEITnXBRaKcfGq6mcSU88vr0KvXm7Fm8995ipk69lKHDzFQikWpofASI8Sig56F7Jm4eb/vtuNCqhdQffoPkJQVIHW/c0+ywdKMmBI5KkKCG7XvXs3rLIvbVlCKzDuGIBpRWXejRfGXr4DXZ2jmI499R1C2gXcuejBg0gSK7OzGyiRDzuysh+NT6YFL0+LAnqR4DPl61mqeffppx48Yy/rgl9WBHw5TPK7enqZE4ONSxvXYNr81/hlpRgRONk0AihLaWt9LE/aOHFOBa5jl5lijBPo5vkJJ6dkqYGSKKSKIFnVv24fz+l9KzcESApCO4nl2KwPWntCnPWt/vI4fVtVkhJPUQaTBNQ7Bp8mxisZRO1eSUrmJPbzY+vUrNnjWbxYvf49KpUxk21CP1VCsUOPLYWgyFQik9VmmMnYUFSiSRgXFGbUonzJ0FprlJRECS15IIgSdioZAkiFNRtZuDNXuRkQREHZJuAtvSc+iFrxq2PK2GNjqUQivuBS4RN5sW0Ta0LTyDPKsEcdoq3w0y6415FmZ/45oVrK9BxfLRQHmSuib1ccetftdl0B0KU0tSRKpJ3cUlwSG2VL7PzEXP0RA5gJOV8EhdEHG1Q5jjgU/QgVoKHuEeBkZSV0Ak2YJORb0Z3W9qitSVABHxv32f1L1bC+Xz5ouQ1EOkIdhICk/dmTBmNh6pa2O5dBW7+W1pG7JPxezZc3nvvfeYOnUqw4admZl8AlB6fN8b41OAslwU9dRTxb6qCpIq6Y0t2t5WO68xY99mmo6hEOFNfdIW7NqtK1ggbKQeKUcJC1tEsBytqhS+dbOejKWwPc9eDpbtAHGspE1hrCWt8zoiaOErA05PmEpjtkF6Sk/NrF7BM44Vq1av9SX1iyaOz0w+amj1t9ZY6W6ioTzdOZRAA1Wsr1jInKXTiccO4sYSNOAghI3tWljyWLslGrqeet3U1DQRLy34gFJPT5O6hp0soKNH6r0KR/pqdoSeR58idf0rJPXmjZDUQ6RBNw9GteaCsEh4I862p97U7YaevqbhoCe4eNLuUdSo2bPnsPg9T1IfljKUO2EYYyqvcXMtkNRzMFnGxk8+ZMfeLSRUvecjKzW1R5BECYVreX7EfVIx9+SRvOtgWwJljOiEQCq0bbIVRbi2R+pJv6FVKoIkghKeWYKQIJNEktl0bNWDM3udS1FWF89M7vga9lMDmRUnnTKCxJ6537ytY8VqT/0+dtw4LrpoYmbyUUHTuflu9ACQnfZ9aIcxSQ6xds9bvL38JeL2AZxYnLhyEJZ2rHQ85TfQz8CrYOCP0JuOaWoMPXW0QSRZQMeiPp6kPlJ/7VK7jHONmh3HO8fyNF36l85fd2NCNA+EpB4iDYbU9Rh6EiyLBDYWEAmQugCPOHVzBVEQngvMo8Cbs98MjKkPzUw+fkjPgsibfudaLg7VbChfxJLVb1Ad362dvniKdU3fDkLEkUKRtGK4IqqtCJRWnRtStzw/95ZwkVJ7CrNsC1dqdb5lZ+G6EU+Fn/BkeLSkrqIoYaM8q2shFVluIZ2L+nLh2VMptnsRIYsoWeGY+hFwuOqln5gZKjlKKFizehVPeer3icepfgdB0q9Puk55s8Eh8E25NLB21xwWfPAyddY+3EgcV7gooYxvuYx8jxYCKSyP0D1pmpR9i0Ib6mmktE4GkWQLOhb14fx+l9Gz8Bws5dkHpJF6MnB3ukvrmd4ZPZ6fX4j/LMLuVYjDwJM/0ox3dE9du6Iwyje9z6jqpNn1KUEKqcfmhW5wlGfZozJC5nlHDp4vWuX4i6xIwMHhQM1+6p1aHDuJG3FJ2grHFji2hWPbOLaFsgWWUkRdl6h0iKgkERXHVgm0vsKzapdCu3olC6ViCJGFIIp08cfkdZEshPICwjs/gVAN6K6SiyUlURUlQhY20dOa0I0seTji1oRkdCjmt5EWD3/WkZCiuhODrg0QQxFFj48HjdV0d1hqEre14RzCQVgSIRRSWEi0RudYQ8o1s/JWM9TaAm3XoZ+X5Xmu0+XSqyyaugnKW2AmqTvo/pSRIIT+zr1hq9T0z9Ndu9T8EL6NEI2gGyLpN0UpmtFWvsGm1f/YA7KG9r2ujc0OG4Q2uJNCH63/zJmpq+sSEEg/UvA6IkKamXXeaCYkVALHdnDsJI6VxLEljgVJIXAsgWPpDomtFFGliEqXiHKIkMQm4UnpUk9Ux8K2YggVxXVslIxoz2AK39pZPxk9VU6YEVYlgQQRW2KLJEImPf/1FhGysEJpx0djkg1Svjd90luTQHc8myKiI8MIpI2vdRxwjct048wglXGq1BJXOEjhaKNNbz65ROpvStjHFcBCKK0Ot5BYShO6JnZv6MjrYBiCF6SIHSRKJD1S137fdT0O3mB6L9uYlab2hWguCEk9RBpSn6gFIgbCNjO4fRgZXf/TBmOkZnqnPvgjBOGJ4kLpBsKcI7wpNCakmovGeZggvQXNtdcwwLL9xSgiWMSIYUmBdB3vGIEtJbZ0dVdEKd24SQspLL2IhqUX0Eh1YDxYAiWUbog9AtcjphJLpBpQr3n1OiX6TxfSRilbLxUqBNIKdmNCGASeeGBPIJj56ib4taXpoLyZEE3tE6YH2MR5Rx0yK61ITY23vLkituckyZEKZUd0N9FIzpDRcTn6oEAv9uIv/AIIU+O8QvjQeg3wDEM9o1Ctjbew8BZoSWngddkCERFoDwJa/BOCGQU2W7OK42eF4Chz5oizUirtesG4bi8aHx8MzQ0hqYdoBP2d6ikteOPpViohnWyF8MfTUqSOT9RH84eRHHTsCCEgWnnnSNczz1PC6w7oUrie/j2qbGwsLAXRiO05x9Fq9ojSAwlaotHzyiXCW0UrdakUUhc32gHfBaw3jc1S6RbvyvcUphsJ4VncK2GhLIGydOcgo+twWiL4rptGZo1ogkk/JSgFUiqkVLq+CQspTePc+PijC7pWJF2Ht96ax+YtW3BcR6+J4tUXTeguUTuKQpBUCmlZWFYk9Q0YCfsYA+AP+uialLpuGgK7TEdTa80APKld6Q66OVPfXepXqi4bB0uNrnLcMEQqpZ7m91mRZjDfYH7BeLAz4bpu2vWVUriu65N9MI+g2+HmgpDUQ5xUMB9bMG5CsLetj/MkMXSaKz21bYjTDqaOBKGUwrIsbNtulHY8sCyLGTNe45577uGnP/0pa9etw3W1Jsh1XUAgXRfbjhCJRHAcxyew0x1BUjX4LJ9L8P2bNsTETT0w78KyrLR2xZwT3DZnhKQe4qSD+diCDUDab8+4TwhPVYb+aC0rrO6nMwxxBBttpZRPricCpcC2LMaMGcNHKz7iT3/+M3fddSf3/+xnrF231luBUOC4Lo6jVzWMRqO+JHi6wzx/Q6pm34m+lyDM+w4+byOVBwkcr64Y4s/cb3k++DOl9uaCsJULcdIhSOjmQwWwba+xDioNvbiUWn0W4vSFaaiDErJRt1ZUVFBaWnp8YWsppVu3Ulq6jT69e9O1axeqq6uZN3cef/rzn7nzjjv52U9/yrYd25BSan/sboCsmr/w9y+FIUpD6OY7zSTU44VpI4JaEbMv2IEIph0Jhuybq5AQzlMP8R/B7NmzfY9ywQVdjhaZasutW7dSXFxMixYFSCURwtaqd6WQVi3zNzzLB9vmUCcOIu0EttRjiNrZjB7vFEoFrPqPDwKdh141yxudVDpXRcCwSCiiyRZ0KerLhKFX0z46CBGudPUvgyF089ugoqKCv/zlL6xbt46CgoLAGccGpSASiZCI17Nq9UrWrdtIXUMDSJdoNEJxcTHXfuPzTPvGeby3bhaHrApkJI5t6sZnZXF2HLDcXDq07s4Ffa6gV8H56Bku+DKfAN+pk9Y3GIsTvaiTf8xxwnVdbNv2JV9DlkIIP+1EEHzvQRJPCQN2WkfCHGuIP5hPMA9zzLG2Xf9qhKQe4j+C4yV1Q+aZH9/tt9/O7t27ufzyaVx00UW0KCwCr7FxRDWLt77Mss0zqeUAbkjqpx2CzZxprJU31l1aWsru3btPQNWrX6olLFw3wZ13fp81a9ejsIhGLNq0bsWXvvxlLrp0NAVdG5i34mXqIpWoaALhumah9cxM/234T5O68qRoI6VblsX69et58sknuffee8nLy8s85Zhg2ggpJfv27eOJJ55gyZIlxGIxXNeldevWTJw4kQkTJpCTk8N7773H7373OyzP3iInJ4fBgwdz8cUX06tXr7ROAIGOQHNBSOoh/iM4XlJvqketlOLnP/85f/nLX2jZspB+/frx+Su+wOTJUygsyMMVNby9/hk+2v4WtaoyJPXTEJnNXKYUdrT174hQsHjxu3zta19j5+49FLVqw5eu/SLjxl7IgAEDKO5YwMpd83h7xSvUxw7gWPVYrlbH/yfnPjQHUsd7B0YyX7JkCXfeeSevv/46hYWFmaccE4LveceOHTzwwAMopbj88stxHIc9e/awbNkyBg4cyLe//W2mT5/OH/7wB+644w5ycnKoqalh+fLluK7Ld77zHXr16gWfVZ35F8D+6U9/+tPMnSFC/CuhlGLTpk3s2LGDPn360KFDh0ZkfTgEG2PzWwhB9+7defPNN1mxYgUbN21k7doNLFq0COm6tO/chr21W9hzcCtJGlCWi+XNj1dmHM1vVk+U1L3/fr7B/ek7bJlFYU4berQfSIHd1puSd3Qw952JzOcYtD0gYBhk9mXaJgQ7S039Nnkcbjwx8zyaeKeHO8bsN9oYFRgHzSzDsUIEjKFMPpnxE4UC/uu/7qe0dCtf/do3uPWWW7nkks8xePAgWrRoASJJeU0ppXvWk7QaUJajfRvACdW5E4VQUQpyi+jWpj+ts7r4dTe9ZPo9SRSWUFTs3csTT/ydl195jaVLljBr1kxc16Vdu3YopXj55Zd54oknmD59OnPmzKFVq1aUlJT4Y+cGwff/z3/+k9/97nfMmTOHrVu3smnTJq677jqklPz+97/nhRdeYPr06bz99tsMGTKEZcuW8de//pUJEyaglKKsrIwf/OAHDBgwgO9+97s899xzvPTSS7zwwgu88cYbKKXo0KEDixcvpk+fPlx33XX06dOHXr160dDQwMyZMxk0aBAVFRWUlZXxwx/+kP79+9OzZ09ycnJYsWIFDQ0NnH322X75P6u681kilNRD/NuhlOKDDz7gD3/4Axs2bNAN3jHAVNmgGszkuW//PlBg2VFsO8KAfn256fZv0GaAw8Z9i6kTB09qST2TBA3ZGTLEs+7OtOoNEmTwfHO8STPnmcY303YheJ4KWAIH95vjzX68zkXQCEpK2WisVHnqcFOeSCSSlnewHM0SCmbNeoPs7Cx69+lHSbv22BZI18G2bZIcYtWet5j34UvURSpx7QYigHJls1a/I/Xsd4V2bGMJxfZt2/jBPT+mfYfOXH75ZVTsLWfevHl86UtfIhaL8dprrzFw4EDatm3Liy++SLt27fjKV75C27Zt/Xpg6g/A+vXruffee7nqqqvo3LkzTz31FEuXLmXevHksXbqUGTNmcO2115JMJvnjH//I2LFjmTRpEhdffDFvvvkm7dq149FHH2Xt2rX8/Oc/Z/ny5cFbxLZtunTpQiQS4ec//zn9+vXj5ptvBq++Ll++nF//+td84QtfoL6+nueff56nn37aV/3v3buXRx55hIMHD/Lwww9DoMN8uA7ufwohqYf4t8JUt5qaGrZs2cLevXvTSOjTPhBDMiZIz+BFCMEPfvADPlzxIRHbJhrLxrajXHXlFXz3tq+zz1rN6t0LqJH7T2pSJ0CWpmEMPovM35kNT+bnbo4x6WVlZfzlL3/hhhtuoHPnzqjAeKc53pCvmd+dTCaJRqMAOI5DJBJBetORIhF9T/X19fzv//4vb731ln9eYWEhF154IVdddRU5OTl8/PHH/OAHP0ApRSQSITc3l4EDBzJlyhRGjBgRKHXzRUN9HbGsKIiIfhcopNIq9pOV1IVS4LqesyQLC8UnZdv4rwd/yegxY/nCF67ASSa48cYbGT9+PBMnTqS0tJTy8nKqqqqYMWMGrVu35p577qFr165p37ipj4899hiLFi3igQceoEOHDsyYMYNf/OIXzJ49m7q6OlasWEEymaS8vJy//vWvnHfeefzqV7/ihhtu4KyzzuLaa6/lyiuv5P7776dz587cddddJBIJv00pLCzk4osvZuTIkTz00EN0796dW2+91a//a9as4eGHH2bixIkkk0lefPFFn9SVUuzfv58//elPVFRU8Nvf/tb/Dgh0YpsL/nM1KcRpjfz8fIYMGcKECRMYP348F110kW+sMn78+MOGiRMnMm7cOD8+YcIEJkyYQCKRoKGhgezsLHJzc7nmmmt49pln+fF9P2bAgAFYnnXtyQxDsASsd41Um0noeI2N5c3PD3YArAwVqIkrpaiqqmLVqlXU1tb61zHp5pzgNtM6OUj+tm3jevOyk8kkZWVllJSUcPfdd3Pbbbdx+eWXs3TpUu6//36EEFRWVlJWVsbtt9/O3XffzTe+8Q0sy+L3v/89H330kX+N5gjHkSgF2dl6lT0htP2bAqxm1ugfOwRYqc6uUrqjmpOTS0FBAbFYjLy8PCzLIh6Ps2bNGl544QXWrVtHbm4u/fr18+tKsC4GtUn79u2jRYsWZGdnI4SgY8eOZGVl4TgO7777Ln//+9/ZuXMnrVu3ZtCgQViWRSQS4brrruPxxx/n/fffJz8/n6FDh9KmTRtuuukmvv/973P77bdz2223cf311zN8+HBc102r0+YbqqmpYe/evbRt29avzyZdKcXBgwc5ePAgrVq1Sqv/we+ouSAk9RD/VmR+BEGykQEXjYcLBNTFpqeslOK5556jvHwPX/7Sl3j6maf50Y9+xMSLJtKlcxcilvbg1fw+v2OD8Ijv0Ucf5dZbb+WnP/0p3//+93nmmWc4cOAAiUSCl156ie9///t84xvf4Ktf/SqzZ88mHo/7z888t2AnYM6cOdx4441cf/31PP300xw6dAjLsqirq+OPf/wjN9xwA9deey3XX38969at46233uKuu+6itrYWy7KorKzk85//PBUVFVx22WVceumlXHLJJUydOpUrr7ySJ5980u9c9OjRg9GjRzN27FimTJnCNddcw3vvvcfy5cuxLIv8/HzGjBnD6NGjGT9+PJdddhmFhYW89NJLmY+jWcG2LYRvs4BHgKn6edJDCESA2BGCvXvLWbd+PVUHq1ixYgW1tbW0a9fOf5cTJkxg7Nix1NXV4XpuVvWput4FPfkNGzaMlStXUllZieu6zJ8/n3g8jm3bvPbaa3Tv3p2pU6dy3nnnsX37dl8KP/PMM8nPz+fhhx/myiuvJBaLkZuby3nnnce5557LqFGjGDVqFEOHDqVLly5YnkW76QhLKVm3bh3PPvss7dq148wzz4RAuwRw4MAB3nzzTbZv3855553nt1PNVUgIST3EvxXmYzEflJHsTI/ZxD8NweMsy2LatGk888wz/Pi++5g4YSJdu3X1GwxBSkpIGQGdnEgmk6xevZr6+no+97nPMXnyZFasWME777zDxo0b2bx5M6NGjeKWW26hZ8+eLFiwgG3btvkNqZFQzLPZuHEjTzzxBOeccw7f+c53UEqRSCRwXZd3332XXbt28aUvfYk77rgDIQQvvvgiZ5xxBnPmzGHLli0opXj22WcpKSmhRYsW3HPPPdx333385Cc/4b777uOee+5h/PjxqAzJzLIscnNz6dWrF506dWLDhg3+PZrGNBaL0a1bN/r06cO6dev89OYIU2bb1hbhjuP4TpDMsz5pIQBptESmg6LIzs5m4YKFfP/73+dXv/oVY8aMYfjw4YwYMYIDBw7w+9//njvvvJPy8nL2799PPB5PzzZgKzFixAgmT57Mvffeyze/+U02b97sk+aECRNYtmwZP/vZz/jhD39ImzZtKCsrAyAvL4+rr76arVu3cskll/jtQrDTivde8Dpd+/bt409/+hMTJ05kypQp3HvvveTn53PbbbeRl5eHlJJly5YxZcoUJk2axNe+9jU+/PBDrrrqKkaOHJn2HTVHhGPqIf7tMKRuiNx83BylSsscaxoEIQRVVVXk5OYQ88Z2tcMugS3AFTW8u2U6y7bMou4knqeulKK8vJzf//73tG7dmptuugnHcXjggQdo2bIlX/3qV9m+fTu7du1iz549zJs3j1gsxm233cZZZ52V9rwMnnzySZYtW8YNN9xA3759WbhwIQ899BC//e1vKS4uZvXq1ezfv5+dO3fywgsvMGTIEB588EHuu+8+2rRpw+2338748eP57//+bwYOHMhXvvIV4vG430ETQnDZZZdx7bXXcs8999CyZUvuv/9+v5O1fft27r33XsaMGUOvXr244447mD9/vj+WWVNTwzPPPMObb77Jiy++mPY8mhOU0h2uWFSvcCaVafTVSW8oJ9DGcgiBi8JCUbatlIf++zcMHHQWY8achyWgpKSEVq1aEY/H2bFjB4lEAoDs7GyklLRr185X05tv38B1XQ4cOMCePXsQQhCLxYjH4/Tt25dDhw6xY8cO/QyTSVq0aEE8Hqd37944jsOPf/xjotEoDzzwgF+3TRtj6rtpY+LxONu3b+fAgQP+9bOysmjZsiXt27fHsiz2799PaWmpX85IJEKLFi1o27Yt+fn5vtbBnB+8j+aA5lWaEKc8lCep27btq98yw5EQ7IMGP+AWLVoQiURwpdTjmJbAskyLZOHKoFpUT2DTBGumsikv+Icce/BOFngrbnnrfvtJ5rrmIkqA0oU8mp61CBi15eTkEIlEyM7OxrIs6uvrWb16NU8//TRLly6lsLCQwYMH06JFC79xM42PCqw6VV9fTywWIycnB9u2KS4u9n2SL1iwgL/+9a+UlpbStWtXf0wS4Bvf+AYzZszgnXfeoaCggLPOOouCggL+67/+i1/96lc89NBD/PznP+cXv/gFl1xyCWR4ATTvsb6+nk8++YTu3bs3GnqxLIva2lrKy8vp0KGD/xyaI3Tjb4PQ1u5C4LmCFVhWJO39Bt0YKxRKHM3b/9dBr7mOrv9CefUxSA3Sm8ymEMLygsB1JSUlxQwcMIB+/frRpk0bbNv2NTADBw5kwIAB9OjRg169evHUU09x2223cfPNN3Prrbdy0003cdNNN/G9732PXbt2UVhYyAAvr549e9K/f38ikQgtW7ZkwIAB9O3bl8GDB9OlSxd69+5NTU0NkyZNYseOHXzrW9/yiRvvWwl2LJXXoc3KyqJHjx6cffbZDBs2jKFDhzJw4EA6derkt0etW7f204cPH86ZZ57JGWec4Xc0rcAiQJ/WXv0nEJJ6iH8rguQS/CiO9gMJNvqNg4WwbI+mXQRJj6o1Sekm1EJhe+tOa+IVOB4JK4Qw5H48QYCKIJStV1NXLrZeNVs3lMLMi9dLXAoVQSi9frVuNj8dQggOHjzIhg0bqKioYO3atezZs4cOHTqwadMmkskkkyZNYvz48SSTSSorK1EBzYhRaZp3MHjwYDZv3szOnTt9o6SDBw8CMG/ePLp3787ll1/OOeecw/bt24nH4yil6Nu3L126dOHBBx9k2rRpfidj8ODBDBkyxA+DBw+mQ4cO/ns3ja7lSel//vOfKSoqYtiwYX66OaampoZ58+axePFiLr74Yv8ZNEdYlsKyFOBg2RKBi20Jjyx1LXM9LQ5KYCuBUC5SuChLAdIn16aCBVh4+UlFxLKxEFhNHHusIaIUWV4nNEkSR18CiUTQACTBckH4Awq079CFH//4R1w0YSxCpIwtDTK/ayEEl19+Obfeeiu33XabvzW/S0pKtN1LRqfO5GHyN78tyyIvL4///d//5cEHH6Rz585p1z3c76byCl7zcPvMuU2F5oZQ/R7ilIIZ9bNJAi6KbBxc3tn4GB+VvUmNqsWxXQQuAomlvHWp0Z+BElqaPi4YosZFiIRuqAGJjSTidyQsJbCURSzRgi5F/Rl79hWURPtiE0GbWzUNKSW7d+/m17/+NR988AFdunShqqqKMWPGcPXVV7Nnzx4effRR9u7dS1ZWFpZl0dDQwC233MKFF16YJsUYqTkej/Pkk08yZ84chDfNbP369f6c3//7v/8jNzcX4a0qtm/fPp5++mmKior4+9//zoMPPsg777xDcXGx3wg3hZqaGm666Sbmzp1Lu3btsG2b/Px8Bg0axNe//nX69+/PO++8w+c//3l69OhBLBYjOzubzp07c+mllzJ16lRyc3Mzs21mkJoAkUAEVBSUVsi4QpKkinV7F/L2spdosCpwovWoiF7b3ZYRxBH8v/uttCdxYlYgVEZ6zjjhGBCNZ9O5sCsjBk2jc9EobPKwFQihENSgsBDYQLb+uHT31funO6xeJEQzQEjqIU4pGJnZQoJygBhJ4bBg4+N8VDabGlWHYzkgUpJRkIqUabWOA7pN1m40tfQPGM0AUZRQKKHH7m0F0WQhXYr6MW64JnWLGBZHXrxi165d/OEPfyAvL49rrrkGpRQtW7aksLAQx3GorKykoaEBpZSvRm/VqlWa/2wzni08tWRNTY1vdWymEXXo0AHHcaioqPA7ALFYDMdxKCkpITs7m5/85CfU19fz4IMP+lLW4SClZM+ePVRXV/v7IpEIBQUFtG7dGtu2qa2t5ZNPPkmT0PLy8igqKiInJ+eInYb/NEwrqh+BR3RK+AocVyRwOMi63YtYsPw1amUFxBIQtXCkQqpMlXc6BJrIBdoK3QxVoNDxE7DEzk0W0L2oN8MHTqFj4VAEMWw9hI4l6j2FroVC26vgU7jRL+n0EM0DIamHOKWgVEBmUEkQURyRYMHGx1lhJHXLBaE8UtfuYlNnGVn/2KGE8lT6CqGkboCVhSKCwkYJF4SDUBIbiCYK6VLUn3HDr6A42heLLKwjGMsZSf2RRx6hQ4cO3HjjjWnpwTFp0JKcEIKnnnqKhQsXkkgksLzxQHPs9773PX/sMkjKhvjdgJMZQ+719fVMmzaN/Px8fvGLX9C7d+8jErqBUf0rz6bClM9AKaWNzWIxP26ap+ZM6BhSVx6pC3RE4dcrJRI4VFO2fzUrNyyizq3EFUmUJUhKiRWJIg/zDIXXwUkmHT1ujyCRiJNIJonYNnY0gm1HjltYjsVzaJvbkQE9R9O+cAAWFrbH1YK4R9h2WqdDa7YMqdshqTcjhKQe4tSCX5tdIKFJnXoWbPw7H5XN9UjdCZC6hcBCKUuL7WjCPx7oUUkbvJF7lCdheWlKOGAlsBTYUhBNFtGl5SDGnn0lxdF+WESxPqVxNNJ4JBKhqEivRBeEIcmgUdqBAwdoaGjw04NWwUVFRWRlZfkEq8kjiW3bPqlbnl+AoHS/ZcsW8vLyKCkpQXkWwp8G00EwTY7JSwTc05rykeEG2BzfXGFKKXABx4tZWgVvjhEOCao5VL8fEQMsgUSr6G1vOOhwUOieg/Tc6+7bt5+nn36a1q1bce2XvgSeUuB4YQmLbFoToRAhNU3rDooTkNRTCEm9+SIk9RCnFFKNqwPEUdia1Dc9zcpt86hRtbiW4zVGYCkt+Wgp5ERJ3UJ6krZWwSuEElqlbxpIkcBSAlvaRBOt6FQ0iLFnf8Ej9cinKN9TVuOGDIMEGSREkxaUdDMJ3ViymzTH0VOvgucHr2XcwQY7ACY/lTFFqSmogMtZI5GrgMvZYB7BY48m7/809JOSCJIeqQtNdipLJypvl6WQ3sQwQ5SW3h2ovUeA0uqAfeXl/OGRR2jXrh3fvuGG45bSASRJEjQgyCaiYrqY6OIo5SCEDVb6DA3dATFarZDUmxPCNxHilIFHyX6z6iBwUDgoXGHjEkOpKKgIYHuropkWV6KE9BpHcZxBecSd1AHHi7t+JwJlo1QUpbKQxJBEcIXAQXqTho4OhpQzidBIs4ZsbW/qoIHjOGmSsCHToJo9COFZA0spiUajafHgMaYDcCSYjoDwjO4MgsMB0rPSD96X2d+coWuApQ3k0DMaQHgm5qkoSuqfSoIrsVyw/FvLrE+poB+v8OazC5Swsewolh01IrU3XfLYA0S1cRxRvWqc+ZCk1Pfkjd2HODkQknqIUxS6JRXYWMSwnXwiySKiiSKiiVbE4ukhmijS23jrRmnHErLiRX6IJYqIxXW+sUQrovE2ROPFxOLFRBNtiCQLiTh52DJqmm7SKbUxDOka0gtK1mZr9gdJ0vw2Y+dGEsaT1M3xjmNUxymtABmqcCNBB4k22HE4Ekw5pedR0Owz5TockTd3Sd3vG2IHgvA6et4hAYMPC7AtS7tUN4+5MZf7wX/v3qGO1FPMFFp4PzHOFVjYejlipeuh7m2YTsThYAoYojkhVL+HOLVgarOp1kqABQ1iP3GqcT2VofCFJyOxmDFDHTsc6uP1/OIXv2DE2SP43OcuQSmJ5Td8upHzaMvfZ/JHuxrxVPMSW0WIkEWWyMciNyDOhTjp4BOzEXPNbkPuBnpYRu+zUp2BY3zte/fu5Y9//CPt27fn+m9fn5l8TAgWQZdNgpJmYMAvXHDGnded8EJYb5sTQlIPcWoh2NaYgNaISmGkUK0o1a1UQNo4inappraWH/zgB5x37rl88ZprUFJhWd6JwevROD8V2KfHJE0D6k1/Eie/b/rTFmnMmN6hyzzMEKI/6+I4WuCKveU88sgf6dChPd/69rczk48J5vK6pMbeRIEKaBwyipm6q/SzQ/zncSTdSogQJx2UUNpDlxEyvCAF2gGMN73MN+5R6IZJ6PHsTwsIC8dxSTquVgYYFSimQVe6UReB8XSPs3UBvfbSm78OUU3mxjVYiJMbCu36V1npom2A/sxYttSWHOl9y6MMitQ0eJP38YYUlKdl8Paa4gsVMIoLHKoIdIxDNBeEpB7ilIJCaZOzgIGSsho1SRktWtNNXFMQwgjTKvA7EyYf3Rgqo4oPHutdTm+sT1H6hzgpkMlvGXUjs6rowRhdY9Pr4NEEnUNqeyIhVaJU3PtwEN6+Rl9QiGaKkNRDnEIwjY8es9YSsyb3YHvrjxv6wTRWer8Z8246uNqvvEjtA4lSnmpfCU9tGQGinjSOP8YuAmURRgiCcFrQSQ3laWSSAQ2NmX+RckkcDLqeBYk1WB+PLqTndSJBV0L93/Km4hkLfnOH5rqZxB7sCIRoDghbkRCnFLR/OEPfylvYxfEbLmO2lmqMPHEeK+AxK5ieHrQJihkpNb+11A5mPrqXDfhSuIbXMGao2TMluBAnI7TMreuEjuugO4HeHDF/lN1CIPSSLAGPhscedG4nGoKwvA5p5v6mCJ3D7Avxn0RI6iFOIQhvCltES8syNWYebP7Msf6Auyfv6OYpYzC+UdDXQBjJWge94AUgtOpfj+EHad803ipd4vLGK400F+JkhPBcAcf0ioCeliY1Z93Yb+jV+cyYu1Ca0vE6lMcW9CJBynPfemLBfBXCk9IDfRJ/k0Hq/s+Q1JsbQlIPcerBb2fSpZFUzPuVIYykE37TQdvNGwullFMQpUAq4z4mvaFrXAL0MWkGSGHjeOrBvO/g+HQGjtM+0nRRM63rjwep2td0XulfgL6ibwMo8M5uLMkffa1u+vxgDuaItKOUq0Oj805vhKQe4tRDWitked7jDJV7CcbKzWtrg6ccC4xTEABLaC91qWv52Qfy9faKTA1A5nzmECcT0qpcUymmvmUeaJIb7/qUEBwTz0w7toBHluARJZ5nRZOolNcxwZu/npqFCULvU66XliLhzJCJ1D7XW1Exs0ucTuqpQQxvj0p6oancT1+EpB7i1IVpdLxg2qimEGzDTgypa2U2nMH0w4cQJyv+vW/vSHR5fEgZkHp5Cj0VFBE0nMs8yvhXMB1VY72SWbMDQ05euZv6LhrdlWfD4keD183YE0IjJPUQIUKEOI0hfCIwhKtVB0ETP0QEJSIoYfvSsqFmFwvHW2fO+NIzRC6UAyrhhaSWyH2VuSFjG0TEtypJJ3QJuFh4PvO9oEB3NkTkcPNKT1uEpB4iRIgQpzlStKiHCVKk3fgY0wnQJOv6JGuOTZemTQhScjoJq8DEumAwqVqt73pmff5ej9TDYatMhKQeIkSIECEyyDd9jzFKE8rFxiWCi1D1IOuwVML3smDO1DK2QAobKaJIEUOJGEpEUcJY7Dcm8jRC9yVwTexaJxCcIGpoPiT1IEJSDxEiRIgQjaTolDSu0t3H+lRvCFVh+Srypqk2k7SDISi/p5cAHTOXVUamb5xHiBRCUg8RIkSIEJpAA+PTwpuToa3bFWChhI2DRRyBK7LAyvZU4FpFDo43dp5AqCQWDhYudoZhXJCMtRcH2Uja9yk+KLEHfE6YPSHSEZJ6iBAhQpzGSJeMU/sEhjUFiAgJLKpc2CehXEG5hHI3QoUbYb8bZb8bZZ8bY5+MUSFj7JVRyt0I5a5NuSvY50KlA4dcSAan0aGnxAmVIna/FGlTP43Unmk5HyKIcOnVECGOAXV1ddxxxx2ce+65fPnLX/b3K6XS5qyfCIKfpJS66bMs3dSdyDVMXiYPKSWWZZ1QniH+MygvL/fXU//2CS69mi7vehK5FzOqbglsOyBZtW0fe2oldVYeNhILF6EcLKQnb1veOLqWvRVCS+LKIZs4EaeO4lyLM3t3paQFZAERlQTpeIZvFgh9XlCST42+m1JZfqfA74CEgJDUQ4Q4NvyrST2TxAmQ/GeRv+u6CCH8oJT2Zx+8Xojmj38HqXtdPxQWCQUrymp4Y9l61u8+RDX5RGyLiAVCJhG4HvV6pO5tFQLbApWMkysSxNw68qljYLd2TDj/bDq3tskBbJXU9O26CDsCwiKedIlEIz5h61Klymps4U/8qzi1EH7JIUI0ExjyNgRrCNcgkUhQW1t73KGuro54PI7jOLiu63dEPovOQoiTGZmyrlFvS211rsAWICJZOCJKXGSRiObRYOVSo7KoJZt6somTRYIoCWWTxMJRAldBwgUVyaJORkhG8znzvAk4Oa2ZuWgFWyokh1yIuxE9qm5ZOE4SUESjEV9LoOnclNPEUivMhUghlNRDhDgG/KsldQMpJUopbNsmmUxSUVHB2rVr2blzZ+ahRw1TxuHDh9OzZ09isViaSj6U1k8efLaSOhnSulePled6Rtk4wmb59gZefm8t6yvi1EWLNMUG1jsQKM+gTjuv8XNUevkZy6knmwQXDB/ABWe3Yc3yrRzYs50xo0bSpV02MQUxAYbK9WI1mtSFP6pupHXvOo06JCFCUg8R4hjwryb1TPW74zisWbOGhx9+mOnTp1NTU5NxxrFBCMHFF1/Mfffdx9ChQ4lGo5+pej/EvwefLanr959pfiaU55Nd6JXmlm2v5ZX31rGxIk6tXYiSSSwUjhXFwfal5vTxb03oOAnybIcst55xIwYw9ux2tLBh6eLVrCvby7nnX0jP9jYtbMgGLOUglQBLE7sKkHpwtD0k9MYIu+YhQjQTBMnVqN4rKyv5xz/+wZNPPnnChJ6dnU0kEmHmzJk88cQTbNu2zdcIGHV8iNMRCnB9slTGMl3Y/rKxDmjDNyuKsKMoK+XJTQiBsCwsIbAF2EJhC7AEWEKAHUFEs4kTo45s9jXYbNkHpVVQ3HsQoqgrL81dTGm5ok56M+KVwrIESO2xLkXdQek8JPSmEJJ6iBDNBGZ8W0qJlBIhBGvXrmXx4sW+BH8iaN++Pf369aNly5Y8+uij/P3vf2fPnj0ARCKRUFI/XaGMK1Zdxwypa2KP4AqBI8CxYiSJUe8KGlyBIyIoT5LWU9IcLJn0g1AuCkXChQai1NsF1GYV89ba3Tz84oc88ORifv38Mt7btI+dhyQrN20nrjx1u2WBcrFEaiQ9E0F9QIgUQlIPEaKZQQiBbdsAVFVVsX///sxD0nC0ZNy6dWtuv/12LrjgAiKRCH/84x959dVXOXjwYCiln9YQmgqUUW8HSNT7IQAlLKQVQQgLW+hOp0QPnlua2VGWxBUSaUmU10mwhY0tIghhk3QljoiSsLKpFznUyBhxkUW9I7AjESx/LN7CdSUIPSUuvYaHdfVICEk9RIhmBGOwZkg2KLWbdHOMbdvYtu3v+zQopejVqxc333wzw4YNo7q6ml/96le89dZb1NfXZx4eopkhU1tj3vnRdMjMcE6TQVgoIigl0K5YfVcv4DmEiaKlcQcQwiVKEsubxiYUWBIUCmWDIxSuJXCFlqVtpYg4LrZ0iAoJUruesSMRXKH9zVmRKLhJIlJfWyGw7KjpTjRh5Z5J9CEMQlIPEeIkgiF08xuvsT8aYnccB4ALL7yQr33ta/Tq1YsdO3bwq1/9itWrV+O6ZuHMEM0RwrO1oAkiz4xnwtSPpgKAEp7KGzwLdlDScw+rPLW8UkilUFJiidRxQuhxd6UiuDJCxI4glItFBCUjSCkQloB4PdkyQU7ERrkS5UospfUCynNSc+QaHOJoEJJ6iBAnCUyjbsg3KMWbRj2zwc4MtbW1VFdXc8kll3DxxRdTWFjI+++/zwcffEBtbW3GFUM0FyhvdkXwPdu2jWVZaZqcw6GRdJ4WwHFckslk4ARvK0BKhZLaQVEkEkEpheM4mqgRSKWwo1kgslAyC5WQnqe4CEJl4SgLZQna5OfQ0oaIdBFKELMi2Krp8fIQx4+Q1EOEOElgGuGm9vkSV6MGOxUqKip47bXX+Nvf/sYzzzxDLBajoKAA27ZD6/dmjiChm20ikfBd/X4aMjt36QHKyspYsGAB27aVkkgk/DVUlFQIS0varuviui7RaFQPEUmtXrdIopLVRJR2Q1NILV1yFG3yICuSIN+qpV2uQ/uWFsMGdqWkIEKu7eC4CZRtEVxEJsSJ49NrQ4gQIZoFTCNMBsFnSnCHC7t37+aRRx7hzjvv5Pbbb+cXv/gFpaWlIaGfBAi+H/Pb2FSYfU2Fo8WyZcu46667eOD+B5g1axZbS7f50riUEiW1IySUdjVs27YZdCcr4lCY69AyO0GrrAYGtcvlsrN7M7RXCS3zk7TOquW8fm0pKUjSqV02Z/XtSIuog7Bc6pG4jcbLQ5wIQlIPEeIkQbChVkrRoUMHRo4cyahRozjnnHMYOXLkEUNxcXGjBVyCpB+i+SLolMgYUgohfJV5ZgfuWN/pkCFD6NOnL8888ww33XQTD/7Xg8ycOZPSraWa3I1xZsTGcRwcx8ESFhFLMKBrGyYMas9FAzowoW87pp1/FiP6FdEqJ0ZRfh5nDuwLMk6vM7qzvXQr3dsX0q5FFtmWNsI7+lKGOBqEHuVChDgG/Ks9yhmY/F5++WXuvvtuNm/enHYNpRTXX3893/rWt8jKyso8vUk8+OCDvPbaazQ0NCC8+fAGv/3tb/nqV79KYWFh2jkhmgcym+m9e/fyt7/9jaqqKq644oq09MzfTdXLtGO8cfGXX5zOI3/4XxJJl0g0i5Li1kyaOIErrvwCw0eew7q6Frz4fhlbd1aQEDGEHSE7FuUbE/pwQVeLGBD1xshdAS8uP8Bba8sYcWYvDlXupnf3HmzZsIHuXTqzbcdeFm+u4KDMRSnIknVcOqQt087tRouIsbaXAc28nj7njeJ7+4ILz4QwCEk9RIhjQF1dHXfeeSejRo06YVJPJpPs2LGDvXv30rt3b4qKivy0TFLftGkTeBKZwa233sqtt95KTk4OIqCCPxzuvvtunn/+eerq6vx95johqTdvBN+tEIKamhpef/113njjDYqKihpNdwvicCRv9gvLQkoo27aVD5e/z959+5EIIpagsCCfSy69lFtuv4Oa1gOYvmwbpbv2kbSyQNjkZkf55rgeXNg1SkwKbK8Yrg0vLq9g9sqtdGxbQM/u7YgqCxwXN94AkWze/Ggbe+N62lpI6p8dQlIPEeIYUFtby5133pkmqStPLX40BkvBz62uro7p06fzt7/9jWnTpnHOOef4Ht8MXnnlFe666y42b94MXoNurnX++edz/vnnE4vFGuXdFN544w1WrlyZZuVsznn44YdDUm/mMEZx5p3V19ezbt06yOjsHc3vNAiL+oYGXpo+nf979C8cqKomN7+APr16MmL4MC659FLOPX8Maw7l8fzS0jRSz8uJ8e1xXbmgq0WWa4O09JroFrz4QTmzVm6lXXE+/Xt3wamPk2VFSDTUY8XymLPqE3bV6jJlh6T+mSEk9RAhjgG1tbXccccdnH/++Vx77bU+yQa3n4bgJ7dw4UJuvfVWtm3bRp8+fbjyyisZOXIkAwYMoGXLlrz88sv84Ac/aFJSz7zep33KQUIgcL5Sit/97nd89atfpUWLFmnnhGgeCL5r13X9d+k4DrFYLO29NlUHTXqTacAHH67goV/8nPlvzaNz126MGDmKSRdNYOwFoylsWYQSNu/ucHh+yVa27z1IghgukJudxdcn9mN0F22gFQWyvKK8vKKcuatLGTrgDGy3npYtWlBbU0tWTgv2VSdZuG4H++ICG8hxQ1L/rBCSeogQx4BDhw5x11130aVLFyZNmkQ0Gk1rZD8NmR2Affv28fzzz/Pkk0/iOA5ZWVkMGjSIK6+8ktGjR1NaWsp9993Hxo0b/TyMRqBr16706NHjqDQEAOvWrWP37t2NVLUhqTd/BKV0U3eC+5oi66OFVIoXpr/Ik48/RveuXbho8sWMuXAshQX5WCiUEChhsfCTJNOXbmN7hUfqCiIRmzGDOtKnXbYeG7csehdl0a4AZqzazZKtuxnW+wwO7t5OvwG9WbdxE116DWDpqh2s2VlJrYpiuy55Tm1I6p8RQlIPEeIYEI/H+fOf/8yqVavo1KkTQggcx/GnFh2pcQ02yEFs2LCBF1980ff4Fo1Gyc/P55prrmHo0KH88pe/ZNOmTY3Ou/766/n2t79Ndna2vy/zmCDuv/9+Xn31Verq6tI6IUqpUP1+EiCzqTak7roukUgkLe1YkHQcPl67jgP793HWkMEUFrUCoV3GKunoSVKWzaKdLi8sLWXb7v0kREyv4iYgx60h5tYiLJtoxGZItxJGDO7Dik8O8tHW3URkkoG9e5AXE7hOgqyi1sxfupG9hxqodxQRYZEbqt8/M4SkHiLEMUApRXV1NW+99RaRSATXddMk7yORKgHSVd64eE1NDXPmzOGZZ54hmUwSjUbp3LkzI0aMYPLkySiluP/++9PU7yaPH/7wh/zwhz8kNze3Uf5N4cYbb+TJJ5/0SV16y64KIfif//kfvva1r4Wk3kxhOoSZ0jpNvPPMJj0z3cA/Tgjt8VVJLKFA2Gi/MhILicICy2LRTsnzS0op3aWt37EigMB2kkRQKMtGoojIQ/Tq3om6ZDa7KmppSNTTpXN7shO1nNmvGytL97Jx+25soR3YuAKyZH1I6p8RQlIPEeIYYZxvmG1Q4j0aVXiwUV6xYgX33nsvixYtol27dpx77rmce+65TJkyhY4dOx5xTH3KlClMmTLFd92ZmZ6Jp556iiVLlpBMJhGBKW0hqTd/KKWQUqbVN/MOj6YzeSQoQCpNkcIjcVeBUFLTphAoy2bRDi2pl+2pJCFiSCVQWAipiFg2rpC4uEREEku4uG4MpWJYlg3SoXV+FnnZUXYfOEhcgi0sLASuglhI6p8ZQlIPEeIYoDzjpGg02sga+WjUoMHPLZFI8Morr/Dzn/+cs846i/POO4/JkyfTqVMn/5jgPPWgZBbsGBwNoeONxRvpnMDxKhxTb/YI1hvTeQy+/097903Bz9OT1AUKlIvCQgkLpIstdLrEYtFOh+eXlPJJ+QGSVhau0k5ilbSxrAiuncRRca+boLCxsZWFrSIoR2FFFEq4uK7jd0S1q1mbLNkQkvpnhJDUQ4Q4BmQSIoGxzaNB8HOLx+N8+OGHbNiwgfHjx9OlS5dGxwRJPQghBO3bt6d9+/b+8quf9imXlZWxb9++NAkdr/whqTdvBIn7RMm8SSiQHh0DWAKEckElARtpRVmyI8kL721ka3kVcTtfU6uwEWg1urRcb2F1nYtyFRYCGxskKEshpbE/0QsT2XYEiUXMqeWywW35vCF15aLMaoR+5yO4CKsmeG93iABCUg8Rohkhs8F+6aWX0kg92Ih/8Ytf5OqrryY7O1tLPZ/SyP/hD39g7ty5xONxyJD4QuczpzE8BlACPLM4bACZANUAIhvXivH+J/W8umQjG8prqbELkAqEsBBCeXlkLLl2FMyihEAKi5hTw+WD23HlqC4U2mCrBMrW/heEknr5V6FAWCSxUUDEK2uIdITPJESIkxBCCM444wwmTJjARRddxKRJk7j44ouZPHnyYUOnTp3SFgAJEUJDr5muVdv+Hu1ERkRARHAA14qi7CgOFkklENEsXMvGVSLQMwiEo4FnYW9b2tpeat4Gy0aitQeapqw0mdwv69Fe5zRCKKmHCNGM8GmSuoFlWUydOpWpU6eSk5Pjn3skPP744yxYsMD3/R68Vqh+P42hJCgXRBRXpAhTKAXKQVpR6oHlO+HVxRvYsKeG+mgLJAJXSaLSIYKbmetRQyLJpYFLBrTl8lHdKIqBrRSOp3WKGi0AEgQ4HsFHzO7DK6dOS4SkHiJEM8KnkXpQvd6iRQuKioqwbbuRQ5mmUFlZyaFDh3zyD3764Tz10xjKDZB6aqzaAlAOrohQD6wphxmL1rFuZyUNkQIcVyIsCyGOzvFSUxAoBAlynBouGdyFaef1oDCqh+al0JwdQWveNakrXAQCgaU8Rj/CkNPpiFD9HiLESYqqqiq2bdvGli1b2LZtG9u2baO0tPSwoaqqqhH5C2861PE2yiFOEQhlmDNDe64N0wTQqhA6FBdREFXEnBpyVD3Zsh5bptYSOHZIIjJJlAQ2LmZ4XpltsCwed2tNgkkJmveFIJTUQ4RoXjgWSd0cj6eOJ7Du9uFgzjfnmfj/9//9f3z9618PJfXTEcobvRZaiZ6S1LX6HRElAdQAWyvg4y072bGvimQioa3eha2nwB0HlACJIosk53Rvy3kDOpIb0dKmKzRlpwziNIkbwtJ9ECOph9K6QUjqIUI0IxwrqQfPMb+PhOD5wWN/97vf8ZWvfCUk9dMSSovGwvJJXeBNacMBZaGUIG5HiAOH4lBVo3CSCZBmLP3I9e5wcIVFvRVDYNExW9ChwJujLpQ2xtMLvqUM45AolP6tvL1NfBOnM0JSDxGiGcJ8ljNmzODuu+9mw4YNmYccFzJJ3XQgHnnkEb785S9TUFCQdnyI0wdGmd2Y1AEspBXFCSi8jWx+IgQiAT3BEnLNCm/KBaGQSoBlZ8jgKVIXyqP7kNPTcHw6kxAhQvxLoALzzYUQFBYW0qZNG5+Mzf6mwqfBqOgzj7Usi+LiYn9d9hCnF1QgNAkBCImlksRwycYlB0mWcshSSbKRZMNxhzxD6HiEjgtILEsPAaSkdIyMrrdHUedPR4SkHiJEM4Hy/HsH42eccQZDhw5Nm19+uHC0MMcaKX3gwIH06NEjJPXTFIYag+Spd1jeiLYXhO1RhrcVtnFTk9E1OPpgoYggieJZ4Kd1LY5sBKfILHAIQlIPEaJ5wRCt8dHetm1bLrvsMsaNG5e2xOrxIEj8Rhtw5plncsstt9CjR49GEnyI0wdNEbuWhm0/aApO2Z3rdDPi3Ziwjy5ILBJYJLypdaZE3ji/7+ddw5QvVcYQmQjH1EOEaEaQUqb5khdCUFNTw8qVK1m4cCHl5eWZp6ThSJ9zUIUPUFBQwPDhwxk9ejQtW7YMST2Ej8xalBkPopGEf0yQQFJvVQyUDcJY4+Pl7Gmp/P9m5N/7RoLZhQhJPUSI5oTMxVYMlFLU1tZSXV2dtv94YLQBOTk55OXl+Wr3zGuGON1gpGdN04YYzN6moDxqPZGaI0h4RJ2VkZMnpSsLPEc0+r+x0ddkfyLXPhURknqIEM0MR/okT4R4Tb5mDe4gjtbYLsSpjEz61v7e9K+mcfiaenTQXQcHAEk0zfpeL6yqjzJQSI/Uzdj+4ct2ukJIKU/0vYQIEeIzQiahG6k6GD9emHxUhoW9wYnkHeJUgEfqyvstNLWm9mdShZd+QtVGedPUBE6Axi0/qAza1pbxujsQgZDUG0Ekk8nMNxUixCkPQ3BNEVkwzYxvGxLEk3SPtH568NimcCSSDl47k3yDpBwk5KbuJViGps4z0roQAtd1sSyrUVkMmiqTeSZmf1PPRK+XbTc6Lng/wbzMPlOO4LNv6p4zfwf3GQSvEeLwMIaZtm2hpNQELjSl6mdn6qzZmufc+H0E37EZTsp8/qk6AXgzz1Nrpaek9cY1UjUaUw+RDhGPx1MtTIgQpzGC5GN+B+NBghAeGRrSyjwHr3ELklomMolJN6r6+Mw0AuVoqvEMHpMZP9I5mWULHh88JlgWIQSO4xCJRPzftm0jMp6JCpCpUspPyyyHiQefpTlHnyeJRMzUqcN3LppKD+4z+WYieM3TETLDODP4PI703DKhvFkbweODv5si+KPNO8TRQ9TV1SmEXstW9348tUsYD+OnYFwpvbJUMF2BjguBkhLLtrnle9+jU6dO3HnnnQRywkk6RGNRXMdBWBaWSC14AYJ4Is6qVatYumQJN373uwhAWFr6OXDgAAsWLCAWizF58uRUObzrGli2jZLSW/1K71fecQLYvHkzL7/yChvWr/caZIVlCSzLYvTo0Xzuc5+juLgYELiug2VZ1NTUMH/+fAYOGkT37t1Bpd+32S545x127drFpEmTaNWqtb6+Vz5TXmFZOMkkkUhUPz+l9N0LCyldv/xBcnBdl48++ogDBw4w8aKLkK6LsCykmzrev3/LIplMEo3G2LZtG3PmvMmFF15Iz169vOecIgilFIlEgtWrVxOPxzn//PP95x28L5RCCE/iPEL9OB3jCvz3q+ud8J+tUgo7Ejni+Zj6a+qJOd87Ivg+zPdFoP5lfo9N5R/Gjz5uSSlRXk9NKr0N42H8VI0rpZpMNw2YUrBwwULWrl3L3//xD3bu2uUfr7wGyz9eShzHRUlJMukglcR1HHbt3MnChQtRUuK6+jzX1T6yO3ToQIcOHQLX0/mY367UeUgpcV29NaSJUkipaFlUxKhzzuHSSy+lbdu2HDpUTf/+/bn00ksZNGgQsVgM13W983W+u3btYv78+ezetQvpurq8gfIrpZCuy7Zt2/jwww+pravDdR1cV6tiTfmk1OUVQncYzH0ppXAcvVqXk0zqcnv7lVLE43HeffddVq1a5afre9OEYvKQUuE4DiBwpcuBA5V88MEH7Nu3D+m6OI6L67o6X/1IOFRTw4oVK1i5ciVSKlxHl0u6blr5m6oPYTwVV1K/D2nigJS6XjR1vImbdL3f1BNdp1xX4iSTqXfmvW/X5NlEfmH8xOKiqqoqlNTD+Gkbb0pyv+mmm+jYsRMrV65k1KhzuOXWW5Guy8aNG/n73/8OCISAe+65h3feeYf58+eTnZ1NcXExX7jqKpYsXszDD/+OKVMuZs+ePRSXlHDF5z9PQUEB8+bNI5FI+PPCp06dSn19PUuWLGHHjh1MnTqVJUuW8N5775FIJunTuzeTJ0+mbdu2IATKk8qFpyF4cfp0ln/wAZdPu5yzR5zN/v37mfPmm3z88ccoBSNHjmD06NE899zz/OMff+ecc87h5pu/RzweZ968uZSXl1NdXc2QIUO49NJLef3119mwcSPfvfFG2nfogNDdCebPn8+GDRuoqqoikUiQk5PDgAED2LRpEzt27OBzn/sco8eMwXUcXnzxRdauXYvjuHTq3ImvfuUrbNq0ibvuvpuc7GxuueVW+vfvx/PPP8/u3btJJpN069aNL33py+Tn57F27VpeeeUVkh4Z7N27l+uv/zZ9+vRh0aJ3Wbp0KfF4nMLCQiZNmkRNTQ0PPfQQeXl53HzzzfTp04d33nmHtWvXUltXR7u2bZkyZQp9+/XT9/Mp7/9I9eVUjStPM4QnuUtXIgRa6vY0REc638SNZgl/iMVC6JNBCKQrsWzrqPML48cet6RheZ/pdS8ryPxheph+qqW7rosrtfQQTN++fTtvv/02kydP4rrrvsw/nnrKW4dcUVFRwYsvvcTgwYMYO3Ysa9eu5fHHH2fUqFGcf/757N9fyayZM0kmHWpqaujatRvnn38+FXsr+Oc//0lDPM6OHTvYX1lJbW0ts2fPpra2lp07d7Js2TLq6+tZvHgJb86Zw+DBg7nwwgvZsWMHL7zwAtXV1SipF7Mw5VdGva0UoIg3NPDiiy+ydetWzhk1ilGjzuGtt9/mnXfeoX37dnTs2In+/fuTn5/HzJlvEIlGueCCCxgzZgyvv/5PduzYgeM4+jpKAeC6+lplZWW8+uoMBgwYwPgJE5g5axYffPABI0eOZPDgwfzmN79Bui5vzpnD++8vZ/yECYwfP46qgwd57LHHaNOmDT26d6d79x507tyJ999/n3379nHxlCmce+65rFmzhoULF7Br126efvppCgoKGDt2LEWtWrFr126kdNm6dQvvvfceI0aMYMKECSSTDq+8+iqtWrWid+8+dO3alc6dO7Ny5So2b97MyHPOYeyFY9m1azfz33nH0xBoydN13cPUl8x40/Xn1EtXSKk1G/rdG01ISvI+7PmeBkVKFxWQ9PHON/mbOmX2ud71jq58YfrRpluu1C8ltfXUVo32h+lh+qmR7jpOo/2O6+Ikk8yYMYNu3bpzxhlnMGLECBLxBDPfeAMpXZLJpD8ePnz4cJYtW0ZRURHjx0/g3HPP5Zprr/H8tFsUF7dh3LixnH/++QwcOJB169bhOo5vYNa9e3cikSgrVqygtLSUnTt3MnjwYLZs2UxuTi4TJ05kzOjR9OrVm507d1JWVqaJXOoP2JVarWnU0VJKKioq2LJ5M126dGHc2LFceOFY2rVty8aNGz1NQhvOOKMnLVq04Lzzz6db167U1NRQVlbGho0bqKioSI2BS0kykUB6QxZSStq1b8ewYcMYPmwY+Xl5tGvXjgEDBjB69GjWrPmYZDLJKy+/zPLly3n99df55z//ybL332f+/PkUFLSgXbt2dOrUkc6dO9OvXz+GDx9O5f79bN++nZ07d7Jlyxb27NnNqtWrmTp1Kueffz4jzh5BcbFe0KZd+/ZccMEFRCJRtm/fzpYtm9mxfTtZ2dl06tSR9u3b07FjR3r2PIPhw4fjui47d+5k06aN7Nm9m3g8od//EetLZjxze6qm6+fiOElmvPoqd911FwsXLMBxM7+XxuenOkiaqJcuXcoTTzxBWVkZ//3fD7F06VLq6mp1p0rp8xwzPNIov8x45jZMb3p/Kj1dUg9DGE6TYKRRf5/rkkgkeebZZ9lbsZfbbruNe++9l4aGeh577DFc10UIi9atWpGdnY1SUH3oEK3btCEWi2LbNiXFxeTm5iGlpKCggPz8fGzbJi8vj4aGBrScog3BOnfuTM+eZ/Daa6/xySefUFxcTHFJCfF4nLy8XLJzcrBtm/z8PKRUHDp0yBsXDozFexIVCKRS1NTUIKUiLy+PSCRCLBalRYsWNDTEqaur0wI9irq6Ot5+6y0WLlzIvn376dmzFwX5+TiOoxtb7/kA/vi+UtCioMC3UI9GoxQWFiKEIBaLkUgmUEqxe/duxo4dy7Rp05g2bRo3ffcmbvzud5HKjMO7NDQ0sHDhQmbNms3BgwcpLGxJ586dSSYdGhoaiDfEadWqFUIICgryadGikGQyydYtW3jjjTdYv34dBQUF9OhxBtKzQTCdkUQiwZo1a5g1azbbSrfRpk1rOnbsqMd2nSQybfw3MB55mgflkfPOnTtZt24dS5YsYfHixVRXVTU6NjOYuui6ugOwa9cutm4tpa6unuFnn01JSYlfb6QbsIkIagHC8JkFy/UechjCcFoEj6Qcx/HHbB1PElmw4B1qDh3igQce4Mtfvo5rr72WX//612zcuJH3Fi9GShfhz7WG7t26sXrVKqqrq6muruall17mhRde8NItP19z7WCDVlhYSPfu3fnwww9Zs+Zjhg4dSlHLluQXFLB9+3Z2bN9OdXU1W7eWEk/EadOmDTKQlym3lBJh6THRoqJWCEuwZetW9u3bz/7KStatW09eXh6FhYX+Pe/atZsPPviAPn36cOGFF5Cfn+fn56tGA2VNeoZtoEnZ7DfPwnEc8M4bMmQI69atpV/ffgwZciarVq3koxUrcB1thR+Px6mtrWX+/Pn06NGdCy64gL59+7Bnzx6kkuTn51NY2IIlS5ZSV1/vSfE7qKqu5uOPP+bgwYNMnjyZ3n36kEjENZkE3mdlZSWrVq1CWIKLLppIly5dPG2GNp5zXa1xccxzzHimp2swnbk1a9awf/9+zhk1in379rF6zRocx2HP7t387W9/4+233sZxHHZs386f//wXli5ZQjwe541//pN7772XO+64kzlz5lJTcwgpXea//TZbt5aSTCZZvnw5999/P7fddhv3/fjHrFy5inhDA9t37OChX/6Su+66izu+fwevv/469XV1+vtpoqxhOHKwb7/99p9iev1e8KWAJrZheph+Uqd7Y3quqwna9ay3AX75y18yfPjZXHX1VXTu0pkOHTrQuXNnNm7axIcffMCQM89k0aJFXHXVVSilrdB379rFjBkzmDdvHgcPHmTixAnU1dez9uO1TJ16Kclkkk2bN7F1yxbGjBnDxx+vJTsri7POOgvHcdmwQU9Lu+aaa8nJySYnO4ddu3cz8403ePvttzlUc4jx48bRv/8AbQ8TkIwANm7cyPZPPqFXr15069aNrFiMtWvXMmv2LObNnUer1q2YMGECXTp3ZunSpSx891169+5FdXU1K1etYvny5WwtLWX37t0MHDSI2hrtX37osGEU5OeTTCYRQrBy5UqqqqoYMeJssrOzmTFjBr1796FXr54kk0n++uij3PCdG+jZ8wxWrV7NG2/8k7femsfevXu5dOpUiotL2Lu3nJdffhnXdWnfvj0L332XDRs28sGHH4BSWMJi0qRJZOfk8OqMV3l34bt8/PEaFHDOyJHk5eXz4YcrWLHiQ1auXMmu3bvJzclh+LDh7N+/j9mz3yQSsSkuKWHlRx/x4YoVrF27jl27d9GmTTEDBg4kJyfHn8EgPScrwef5qfXnFE6vqq5m1qxZJBIJplx8MR9//DGJRIJBgwdz4MAB5s6dR0GLAnr37sP+yv3MmzuXNm3aUFFRwVtvvUX//gM499xRrN+wnrq6OoYNH86M116je/duRCIR/u///o+BAwcyZswYPVTz6qsMHDCQN9+cTU1NDRMvuogzevRg8eLFnHXWULKyYrp83jf7aeUP03UQ27dvN1rBECFOCyQSCd9xCuBv165bR6uiIkpK2iKEHleO2Dbbt2+n+tAhOnXsyPbt2xkwYKA2JFKwd2+5Pxadl5dPx44dOHToEJWVlfTsqQnv0KFDVB44QNcuXdhbUUHEjtC2rVa17969ByldevTogVLgOEkqKw+wb18FrivJL8inbUkJOTk5vtMb5anRhRDs31/JoUOHaNWqiPz8AuLxBsrL91JTo9X1hYWFlJSUEIlEKfukjJpDh+jatRt1dbUcPHgQqRTRSJRkMkG7du1IJJIkk0natW9HVizmS+2VlZXU1dXTsVNHbNtmy+bNtGrdmtatWuFKyUcffcSwoUNJOg7le/Zw4MABXG8YomuXLkQiEQ4cOEhZWRn5+XkUFbVi9+5dWJ7TmqxYFrZt06VLZ2pqati5c6dWJVo2lmXRoWMHhBDs2rmTeDxOJBLBsizsSIT27dtTW1PDrl27ad2mNfl5+ZSX7/Gc4kRQKPJyc2nbtq23eI2evWCeY6a3s9MVKz76iOeefZYBAwby+c9fzpNPPsmWLVv5f9/8f+Tl5vLYY48xeMgQpl02jbKybfz10UcZM3oMZWXbOHiwiiu/cCVdu3TlueeeZdOmTVx77bX88qGHmHbZNJJOkg8//JDrvvxlevXqTXV1Fdd/+9vccsstVO6v5B//+AcDBw2kf79+dOvWjUGDBxOLRjOLGOIoIMrKypRvGp/aHcbD+Ckbl0pheUQupUKhsAMNu0lX3mwR1/eSBqCdmEipXau6rvbEJaXEto1HrtQsE+V5PZPSRQGW0OPfJn+pPE9eae5StdMZk49UClSq82HyM9OFgiSvlPLv18RTTmzM/sbnC6GfhRCknLQEngdB5y0ZpChV6vlp61yXSCSiLXGt9E6IlLq50XeSKo8pn7nf4PMPbs31g8cHy5N67ikXs6n3n9pm5mfKp3Hk+nMqxh3H4fnnn+fRR/9Kq1atadWqFbt376am5hA33ngjI0aM5PEnHmfwoEFMm3Y527aV+qS+fsN6LCG48sorad++PTNnzmT16jVcccUVPPTfmtQrKyvZsWM7X/7ydXTq1AnXdbn22mv41re+xVlnncWWLVvYvHkLW7duZfv2T7j33h/RuXPnJutjU+UP46m4/b3vfe+nugFJifVhPIyfqvFEMolAk52UOg0FyaTjEbhEkIqnHed5T0s6Sf0ZeXma/cHgunp6j/KmmUCKbAjsF96HKKXE8c7Bm7amlO5QmDF8c76+Zur6jm8Vr8sKyneGg+cARCmFK13IKGdmAF324PQkvKlt5nkob/zccbRqXpdLl8OQrMkrkUyCl4/jugjPsl54HQDXNRa9uoxJJ+kRur4XXRbdUQjes/kN+rqJZNL4BgyUMfVuHEdbaJv3ZvI192buU597+PpzqsY/+aSMuXPn0a1bN77zne8wYuRILrjgAqqrqtizZw9dunbh4zVryMrKpm/fvixZupRlS5cycOBAcvPy2Lx5C506d6ZVq1bMnDmTvXv3MmTIYJYuW0bfvn3p0LED8+bNo8cZPWjbri0rP/qId999lylTpjB37lwARowcSb9+/XjuuWc5a+hQSkqK/Y5pZnnD+OHjYvPmzQFJPdyG21N7qzIkPKW0UZuRxvEkT4FO1xK43m/yMdPSfNITYFsWrvFtHZBoTX4otEGbN3asVctmsRLjd1t7UVNSEY1G0sqLR1law5Cer7k9IfT5QggE2kFNpkQqPElYoCUg3WFILchinkswf13OgHMSj8RN/o7jIITln59MOkSjEVwpsYRIOy/VOdEakuD9mPKY55GpYVCAdF0ikag+zjtf34/xUZ56TsHno6RCWMJ/TqYcwfs9XbdSKd6c/Sbz57/NlM99jtHnjwbvOb41bx6vv/5PJkwYj1SK2bNm6eGQDh0o++QTLp92OSNGjOCVV17mwxUrsC1dDwoKWnDdddfx61//mmnTLuOcUaOYO2cO77//PrW1tSAEo88fzcUXX8ymTRt59tln/XqRl5fLzTd/j1atirxvr+lyh9umt2LDho2KJmEOOhzC9DD95EzXBCXAkyh9aQAFeOToOJo8lNQk7G1d19HjwPpIlGqiT2winmQrRIpMjPQshIVCu1zV+ekcTX7KkzItK7WQCWh1vX/tQHnN+WbqmCmKT75NpBsyDJbfkHvwfvRQg+2RrSmPJgPLuw9zf643LGHyN+mmM+O63jh34Lm5rlbXKxRO0iESjaTuMfB+/OeJR8heJwmln1PwOuZ9mvszx+khB33h9Felr5jC4euPxqmTrlBUV1VRV1dHixaF5OZ6xoRAbU0tVdVV5OXmYUds9u/bj+s65Obl4TgOhS1aUNCiBVUHqzwnTXrxnUg0SlHLluytqKCoZUty8/Koq6vj4MGDJBMJbNumVevW5Obm4jgO5eXlvlYqPz+f4jbFCCtVbxvj6O+vaZy66WLduvXeV+IdE9z6R4XpYXoT25M4XcnUGKovpXvpKWlep/tSqiFbjyS0RJ7K1yc3S7tzDZ5n8jVxYUjZlMeMqQckymC6vp/0mwiSVub9BRtDc5whPdPJ8MuRcX/C8iR37/6C5wfLbTopeow/1dkw5Q9eP1j+YP5pZB0oV5Cc8aR4U77g80s7zyPqYCfK5H+48gfTGz1Hg8z9p2C6ea4m3dQf83wI1Gvz/nx4nSWaeI/6OjqSWa+D9ddsg/XfdCYblbuJ8ofpqa1Ys+bjkNQz94fpp3S635hAQPJOJzcpJRs3bOTPf/4z//Pb/wkYy3mSo9cpUCrVCB06dIjX//k6WbEszjzrTP7w+z/ws/t/Rl5enleelISORyqgyV56y66acqY1sh5ZGQm6qfMVOv7Xv/yV9u3bM3nyZKKe9bDfSfEaY+FJ7j7ZBhrVoKRuSNOyLLZs3swTTzzB7bffTsuiIq9cHjxjQksI7r//fsaNG8fo0WPA0wwY0jf5Hjx4kEf++AiTJ03GcZLMfvNNfvyjH6e9p0zSP91JtzmnB8m5qfRG+48y/bD5HuX5p2v6kT3KZfqWzQxheuN9YXqzT1dK4bieIZlvlKWJ0fFWRkNBXX0de8r3EI/HwfOupjzfy67UhlfKN7qSJJNJDhw4QGVlJfGGOLt27fTnQztOEuUZxCmlVwxzXQfHdVBoCSeZSOJ4TlJU0BDGO8+km+u70vXjUmqveJUHKqmurk5PN9cLOJfxz/PuQUqJk0ylm3KaeE1trfYN77okEgnvnrTDFyml10mAHTt2kEgmcT23unjqdaW0at08i73le2mIN9C9Rw+u+PzndVmTjn6u3rVdN+AMx9ufFg7zfsP0f296sM40lX7Y8Cnph833KM8/XdPFio8+CnJ+iBCnNFRgjFZL3N4qXeiVqV577TXmzp2LZVu0a9eO1atX8/RTT5FMJnn2uedY8eGHuK5L3379+OpXvkpOTjZCCFxXUlNbw/PPP49t2Zx77rk88F8P8Jc//4X6+jpefuUV1qxejeO6tGvXjquvvpoWBQW89dZbbNtWRkO8ASklXTp3Jj+/gNWrV9OqdSumXjqVM87owbL33+ftt96mfG85KJgwcQITxk9gf+V+Zs2cxdq1aykpKWb9hg1cPHkyV1xxBRs3beKfr7/Ozl27KMgvYMqUKQwdNpRD1Yd44YXn2bJ1K9KVjBo1iosmXUTLli31KlreWPWbb85h7ty5KBRtWrdhw4YN/OY3v6FVqyKmT3+R95e/TzKRoLikhO/e+F0KCgr47ndv5Iorr2TcuHEpgULB1q1beezxx6iuqqJ16zaU7y3nmmuuIRaNMXPWTH5y331s376Dp55+ivLycpykQ//+/fniF79IUVERiJRmIkSIEIeHff311/se5UwI42H8VI4bslFKIV1vKhOKdevX8djjj3HrLbdy0UUXsez9ZVRWVnLp1KnMmPEaZWXb+O5NNzHqnHPYumULH320gqHDhunesRA0NDSwevVqotEInTt3YdF7ixhzwRg2b97M5s2bueE7NzBk8BDK95bzSdkndOvenUWLFiGV5Fvf/BaWJVi48F0GDx7M5MmT2LFzJ59s/4SSkhJWr1pF9x7dufqqq8nOzmLjhg3k5uaxZOkSqqurufqLV1PSti1r1qyha9duFBa24KWXXqZnz1584QtfoLBlITNnzqR1q9as+XgN9XX1XDbtMkadO4p169bRqVMnCvILNHkCGzdu4ulnnubKL1zJxZMv5uO1H7Nr504mTZ7MgoULWblyJf/v/32DsWPHUbG3ggULF3DOyHN444036Ne/H927d/emwQka6ht4+HcP069fP6677ivk5uby5uw3Ofe8c3Ech/fff5/Ro0ezePES7IjN17/+dc7oeQYrV67Esi16dO+h39Fh3mcYD+NhPBXsb37zmz+VGTvDeBg/leOuq1VXSmkllVIK13F5/Z+vE4vGmDR5EgUFBWRnZ7Po3UVMmzaNxx9/nLUfr+X9999n0aL32LhpE3W1tUycONEzilPU1taybt06pCvp0LEDi95dxCWXXEJxcTGFhYWs37CeDz74gNWrV5OVlUX/Af3ZVlpKhw4dGH722eyrqGDfvgpGjRpF+w4d2LRxE1UHq7jwggtp1aoVNbU1rFz5Ee8vX86BAwcoKChgz549dOvWjZEjRtKuXTvWr1tPQYsCkkmHAwcPMGTIELp3707HDh1ZvGQx2dnZlJSUMHfuXNZ+vJZEIsGIEWfToYP22KbQHZ3578wn3hBn7IVjKS5uQ1Ysi48/XssFF17ACy+8wIYNG1i+/AMWLFjAuvXr2Fu+l0suuYSZM99gwICBdO7UCbxhg8oDlfzpj3/kjjvvpFXrVuTl5rJu/Tr69ulLPBFn06ZNfG7KFNp4q7FtWL+B5cuXU1paSvv27enVu1caqWe+zzAexsN4Khx5TD0MYTgFg5u5jroX4vE42dnZ/jzyvNw8srOzSCYSNNQ38PkrPs/PfvYz7rvvxzxw/wPcfPP3cN3UuLZAG9BpV6R6/nZtbS1Lli7h0Ucfpb6unn79+zFs2DBtvKbAsvX0H6W0pYtt5r97anDXddmydQvPPf8ci99bTKtWrTnrzLNo37498Xgc10kZ8Cmlrx2NRInHG3AdBztiI71pbMobt+/Tpw93330XEyZOoLKykl//5jd8vPbj1Hg2ikQ8QSwrhvKcu+Tl5aG8zo/jOFw06SJ+9KMf8ZOf/IQHH3yQe390r54jb1kkkgmk19g4joN0JdIzBDTljcW0X++IN72tqqqK1157jVdffRWlFAMG9KdX7144SQcCa3SHIQxhOHKwXFd7cwq34fZ02SrjyczRxlzS1UR25plnsnTZUioPVOK6LjNnzdQe6CyLgQMH8t6i97CERSwrixdfepFXX32VRDyhScdcQ+nOgZmaU11dzcYNG+nfrz+TJk3STju2leG6unNhLN6TnnEZSg8F6Cl2et73jh07SCaTXHDhBQwbPgypJBV7KyguLiY7J5utW7dSsa+C0m2lfPLJJ8Tjcbp06UrlgQOUbi0lEY+zdu1a9u/bT0lJCTPfmMn8d96hd6/eXPPFayhqWcSunbuor6tHSonruPTu05sN6zd485JdFi1aRG1dLUopBg4cyKJ3F4GA/Px8pk+fzvPPP+83KqbDZAzlsrOz6dypM+/MfwfHdfhk+3a2btlK0tFGdtKVVFdXs2H9BkadM4oLx15IcUkJpaWlfl6u0/g9httwG24bb+2vf/3rP0Vp1Va4Dbenw1Yp5U/XMgPsSiqKi4sBeOSRR1i4YCF5+XlUVFRw2dTL6N27Nxs2buCZZ55h7py5RKNRrr32WvLz85FKj8vH43E2btiIsAQdO3Zk8eLFXDzlYmzLZs7cObz91tusWrkKhCbxwYMGs2nzJgpaFNCrVy927dpFWVkZfXr3IT8/n7Vr11JXX8e5o85ly9YtzJ41m4ULF1K+p9y/xvDhw9m0cRPTX5jOpk2bKN9bTt++fRk6bCi5Obm8/fbbvPjSi3y04iPGjR/H0KFDKSkp4b3F7/HqjFeZN28eHTt2ZOzYsRS1LEJ6849bt26Nkopnnn2GWTNnISxBVVUV48aPo1/ffuwp38P0F6bz6quvIqXka1/9Gnl5ecyeNZv+/fvTqVMnX+NhR2zOOOMMpk+fzmuvvcaGDRvIzc2lf//+OI7Dlq1bmDBhAg0NDbw641UWLlzImjVryM/LB9CaDRq/x3AbbsNt462Y/84Cpds145jBtHNhPIyffvGko1cpEwh/fnVOTg4KRSKRwHW0G1bLsrSa3ffepj8q7RdeYNkWiXiC7OxspJQkEglAX8xYccdiMZykg7CEXgDF1dPEotEoQgiS3jrlkWhE+3L3lokVQluzRewIlm3pqWCu6zsHiUQjfn5GGhYIotGoVtWj1fCGwC3bIhqJauc3gefhOI5Wf/uLyEiys7W1fzwRR3r+2i3bIiuWhRCC+oZ6/zrB52uegTKzDlDEoloF7zgOWVlZOG7qeuY5WUI/58O9rzAexsN4evz/B7igvBy/ejNdAAAAAElFTkSuQmCC;imageBorder=default;" vertex="1" parent="1">
          <mxGeometry x="-286" y="374" width="422.47" height="269" as="geometry" />
        </mxCell>
        <mxCell id="VhYDefbL7mIAKc7-yA0q-27" style="edgeStyle=orthogonalEdgeStyle;rounded=0;orthogonalLoop=1;jettySize=auto;html=1;" edge="1" parent="1" source="VhYDefbL7mIAKc7-yA0q-24" target="VhYDefbL7mIAKc7-yA0q-26">
          <mxGeometry relative="1" as="geometry" />
        </mxCell>
        <mxCell id="VhYDefbL7mIAKc7-yA0q-29" value="DataLake" style="shape=mxgraph.ibm.box;prType=region;fontStyle=0;verticalAlign=top;align=left;spacingLeft=32;spacingTop=4;rounded=0;whiteSpace=wrap;html=1;strokeWidth=2;dashed=0;container=1;spacing=-4;collapsible=0;expand=0;recursiveResize=0;" vertex="1" parent="1">
          <mxGeometry x="650" y="220" width="180" height="140" as="geometry" />
        </mxCell>
        <mxCell id="VhYDefbL7mIAKc7-yA0q-39" style="edgeStyle=orthogonalEdgeStyle;rounded=0;orthogonalLoop=1;jettySize=auto;html=1;exitX=0;exitY=0.5;exitDx=0;exitDy=0;exitPerimeter=0;entryX=0.25;entryY=0.75;entryDx=0;entryDy=0;entryPerimeter=0;" edge="1" parent="VhYDefbL7mIAKc7-yA0q-29">
          <mxGeometry relative="1" as="geometry">
            <mxPoint x="160" y="435" as="sourcePoint" />
            <mxPoint x="170" y="445" as="targetPoint" />
          </mxGeometry>
        </mxCell>
        <mxCell id="VhYDefbL7mIAKc7-yA0q-46" value="" style="sketch=0;outlineConnect=0;fontColor=#232F3E;gradientColor=none;fillColor=#8C4FFF;strokeColor=none;dashed=0;verticalLabelPosition=bottom;verticalAlign=top;align=center;html=1;fontSize=12;fontStyle=0;aspect=fixed;pointerEvents=1;shape=mxgraph.aws4.data_lake_resource_icon;" vertex="1" parent="VhYDefbL7mIAKc7-yA0q-29">
          <mxGeometry x="60" y="34" width="78" height="78" as="geometry" />
        </mxCell>
        <mxCell id="VhYDefbL7mIAKc7-yA0q-40" style="edgeStyle=orthogonalEdgeStyle;rounded=0;orthogonalLoop=1;jettySize=auto;html=1;" edge="1" parent="1" source="VhYDefbL7mIAKc7-yA0q-24" target="VhYDefbL7mIAKc7-yA0q-29">
          <mxGeometry relative="1" as="geometry" />
        </mxCell>
      </root>
    </mxGraphModel>
  </diagram>
</mxfile>
